<svg width="21" height="20" viewBox="0 0 21 20" fill="none" xmlns="http://www.w3.org/2000/svg">
<g clip-path="url(#clip0_1784_8598)">
<path d="M7.59465 12.1955L7.58885 12.2055C7.47456 12.4026 7.32003 12.5735 7.13532 12.707C6.94631 12.844 6.72945 12.9377 6.50016 12.9814C6.49991 12.9814 6.49967 12.9815 6.49943 12.9815L6.47021 12.8279C6.26521 12.8687 6.01937 12.9104 5.77354 12.9104L7.59465 12.1955ZM7.59465 12.1955L7.59892 12.1847C7.68289 11.9731 7.77411 11.7035 7.77411 11.3854C7.77411 10.7761 7.5994 10.3154 7.22939 9.98966L7.22969 9.98932L7.22019 9.98215C6.85666 9.70813 6.36913 9.57981 5.81437 9.57981H3.10938H2.95298V9.73621V12.9112V13.0677L3.10942 13.0676L5.77354 13.0668L7.59465 12.1955ZM7.4122 3.74455L7.41205 3.7451L7.42527 3.74754C7.81361 3.8189 8.18429 3.96534 8.51654 4.17865L8.51654 4.17866L8.51797 4.17956C8.8184 4.3679 9.04402 4.6322 9.19541 4.97592L9.19553 4.97619C9.34878 5.32237 9.42798 5.75386 9.42798 6.23204C9.42798 6.78959 9.30947 7.24514 9.05147 7.57889L9.05113 7.57863L9.04476 7.58826C8.81832 7.93062 8.43286 8.24383 7.95739 8.48318L7.60494 8.6606L7.98323 8.77282C8.65195 8.9712 9.15061 9.32315 9.45401 9.78094L9.45404 9.781C9.7656 10.2507 9.96131 10.839 9.96131 11.5087C9.96131 12.0634 9.84299 12.5336 9.64932 12.9233C9.45643 13.3114 9.14731 13.6612 8.80107 13.8935C8.41497 14.1489 7.98818 14.3366 7.53903 14.4486L7.53858 14.4487C7.05448 14.571 6.57636 14.6506 6.10187 14.6506H0.765775V3.58511H5.97854C6.50386 3.58511 6.98094 3.62635 7.4122 3.74455ZM6.02893 8.20261L6.00287 8.17658C6.33031 8.12822 6.61306 8.01201 6.84809 7.84325C7.19443 7.59457 7.32328 7.16041 7.32328 6.68538C7.32328 6.42576 7.28032 6.15105 7.18357 5.95655C7.08688 5.76134 6.9427 5.61971 6.76946 5.4889L6.75812 5.48034L6.74544 5.47396L6.73971 5.47109C6.5786 5.39011 6.39857 5.29963 6.17303 5.25461C5.95255 5.2098 5.73479 5.2098 5.49478 5.20981L5.48604 5.20981H3.10938H2.95298V5.36621V8.04621V8.20261H3.10938H5.65104H6.02893ZM13.8399 13.2485V13.1948C14.184 13.416 14.6283 13.5201 15.1585 13.5201C15.6378 13.5201 16.0768 13.389 16.4301 13.167L16.4304 13.1674L16.441 13.1594C16.739 12.9348 16.9549 12.6988 17.0684 12.4484H18.7495C18.4322 13.3026 17.9832 13.9064 17.409 14.3048C16.778 14.7005 16.0294 14.939 15.1177 14.939L15.1172 14.939C14.5339 14.9407 13.9554 14.8324 13.4122 14.6197L13.4122 14.6197L13.4101 14.6189C12.929 14.4384 12.5 14.1419 12.1611 13.7556L12.1614 13.7553L12.154 13.748C11.7916 13.3866 11.5237 12.9415 11.3739 12.4521L11.3743 12.452L11.3704 12.442C11.1741 11.9289 11.0933 11.3723 11.0933 10.7254C11.0933 10.1208 11.174 9.56401 11.3705 9.04952L11.3705 9.04946C11.5602 8.55217 11.8408 8.0945 12.1978 7.69978C12.5548 7.3418 12.9877 7.02688 13.4555 6.83003C13.9837 6.61791 14.548 6.50984 15.1172 6.51178H15.1177C15.796 6.51178 16.3837 6.63264 16.8874 6.90541L16.8875 6.90546C17.4044 7.18491 17.7916 7.49918 18.1024 7.96766L18.1023 7.9677L18.1048 7.97128C18.4274 8.42921 18.6683 8.93952 18.8167 9.47958C18.8902 10.0017 18.9293 10.5223 18.9036 11.1048H13.1094H12.953V11.2612C12.953 11.9534 13.2093 12.6147 13.5727 12.9799L13.8399 13.2485ZM16.3763 8.43027L16.3761 8.43011C16.0529 8.10504 15.5582 7.93088 14.9955 7.93064C14.6581 7.92578 14.3245 8.00203 14.0227 8.153L14.0222 8.15327C13.7553 8.28806 13.5773 8.467 13.4164 8.62882L13.4085 8.63673L13.4085 8.6367L13.4058 8.63953C13.2341 8.82086 13.1204 9.04915 13.0789 9.29533C13.0728 9.32568 13.0665 9.3558 13.0602 9.38572C13.0264 9.54776 12.9938 9.7039 12.9938 9.85954V10.0159H13.1502H16.8385H17.017L16.9936 9.83907C16.9085 9.19454 16.6919 8.74869 16.3763 8.43027ZM12.8158 4.36844H17.0921V5.16898H12.8158V4.36844Z" fill="white" fill-opacity="0.9" stroke="url(#paint0_linear_1784_8598)" stroke-width="0.3128"/>
</g>
<defs>
<linearGradient id="paint0_linear_1784_8598" x1="9.83863" y1="3.42871" x2="9.83863" y2="15.0954" gradientUnits="userSpaceOnUse">
<stop stop-color="white"/>
<stop offset="1" stop-color="white" stop-opacity="0"/>
</linearGradient>
<clipPath id="clip0_1784_8598">
<rect width="20" height="20" fill="white" transform="translate(0.609375)"/>
</clipPath>
</defs>
</svg>
