<svg width="20" height="20" viewBox="0 0 20 20" fill="none" xmlns="http://www.w3.org/2000/svg">
<g clip-path="url(#clip0_2812_2832)">
<path d="M18.3346 9.99984C18.3361 11.0975 18.1199 12.1845 17.6988 13.1981C17.2776 14.2117 16.6597 15.1318 15.8809 15.9053C15.1084 16.6764 14.1916 17.2877 13.1827 17.7043C12.1739 18.1209 11.0928 18.3346 10.0013 18.3332C5.39881 18.3332 1.66798 14.6023 1.66798 9.99984C1.66506 7.86308 2.48584 5.80741 3.95964 4.26026C4.73729 3.43968 5.67419 2.7864 6.71303 2.34042C7.75187 1.89444 8.87079 1.66512 10.0013 1.66651C11.0928 1.6651 12.1739 1.8788 13.1827 2.29539C14.1916 2.71199 15.1084 3.32331 15.8809 4.09443C16.6597 4.86785 17.2776 5.78796 17.6988 6.80157C18.1199 7.81519 18.3361 8.90221 18.3346 9.99984Z" stroke="white" stroke-width="1.66667" stroke-linecap="round" stroke-linejoin="round"/>
<path d="M18.3351 9.99998C17.1192 9.99998 13.7651 9.54165 10.763 10.8596C7.50174 12.2916 5.14049 14.5129 4.11133 15.8946" stroke="white" stroke-width="1.66667" stroke-linecap="round" stroke-linejoin="round"/>
<path d="M6.87695 2.27246C8.18112 3.47621 11.027 6.54079 12.0853 9.58329C13.1436 12.6258 13.5353 16.3666 13.777 17.4312" stroke="white" stroke-width="1.66667" stroke-linecap="round" stroke-linejoin="round"/>
<path d="M1.73242 8.9583C3.30659 9.0533 7.47367 9.13872 10.1403 7.99997C12.807 6.86122 15.1016 4.76663 15.8887 4.10205M2.29326 13.1721C3.02755 14.9495 4.35188 16.4197 6.04326 17.335" stroke="white" stroke-width="1.66667" stroke-linecap="round" stroke-linejoin="round"/>
<path d="M1.66798 9.99984C1.66506 7.86308 2.48584 5.80741 3.95964 4.26026C4.73729 3.43968 5.67419 2.7864 6.71303 2.34042C7.75187 1.89444 8.87079 1.66512 10.0013 1.66651M13.3346 2.35984C14.2837 2.77507 15.1471 3.36328 15.8809 4.09443C16.6597 4.86785 17.2776 5.78796 17.6988 6.80157C18.1199 7.81519 18.3361 8.90221 18.3346 9.99984C18.3346 11.0257 18.1492 12.0086 17.8096 12.9165M10.0013 18.3332C11.0928 18.3346 12.1739 18.1209 13.1827 17.7043C14.1916 17.2877 15.1084 16.6764 15.8809 15.9053" stroke="white" stroke-width="1.66667" stroke-linecap="round" stroke-linejoin="round"/>
</g>
<defs>
<clipPath id="clip0_2812_2832">
<rect width="20" height="20" fill="white"/>
</clipPath>
</defs>
</svg>
