<svg width="11" height="20" viewBox="0 0 11 20" fill="none" xmlns="http://www.w3.org/2000/svg">
<mask id="path-1-inside-1_1784_8583" fill="white">
<path fill-rule="evenodd" clip-rule="evenodd" d="M6.96673 4.61883V6.5763H10.2294L9.84195 9.86446H6.96673V19.7289H6.96499V19.7966C5.84945 20.0946 3.63325 20.0289 2.73535 19.8292V19.395H2.73547V9.86446H0.441406V6.5763H2.73547V4.38249C2.73547 1.61325 3.88759 0 7.37966 0H10.2294V3.28815H8.52159C7.16045 3.28815 6.96673 3.73513 6.96673 4.61883Z"/>
</mask>
<path fill-rule="evenodd" clip-rule="evenodd" d="M6.96673 4.61883V6.5763H10.2294L9.84195 9.86446H6.96673V19.7289H6.96499V19.7966C5.84945 20.0946 3.63325 20.0289 2.73535 19.8292V19.395H2.73547V9.86446H0.441406V6.5763H2.73547V4.38249C2.73547 1.61325 3.88759 0 7.37966 0H10.2294V3.28815H8.52159C7.16045 3.28815 6.96673 3.73513 6.96673 4.61883Z" fill="white" fill-opacity="0.9"/>
<path d="M6.96673 6.5763H6.65393V6.8891H6.96673V6.5763ZM10.2294 6.5763L10.54 6.61291L10.5812 6.2635H10.2294V6.5763ZM9.84195 9.86446V10.1773H10.1201L10.1526 9.90106L9.84195 9.86446ZM6.96673 9.86446V9.55165H6.65393V9.86446H6.96673ZM6.96673 19.7289V20.0417H7.27953V19.7289H6.96673ZM6.96499 19.7289V19.4161H6.65219V19.7289H6.96499ZM6.96499 19.7966L7.04572 20.0988L7.27779 20.0368V19.7966H6.96499ZM2.73535 19.8292H2.42255V20.0801L2.66747 20.1346L2.73535 19.8292ZM2.73535 19.395V19.0822H2.42255V19.395H2.73535ZM2.73547 19.395V19.7078H3.04827V19.395H2.73547ZM2.73547 9.86446H3.04827V9.55165H2.73547V9.86446ZM0.441406 9.86446H0.128606V10.1773H0.441406V9.86446ZM0.441406 6.5763V6.2635H0.128606V6.5763H0.441406ZM2.73547 6.5763V6.8891H3.04827V6.5763H2.73547ZM10.2294 0H10.5422V-0.3128H10.2294V0ZM10.2294 3.28815V3.60095H10.5422V3.28815H10.2294ZM7.27953 6.5763V4.61883H6.65393V6.5763H7.27953ZM10.2294 6.2635H6.96673V6.8891H10.2294V6.2635ZM10.1526 9.90106L10.54 6.61291L9.91874 6.5397L9.5313 9.82785L10.1526 9.90106ZM6.96673 10.1773H9.84195V9.55165H6.96673V10.1773ZM7.27953 19.7289V9.86446H6.65393V19.7289H7.27953ZM6.96499 20.0417H6.96673V19.4161H6.96499V20.0417ZM6.65219 19.7289V19.7966H7.27779V19.7289H6.65219ZM6.88426 19.4944C6.36774 19.6324 5.56854 19.6908 4.77016 19.6867C3.97346 19.6826 3.22046 19.6166 2.80323 19.5239L2.66747 20.1346C3.14814 20.2414 3.95219 20.3081 4.76694 20.3123C5.58002 20.3165 6.4467 20.2588 7.04572 20.0988L6.88426 19.4944ZM3.04815 19.8292V19.395H2.42255V19.8292H3.04815ZM2.73535 19.7078H2.73547V19.0822H2.73535V19.7078ZM2.42267 9.86446V19.395H3.04827V9.86446H2.42267ZM0.441406 10.1773H2.73547V9.55165H0.441406V10.1773ZM0.128606 6.5763V9.86446H0.754206V6.5763H0.128606ZM2.73547 6.2635H0.441406V6.8891H2.73547V6.2635ZM2.42267 4.38249V6.5763H3.04827V4.38249H2.42267ZM7.37966 -0.3128C5.59235 -0.3128 4.33123 0.0994861 3.52315 0.935368C2.71673 1.76953 2.42267 2.96286 2.42267 4.38249H3.04827C3.04827 3.03288 3.33027 2.03496 3.97293 1.37019C4.61393 0.707139 5.6749 0.3128 7.37966 0.3128V-0.3128ZM10.2294 -0.3128H7.37966V0.3128H10.2294V-0.3128ZM10.5422 3.28815V0H9.91659V3.28815H10.5422ZM8.52159 3.60095H10.2294V2.97535H8.52159V3.60095ZM7.27953 4.61883C7.27953 4.1759 7.33536 3.96485 7.45673 3.84146C7.58029 3.71585 7.85301 3.60095 8.52159 3.60095V2.97535C7.82903 2.97535 7.32433 3.08395 7.01073 3.40275C6.69496 3.72378 6.65393 4.17806 6.65393 4.61883H7.27953Z" fill="url(#paint0_linear_1784_8583)" mask="url(#path-1-inside-1_1784_8583)"/>
<defs>
<linearGradient id="paint0_linear_1784_8583" x1="5.3354" y1="0" x2="5.3354" y2="19.9999" gradientUnits="userSpaceOnUse">
<stop stop-color="white"/>
<stop offset="1" stop-color="white" stop-opacity="0"/>
</linearGradient>
</defs>
</svg>
