<svg width="57" height="56" viewBox="0 0 57 56" fill="none" xmlns="http://www.w3.org/2000/svg">
<g clip-path="url(#clip0_2778_2794)">
<path d="M37.0715 46.3355C37.4094 50.6168 37.4094 50.6168 39.4114 54.0358C37.5834 54.5981 35.8008 55.1452 34.0081 55.6974C33.7433 55.231 33.5794 54.8931 33.3752 54.5855C32.5028 53.2744 31.5346 52.2356 29.6889 52.6466C28.8493 52.8331 27.8962 52.8357 27.0566 52.6466C25.1454 52.2179 24.1797 53.3273 23.3022 54.6813C23.1232 54.9587 22.9871 55.2638 22.7022 55.8008C20.0749 54.8452 17.4627 53.8946 14.848 52.9466C14.9842 52.2104 15.1052 51.7641 15.1405 51.3102C15.2515 49.8831 15.1733 48.577 13.6252 47.7929C12.8587 47.4046 12.1123 46.807 11.5954 46.1212C10.3171 44.4243 8.7715 44.6361 7.10234 45.2438C6.87037 45.327 6.64849 45.4379 6.15178 45.6497C4.75241 43.2317 3.35556 40.8213 1.95367 38.4007C2.5235 37.9217 2.93196 37.6292 3.27739 37.2762C4.28847 36.2449 5.00202 35.1683 4.31368 33.5924C3.98843 32.8436 3.82706 31.946 3.86992 31.129C3.98338 29.0237 2.67983 28.1563 1.01571 27.5235C0.786264 27.4352 0.54169 27.3848 -0.00292969 27.2285C0.476134 24.4776 0.950155 21.7369 1.43174 18.9633C2.13773 18.9633 2.5941 18.9911 3.04543 18.9583C4.53557 18.8549 5.824 18.5095 6.32827 16.8C6.56024 16.0158 6.99392 15.2065 7.55367 14.6165C9.10684 12.9776 8.52188 11.432 7.56123 9.84097C7.4755 9.69725 7.37465 9.56362 7.10234 9.15768C9.243 7.35741 11.4013 5.54201 13.5167 3.76443C14.1925 4.30653 14.5909 4.67969 15.0422 4.97722C16.1793 5.72607 17.3039 6.16479 18.6452 5.25709C19.3538 4.77803 20.2539 4.43008 21.1036 4.33931C23.1913 4.1149 23.6956 2.64241 24.0561 0.980819C24.1091 0.736245 24.1141 0.484106 24.1671 0C26.9431 0 29.7217 0 32.5734 0C32.6843 0.592526 32.7373 1.08924 32.8709 1.56326C33.2642 2.94498 33.8139 4.12499 35.5335 4.30905C36.3454 4.3973 37.2102 4.69482 37.8935 5.13859C39.7089 6.32112 41.1335 5.61513 42.5203 4.40738C42.6766 4.27123 42.8253 4.12499 43.2212 3.76191C45.3467 5.53444 47.4823 7.31202 49.6482 9.11733C49.2877 9.7502 49.0128 10.1612 48.8061 10.605C48.2009 11.9136 47.8807 13.1667 49.0607 14.4249C49.6482 15.0527 50.155 15.8696 50.392 16.6891C50.9946 18.7742 52.5907 18.9734 54.3304 19.0188C54.5347 19.0239 54.7414 18.9835 55.3138 18.9281C55.8054 21.7016 56.2946 24.465 56.7686 27.1453C54.9356 28.0101 53.0017 28.3 52.9159 30.5113C51.5569 29.8683 50.1727 29.2153 48.6321 28.4891C48.6044 21.1973 45.6316 15.1787 39.3332 11.0185C34.5779 7.87681 29.3183 7.02206 23.7637 8.3004C12.7376 10.8369 5.98032 22.1756 8.83201 33.0932C11.7745 44.3663 24.5125 51.8674 37.0715 46.3355Z" fill="white"/>
<path d="M41.2137 38.3427C41.2137 37.5837 41.1935 36.8752 41.2162 36.1692C41.3297 32.6418 44.1385 29.9339 47.6634 29.9414C51.1908 29.949 53.9694 32.6595 54.0753 36.1995C54.0879 36.6181 54.1106 37.0416 54.0728 37.4577C54.0047 38.1964 54.2644 38.499 55.0485 38.5242C56.2462 38.5646 56.9043 39.3235 56.9169 40.4833C56.9446 43.209 57.048 45.9497 56.8362 48.6602C56.5286 52.6188 53.2382 55.7503 49.267 55.9596C47.6105 56.0479 45.8757 56.0201 44.2822 55.6217C40.9389 54.7846 38.5461 51.6859 38.4124 48.2543C38.3141 45.6976 38.3519 43.1333 38.3872 40.5741C38.4099 39.1117 38.9369 38.7184 41.2137 38.3427ZM40.6993 40.7506C40.6514 41.0027 40.5783 41.2019 40.5783 41.4011C40.5783 43.6653 40.4901 45.9371 40.6187 48.1937C40.7926 51.2623 43.2459 53.5315 46.38 53.824C51.7304 54.3207 53.7122 51.8624 54.5518 49.2174C54.5644 49.1771 54.5745 49.1342 54.5745 49.0939C54.5745 46.343 54.5745 43.5922 54.5745 40.7506C49.9932 40.7506 45.3639 40.7506 40.6993 40.7506ZM51.7228 38.4082C52.2221 35.7003 51.5993 33.8344 49.8847 32.7578C48.4274 31.8451 46.5389 31.9207 45.1496 32.9469C43.5838 34.1017 43.0165 36.0986 43.6216 38.4082C46.3195 38.4082 49.03 38.4082 51.7228 38.4082Z" fill="white"/>
<path d="M27.2352 16.9891C27.5529 15.2191 27.5529 15.2191 29.3305 15.4914C29.1288 16.8 29.9608 17.1076 31.0652 17.4405C33.1932 18.0809 34.3329 20.04 34.2472 22.453C32.6486 23.043 32.2326 22.864 31.751 21.3764C31.161 19.5509 29.517 18.8449 27.0587 19.3618C25.445 19.7022 24.3306 21.1393 24.6684 22.8135C24.8222 23.5801 25.3921 24.4222 26.0249 24.8886C26.7713 25.4383 27.7874 25.6224 28.6926 25.9502C29.7566 26.3359 30.8685 26.6108 31.8821 27.0974C34.2119 28.2144 35.2683 30.1533 35.0212 32.6016C34.7615 35.1784 33.2815 36.9863 30.7525 37.5964C29.8045 37.8259 29.2044 38.0705 29.4061 39.1975C29.5423 39.959 29.038 40.075 28.3975 40.0724C27.7647 40.0699 27.3108 39.9867 27.3764 39.1975C27.4092 38.7865 27.3814 38.3705 27.3814 37.9999C22.9539 36.4744 21.4032 34.4901 21.8823 30.9475C22.5605 30.9475 23.2539 30.9475 23.9977 30.9475C24.0709 31.293 24.1541 31.6132 24.207 31.9384C24.7441 35.2213 28.1631 36.782 31.0324 35.0473C33.2084 33.7337 33.2084 30.5744 30.987 29.3238C30.2684 28.9178 29.4238 28.7338 28.6346 28.4539C27.4117 28.0177 26.151 27.6672 24.9685 27.1377C22.8051 26.1695 22.0663 24.3642 22.2454 22.0899C22.4193 19.8711 23.4783 18.2902 25.5635 17.4581C26.1056 17.2488 26.6855 17.1429 27.2352 16.9891Z" fill="white"/>
<path d="M45.8809 51C45.9994 50.1604 46.0901 49.5578 46.1683 48.9527C46.2969 47.9466 46.5995 47.0036 45.9893 45.9421C45.7296 45.4933 46.1002 44.331 46.5642 43.9124C46.9777 43.5418 48.1148 43.4661 48.5636 43.7838C49.078 44.1469 49.6176 45.3395 49.3906 45.7278C48.6014 47.0717 49.02 48.3274 49.2822 49.5931C49.4991 50.6445 49.2595 51.0908 48.1501 51.0101C47.4542 50.9572 46.7533 51 45.8809 51Z" fill="white"/>
</g>
<defs>
<clipPath id="clip0_2778_2794">
<rect width="56.9707" height="56" fill="white"/>
</clipPath>
</defs>
</svg>
