<svg width="21" height="20" viewBox="0 0 21 20" fill="none" xmlns="http://www.w3.org/2000/svg">
<path d="M5.03084 19.9997H0.745117V5.58105H5.03084V19.9997ZM20.7452 19.9997H16.4594V12.2973C16.4594 10.2902 15.7509 9.29097 14.3466 9.29097C13.2337 9.29097 12.528 9.85041 12.1737 10.9707C12.1737 12.7904 12.1737 19.9997 12.1737 19.9997H7.88799C7.88799 19.9997 7.94513 7.02292 7.88799 5.58105H11.2709L11.5323 8.46478H11.6209C12.4994 7.02292 13.9037 6.04533 15.8294 6.04533C17.2937 6.04533 18.478 6.45627 19.3823 7.48864C20.2923 8.52246 20.7452 9.90953 20.7452 11.8575V19.9997Z" fill="white"/>
<path d="M3.0707 4.41861C4.35509 4.41861 5.39629 3.42947 5.39629 2.20931C5.39629 0.98914 4.35509 0 3.0707 0C1.78632 0 0.745117 0.98914 0.745117 2.20931C0.745117 3.42947 1.78632 4.41861 3.0707 4.41861Z" fill="white"/>
</svg>
