<svg width="200" height="89" viewBox="0 0 200 89" fill="none" xmlns="http://www.w3.org/2000/svg">
<g clip-path="url(#clip0_3126_3219)">
<path d="M107.392 67.4185L107.693 73.3336H106.69C106.69 72.8528 106.49 72.3719 106.369 71.8911C105.729 69.4248 104.926 68.7433 102.359 68.5219C101.498 68.4631 100.633 68.4631 99.772 68.5219C98.9314 68.5219 98.7101 68.8229 98.7101 69.6634V74.776C100.716 74.9767 102.38 74.4336 102.56 71.649H102.999C103.152 71.6386 103.307 71.6386 103.459 71.649V79.0861H102.979C102.598 79.0861 102.477 78.965 102.439 78.5845C102.408 77.0141 101.111 75.7619 99.5403 75.793C99.2531 75.7999 98.966 75.8484 98.6928 75.9383V81.9537C98.6928 82.694 98.8934 82.9569 99.6336 83.0157C101.228 83.1886 102.84 83.1022 104.404 82.7562C105.258 82.6006 105.964 82.0056 106.268 81.1927C106.621 80.2968 106.919 79.3801 107.15 78.4462C107.372 77.6852 107.33 77.6852 108.192 77.7647V78.3666L107.949 83.839C107.949 84.0984 107.949 84.1987 107.569 84.1987H93.7773V83.1367H94.9811C95.9635 83.1367 96.2056 82.8773 96.2056 81.8949V69.7465C96.2056 68.7641 95.9462 68.5046 94.9638 68.5046H93.7808V67.4219H107.392V67.4185Z" fill="white"/>
<path d="M134.157 73.8525L133.375 74.4544C133.579 74.7899 133.759 75.1358 133.915 75.4956C134.61 77.277 133.77 79.2902 132.009 80.0478C131.099 80.449 130.117 80.6497 129.121 80.6289C128.484 80.6427 127.848 80.6946 127.215 80.788C126.748 80.8295 126.398 81.2412 126.433 81.7116C126.454 82.144 126.82 82.4761 127.253 82.4519C127.253 82.4519 127.253 82.4519 127.256 82.4519C128.059 82.4519 128.878 82.4519 129.702 82.4519C130.684 82.3931 131.666 82.3931 132.649 82.4519C134.091 82.6318 134.814 83.2544 135.036 84.3371C135.409 85.6619 134.904 87.0802 133.773 87.8654C132.891 88.4223 131.888 88.751 130.847 88.8271C129.463 89.0277 128.055 88.9654 126.696 88.6472C126.09 88.5053 125.516 88.2459 125.011 87.8862C124.229 87.3223 124.056 86.2327 124.62 85.4509C124.727 85.3022 124.862 85.1673 125.011 85.0601C125.457 84.7557 125.924 84.4858 126.416 84.2575C125.475 84.0258 124.835 83.1575 124.893 82.1924C125.015 80.9299 125.876 80.3695 127.038 80.0478L126.879 79.906C125.693 79.266 125.028 77.955 125.215 76.6198C125.267 75.2292 126.156 74.0116 127.46 73.5342C129.155 72.839 131.082 72.9877 132.652 73.9355L133.777 73.133C134.292 72.7767 134.928 72.6452 135.541 72.7732C136.26 72.9912 136.668 73.7522 136.45 74.4717C136.447 74.4786 136.447 74.489 136.444 74.4959C136.26 75.0424 135.669 75.3364 135.122 75.1531C135.108 75.1496 135.094 75.1427 135.077 75.1358C134.832 74.9871 134.621 74.7899 134.455 74.5547C134.327 74.3368 134.223 74.1015 134.157 73.8525ZM127.26 77.0418C127.26 77.2839 127.26 77.5226 127.26 77.744C127.26 78.8509 128.155 79.7503 129.266 79.7503C130.369 80.117 131.559 79.5185 131.926 78.4151C131.964 78.294 131.995 78.1729 132.012 78.0484C132.223 77.2251 132.223 76.3638 132.012 75.544C131.774 74.5305 130.798 73.8663 129.767 74.022C128.747 73.9182 127.813 74.6031 127.602 75.6063C127.457 76.0698 127.343 76.5541 127.26 77.0418ZM130.006 84.3994C129.425 84.3994 128.865 84.3994 128.301 84.3994C127.308 84.3855 126.454 85.1016 126.294 86.084C126.294 86.9868 126.675 87.5679 127.816 87.8066C129.058 88.0868 130.345 88.0868 131.587 87.8066C131.995 87.7132 132.386 87.5575 132.749 87.3465C133.341 86.9937 133.621 86.2846 133.431 85.6239C133.316 85.0324 132.808 84.6 132.206 84.5827C131.469 84.4789 130.708 84.4582 130.006 84.3994Z" fill="white"/>
<path d="M105.126 16.1369V17.2196H97.1077V16.1369H98.5917C99.5533 16.1369 99.7747 15.8948 99.7747 14.9331V2.58749C99.7747 1.54629 99.5949 1.36296 98.5502 1.34566C97.1596 1.13466 95.8348 1.99598 95.4647 3.35196C95.1603 4.35511 94.9043 5.37209 94.7036 6.39945V6.77996H93.9219L94.164 0.446289H108.198L108.557 6.88027H107.717C107.475 5.85637 107.278 4.87398 106.977 3.87429C106.71 2.20007 105.14 1.06201 103.466 1.32837C103.428 1.33529 103.386 1.3422 103.348 1.34912C102.767 1.34912 102.566 1.54975 102.487 2.13089C102.487 2.33152 102.487 2.5529 102.487 2.77082V15.0404C102.487 15.8809 102.746 16.1231 103.59 16.1438H105.126V16.1369Z" fill="white"/>
<path d="M107.294 44.104L108.276 44.2251C108.196 47.5424 105.578 50.2439 102.26 50.4204C99.0677 50.659 96.0929 48.7911 94.9237 45.8093C93.4674 42.6754 93.6957 39.0191 95.5256 36.0857C97.5042 32.803 101.766 31.748 105.045 33.7231C105.305 33.8788 105.554 34.0518 105.789 34.2385L106.29 33.4153C106.712 32.7546 106.712 32.7546 107.574 32.8929L107.954 39.6071H107.072C106.937 38.9257 106.757 38.2581 106.533 37.6008C106.197 36.7291 105.747 35.9058 105.19 35.1552C103.696 33.3461 101.019 33.0901 99.2061 34.5845C98.7253 34.9788 98.3378 35.4769 98.0715 36.0373C97.5526 37.165 97.2517 38.3826 97.1894 39.6244C96.9784 41.6411 97.1271 43.6751 97.6287 45.6398C97.9539 47.2726 99.1853 48.5732 100.797 48.9883C103.07 49.6559 105.484 48.542 106.449 46.3836C106.754 45.7263 106.972 44.9065 107.294 44.104Z" fill="white"/>
<path d="M137.505 17.2196H132.012C132.012 17.2196 132.012 17.2196 132.012 17.1192C132.012 16.2372 132.012 16.2372 132.852 16.2164C133.693 16.1957 133.776 16.0573 133.776 15.2548V2.28649C133.776 1.42516 133.575 1.22453 132.693 1.18302H131.832V0.28019L135.841 0V8.18084L136.242 7.72078C137.28 6.42015 138.989 5.86323 140.594 6.29908C142.116 6.64153 143.157 8.0494 143.04 9.60601C143.04 11.2698 143.04 12.9129 143.04 14.5768V14.857C143.04 16.1611 143.04 16.1784 144.323 16.2406H144.783V17.2023H139.19C139.197 17.1677 139.197 17.1365 139.19 17.1019C139.19 16.2199 139.19 16.2199 139.992 16.1991C140.795 16.1784 140.954 16.04 140.954 15.196V10.0246C141.103 8.79311 140.224 7.67581 138.992 7.52707C138.48 7.4648 137.962 7.58241 137.526 7.85914C136.498 8.37455 135.865 9.43651 135.903 10.5849C135.903 12.19 135.903 13.8123 135.903 15.4173C135.903 16.04 136.083 16.1576 136.706 16.1991H136.848C137.643 16.2372 137.643 16.2372 137.505 17.2196Z" fill="white"/>
<path d="M149.912 6.1746V8.1809C150.213 7.81077 150.542 7.4614 150.895 7.1397C152.078 6.0051 153.832 5.7007 155.326 6.37869C156.672 6.92523 157.491 8.30197 157.332 9.74788C157.332 11.5708 157.332 13.3765 157.332 15.1995C157.332 15.9605 157.474 16.1023 158.235 16.1231C159.138 16.1231 159.159 16.1231 158.975 17.1262H153.403C153.396 17.0328 153.396 16.9394 153.403 16.846C153.403 16.1438 153.403 16.1438 154.063 16.1231H154.485C154.814 16.1611 155.112 15.9224 155.15 15.5904C155.157 15.5419 155.153 15.49 155.146 15.4416C155.146 14.1583 155.146 12.8749 155.146 11.5916V10.0281C155.288 8.87272 154.472 7.82461 153.316 7.67932C152.995 7.63781 152.666 7.67586 152.358 7.7831C151.351 7.99756 150.566 8.78279 150.352 9.78939C150.224 10.2252 150.158 10.6784 150.151 11.1315C150.151 12.5947 150.151 14.0787 150.151 15.5419C150.151 16.0816 150.331 16.2234 150.853 16.2822H151.054C151.957 16.2822 151.957 16.2822 151.857 17.2853H146.142C146.132 17.2473 146.132 17.2058 146.142 17.1643C146.142 16.3029 146.142 16.3029 146.945 16.2822C147.747 16.2614 147.885 16.1611 147.885 15.3205C147.885 13.0168 147.885 10.7095 147.885 8.42304C147.885 7.68278 147.685 7.4614 146.945 7.44064C146.623 7.44064 146.305 7.44064 145.941 7.44064V6.45825L149.912 6.1746Z" fill="white"/>
<path d="M143.638 74.354C143.631 74.2606 143.631 74.1672 143.638 74.0738C143.638 73.2712 143.638 73.4131 144.299 73.3716L147.246 73.1709H147.626V75.1772L147.986 74.7345C149.013 73.3819 150.757 72.787 152.397 73.2297C153.842 73.465 154.901 74.7137 154.901 76.1769C154.901 78.0206 154.901 79.8471 154.901 81.6908V82.5729C154.901 82.9741 155.143 83.154 155.541 83.1747H156.624V84.1986H151.11V83.2578H152.092C152.632 83.2578 152.815 83.0779 152.815 82.5348C152.815 80.5285 152.815 78.5257 152.815 76.5194C152.815 74.9766 151.373 74.2156 149.709 74.7345C148.837 75.0043 148.176 75.7238 147.986 76.6197C147.848 77.1386 147.768 77.6678 147.744 78.204C147.744 79.5876 147.744 80.9505 147.744 82.3342C147.744 83.0156 147.865 83.1367 148.567 83.1747H149.47V84.1986H143.835V83.2751H144.838C145.419 83.2751 145.579 83.0952 145.579 82.5348V75.198C145.579 74.6376 145.399 74.4162 144.838 74.3574C144.281 74.2952 144.039 74.354 143.638 74.354Z" fill="white"/>
<path d="M110.219 74.3333C110.219 74.1915 110.219 74.1119 110.219 74.0323C110.219 73.4097 110.219 73.4097 110.859 73.3716L113.965 73.1503H114.086V75.1566L114.366 74.8349C115.345 73.4962 117.006 72.8389 118.635 73.1503C120.219 73.3751 121.378 74.7588 121.323 76.3569C121.323 78.3632 121.323 80.2069 121.323 82.1302C121.323 82.9915 121.323 83.071 122.284 83.1333H123.066V84.1953H117.673V83.2717H118.714C119.154 83.2717 119.396 83.071 119.396 82.6317C119.396 80.6254 119.396 78.6226 119.396 76.6163C119.42 75.5855 118.607 74.7311 117.576 74.7069C117.514 74.7069 117.452 74.7069 117.39 74.7103C115.878 74.5858 114.553 75.7135 114.429 77.2251C114.418 77.3358 114.418 77.4465 114.422 77.5572C114.321 79.2625 114.422 80.9644 114.422 82.6698C114.422 83.071 114.643 83.2509 115.044 83.2717H116.127V84.1953H110.433V83.2544H111.395C111.997 83.2544 112.135 83.0953 112.156 82.4726V75.3952C112.156 74.5547 111.955 74.354 111.094 74.3333H110.219Z" fill="white"/>
<path d="M185.072 15.8566C183.948 17.0604 182.346 17.7072 180.703 17.6207C179.44 17.6796 178.285 16.9047 177.856 15.7148C177.438 14.4487 177.922 13.0582 179.039 12.3283C180.312 11.5396 181.73 11.0069 183.207 10.7648L184.65 10.4846C184.771 10.4846 184.951 10.3047 184.951 10.2251C184.947 9.55406 184.899 8.88644 184.809 8.21883C184.729 7.75185 184.383 7.3748 183.927 7.25719C182.972 6.92858 181.934 6.92858 180.98 7.25719C180.357 7.47858 180.298 7.6965 180.637 8.26034C180.962 8.72386 180.962 9.33959 180.637 9.80311C180.239 10.2078 179.641 10.3358 179.115 10.1248C178.583 9.96569 178.23 9.4572 178.275 8.90028C178.261 8.10814 178.634 7.36097 179.278 6.89398C180.52 6.09493 182.011 5.7836 183.467 6.01191C183.982 6.0465 184.494 6.13298 184.989 6.27134C186.168 6.53423 187.006 7.58927 186.995 8.79651C186.995 10.4396 186.995 12.1034 186.995 13.7673V14.6494C186.995 15.8324 187.438 16.1126 188.517 15.6906C188.659 15.6906 188.96 15.6906 189.019 15.6906C189.098 15.8704 189.098 16.0745 189.019 16.2509C188.752 16.5934 188.427 16.8874 188.057 17.1123C186.857 17.9009 185.736 17.4201 185.072 15.8566ZM185.072 11.4462C183.792 11.5327 182.54 11.8682 181.384 12.4286C181.039 12.6154 180.727 12.861 180.461 13.1516C179.748 13.999 179.856 15.2616 180.703 15.9777C180.814 16.0711 180.935 16.1541 181.063 16.2198C182.55 16.7041 184.152 15.9223 184.691 14.4556C184.895 13.4629 185.023 12.4563 185.072 11.4462Z" fill="white"/>
<path d="M109.959 44.706C109.832 42.8692 110.575 41.0808 111.966 39.8736C114.193 38.0886 117.449 38.4449 119.237 40.6761C119.749 41.3126 120.102 42.0632 120.264 42.8622C120.645 44.3946 120.503 46.0101 119.863 47.4525C118.614 50.0226 115.518 51.0915 112.952 49.8428C111.499 49.1371 110.461 47.7915 110.143 46.2072C110.132 46.0274 110.132 45.8475 110.143 45.6676C109.959 45.3079 109.959 44.9446 109.959 44.706ZM118.158 44.5641C118.037 43.561 117.864 42.5648 117.635 41.5755C117.248 40.2368 115.843 39.4654 114.505 39.8528C113.675 40.0949 113.024 40.7418 112.782 41.5755C112.194 43.5368 112.194 45.6296 112.782 47.5909C113.152 48.9365 114.543 49.7286 115.888 49.3585C116.746 49.1233 117.421 48.4522 117.656 47.5909C117.85 46.5912 117.992 45.5811 118.078 44.5641H118.158Z" fill="white"/>
<path d="M179.401 78.9857H171.805C171.476 80.5631 172.185 82.1716 173.569 82.9949C175.275 83.7559 176.918 82.9949 178.54 80.7706L179.322 81.21C178.287 83.8839 175.281 85.2156 172.608 84.1813C172.082 83.9773 171.594 83.6936 171.162 83.3339C170.058 82.2892 169.415 80.8467 169.377 79.3247C169.186 77.7266 169.608 76.1147 170.56 74.814C171.781 73.2159 173.87 72.5518 175.793 73.1502C177.585 73.5445 178.931 75.0216 179.163 76.8376C179.301 77.5606 179.322 78.1832 179.401 78.9857ZM171.763 77.9826H176.233C176.734 77.9826 176.935 77.7612 176.893 77.2216C176.862 76.6439 176.762 76.0697 176.592 75.5162C176.361 74.6514 175.582 74.0461 174.686 74.0323C173.714 73.8697 172.753 74.3678 172.32 75.2568C171.947 76.1147 171.757 77.0452 171.763 77.9826Z" fill="white"/>
<path d="M168.098 79.0065H160.44C160.104 80.5942 160.834 82.2131 162.246 83.0156C163.951 83.7559 165.632 83.0156 167.178 80.7499L167.981 81.21C167.279 83.0364 165.597 84.3024 163.65 84.4788C160.91 84.8005 158.43 82.8427 158.108 80.103C158.091 79.9508 158.081 79.7986 158.077 79.6464C157.932 78.3942 158.105 77.1247 158.579 75.959C159.502 73.8178 161.81 72.6244 164.093 73.1121C166.224 73.4442 167.839 75.2118 167.981 77.3634C167.957 77.8823 167.957 78.4046 168.098 79.0065ZM160.519 77.9826H164.909C165.31 77.9826 165.67 77.8235 165.611 77.36C165.584 76.637 165.449 75.921 165.21 75.236C164.625 74.0945 163.221 73.6414 162.08 74.2294C161.723 74.4128 161.422 74.6826 161.201 75.0181C160.665 75.914 160.391 76.9414 160.419 77.9861H160.519V77.9826Z" fill="white"/>
<path d="M142.238 44.7437H134.68C134.168 46.5528 135.22 48.4381 137.029 48.9535C137.192 48.9984 137.358 49.033 137.527 49.0538C138.672 49.1541 139.793 48.6906 140.533 47.8119C140.855 47.4314 141.114 47.0094 141.436 46.5701L142.176 47.0094C141.419 49.1022 139.385 50.4513 137.164 50.3371C134.736 50.3198 132.691 48.5141 132.373 46.1066C131.965 44.3597 132.266 42.5195 133.214 40.994C134.369 39.2437 136.521 38.4342 138.548 38.9877C140.474 39.4166 141.913 41.0321 142.117 42.9968C142.197 43.5226 142.197 44.1038 142.238 44.7437ZM134.68 43.7233H138.99C139.613 43.7233 139.793 43.5641 139.751 42.983C139.741 42.4261 139.661 41.8761 139.509 41.3399C139.267 40.4232 138.451 39.7798 137.503 39.7556C136.521 39.6415 135.583 40.188 135.199 41.0978C134.815 41.9176 134.635 42.817 134.68 43.7233Z" fill="white"/>
<path d="M120.101 12.0275H112.605C112.228 13.6464 112.965 15.3172 114.411 16.137C116.175 16.86 117.918 16.137 119.323 13.8713L120.105 14.3106C119.396 16.1993 117.645 17.493 115.635 17.6175C112.889 17.8527 110.471 15.8188 110.232 13.0722C110.229 13.0238 110.225 12.9753 110.222 12.9269C110.001 11.5709 110.177 10.1769 110.723 8.91779C111.408 7.20552 113.048 6.064 114.892 6.01212C116.652 5.78727 118.382 6.62092 119.302 8.13602C119.991 9.31213 120.271 10.6785 120.101 12.0275ZM112.584 11.0071H117.216C117.375 10.848 117.659 10.6646 117.659 10.5055C117.669 9.831 117.59 9.15647 117.417 8.49923C117.144 7.54797 116.262 6.90457 115.272 6.9357C114.304 6.89073 113.411 7.46149 113.048 8.35741C112.695 9.19452 112.536 10.1008 112.584 11.0071Z" fill="white"/>
<path d="M197.686 73.9355C198.066 73.555 198.309 72.9116 199.07 73.2333V77.0037C198.589 77.1456 198.329 77.0038 198.146 76.5022C197.772 75.3503 196.835 74.4717 195.659 74.1776C194.988 74.0047 194.272 74.0808 193.653 74.399C192.995 74.7138 192.715 75.5059 193.033 76.1632C193.165 76.433 193.383 76.6544 193.653 76.7824C194.244 77.0937 194.87 77.3358 195.517 77.5053C196.34 77.7475 197.181 77.8858 197.963 78.166C199.194 78.4704 200.035 79.605 199.969 80.8711C200.163 82.3481 199.339 83.7698 197.963 84.3406C196.482 84.9978 194.766 84.8387 193.431 83.9186L193.051 83.6591C192.611 84.0016 192.511 84.9425 191.567 84.5827V79.9717H192.148C192.369 80.5113 192.549 81.0751 192.809 81.5767C193.483 83.0641 195.095 83.8943 196.697 83.583C197.651 83.4585 198.381 82.6767 198.44 81.7185C198.502 81.1132 198.125 80.5459 197.537 80.3764C196.856 80.155 196.154 80.0167 195.531 79.816C194.756 79.6154 193.995 79.3733 193.244 79.0931C191.895 78.5292 191.176 77.0556 191.56 75.6443C191.736 74.3022 192.802 73.2541 194.147 73.0984C195.396 72.922 196.655 73.2229 197.686 73.9355Z" fill="white"/>
<path d="M175.872 13.8121L176.654 14.1926C176.242 16.109 174.599 17.5099 172.645 17.6206C169.884 17.8247 167.484 15.7493 167.28 12.9889C167.266 12.7813 167.262 12.5738 167.273 12.3662C167.103 10.5433 167.75 8.73759 169.037 7.4335C170.687 5.95991 173.067 5.63476 175.052 6.61023C176.09 7.08413 176.65 8.22564 176.394 9.33602C176.218 10.014 175.592 10.481 174.89 10.4602C174.253 10.4983 173.679 10.0763 173.527 9.45709C173.433 8.99011 173.586 8.50583 173.928 8.17376C174.35 7.73445 174.288 7.47155 173.748 7.23287C172.51 6.65174 171.036 7.13602 170.379 8.33634C170.088 8.97282 169.891 9.64735 169.798 10.3426C169.563 11.5672 169.618 12.8297 169.957 14.0301C170.203 15.2996 171.309 16.2197 172.603 16.2335C173.814 16.3719 174.98 15.7181 175.492 14.6112L175.872 13.8121Z" fill="white"/>
<path d="M130.124 13.8123L130.885 14.2135C130.477 16.1299 128.83 17.5274 126.876 17.6208C124.143 17.8767 121.718 15.867 121.466 13.1308C121.452 12.9786 121.445 12.8229 121.445 12.6673C121.265 11.0138 121.718 9.35343 122.707 8.01475C124.219 6.12952 126.81 5.4965 129.024 6.47198C130.079 6.8421 130.746 7.8833 130.646 8.99714C130.584 9.84809 129.847 10.488 128.996 10.4258C128.802 10.4119 128.616 10.3635 128.439 10.2805C127.796 9.98645 127.509 9.22544 127.803 8.58205C127.855 8.47135 127.92 8.36758 127.996 8.27764C128.557 7.55468 128.418 7.19493 127.495 7.03581C126.132 6.64147 124.71 7.4267 124.316 8.78959C124.306 8.82764 124.295 8.86569 124.285 8.90029C123.794 10.5468 123.794 12.3041 124.285 13.9506C124.555 15.1924 125.641 16.0884 126.91 16.116C128.1 16.2544 129.249 15.6283 129.778 14.5525C129.844 14.3726 130.003 14.0336 130.124 13.8123Z" fill="white"/>
<path d="M189.827 17.2196V16.2164H190.889C191.511 16.2164 191.691 15.995 191.691 15.4139V2.10661C191.691 1.48397 191.532 1.30409 190.91 1.22453C190.723 1.20378 190.536 1.20378 190.349 1.22453H189.727C189.706 1.00315 189.706 0.781763 189.727 0.563838C189.727 0.463523 189.886 0.304403 189.969 0.304403L193.836 0V14.9746C193.836 15.1545 193.836 15.3343 193.836 15.4969C193.777 15.8221 193.995 16.1368 194.32 16.1956C194.386 16.206 194.452 16.2095 194.517 16.1991H195.6V17.223H189.827V17.2196Z" fill="white"/>
<path d="M187.62 74.174C186.88 74.1775 186.202 74.5857 185.856 75.236C185.057 76.419 184.631 77.8165 184.631 79.2451C184.631 80.269 184.631 81.2514 184.631 82.3307C184.631 82.9118 184.79 83.0536 185.371 83.0917H186.793V84.1951H180.639V83.5552C180.639 83.3131 180.639 83.2128 180.961 83.2128H181.722C182.345 83.2128 182.483 83.0329 182.483 82.4102V75.9347C182.483 74.3712 182.483 74.3505 180.878 74.3297H180.418C180.418 74.1706 180.418 74.0288 180.418 73.8904V73.4096L184.427 73.1294V76.1769L184.628 75.7341C184.943 74.9005 185.475 74.1671 186.171 73.6102C187.063 72.9703 188.263 72.9703 189.159 73.6102C189.799 74.0599 190.079 74.8659 189.861 75.6165C189.782 76.1215 189.384 76.5193 188.879 76.5989C188.336 76.7649 187.748 76.5816 187.395 76.1388C187.091 75.7237 187.053 75.1703 187.295 74.7171C187.378 74.52 187.485 74.3366 187.62 74.174Z" fill="white"/>
<path d="M128.001 48.9157V49.9396H121.986V48.9572H123.089C123.67 48.9572 123.83 48.7565 123.83 48.1962C123.83 45.7921 123.83 43.3845 123.83 40.9597C123.83 40.3993 123.65 40.1987 123.068 40.1571C122.487 40.1156 122.228 40.1571 121.785 40.1571V39.1955L125.794 38.9153V41.8625C125.915 41.6031 126.016 41.3402 126.137 41.1015C126.58 39.915 127.617 39.0537 128.863 38.8358C129.949 38.6144 131.007 39.3097 131.229 40.3958C131.277 40.6276 131.284 40.8663 131.246 41.1015C131.173 41.6653 130.758 42.1219 130.205 42.243C129.675 42.3883 129.108 42.2084 128.762 41.7829C128.451 41.3021 128.451 40.6829 128.762 40.1987L128.904 39.9565C128.402 39.9358 127.915 40.1433 127.583 40.5169C126.694 41.3436 126.133 42.4575 125.998 43.6647C125.839 45.1694 125.839 46.6914 125.798 48.1962C125.798 48.7185 125.998 48.8984 126.521 48.9191C127.04 48.9364 127.437 48.9157 128.001 48.9157Z" fill="white"/>
<path d="M160.073 6.45475L164.082 6.17456V15.2167C164.082 16.0781 164.203 16.1991 165.064 16.2199H165.867V17.1815H160.052C160.045 17.1158 160.045 17.0466 160.052 16.9809C160.052 16.2199 160.052 16.2199 160.775 16.1784C161.937 16.1784 161.979 16.0781 161.979 14.9158V8.57866C161.979 7.55475 161.799 7.37488 160.775 7.35412H160.073V6.45475Z" fill="white"/>
<path d="M136.66 84.1986C136.66 83.275 136.66 83.275 137.442 83.2162H137.823C138.345 83.2162 138.525 83.0156 138.525 82.4933V75.1564C138.58 74.7829 138.324 74.4369 137.951 74.3816C137.916 74.3747 137.878 74.3747 137.843 74.3747C137.442 74.3747 137.02 74.3747 136.602 74.3747V73.4718L140.611 73.1917V82.1923C140.611 83.0156 140.611 83.1159 141.514 83.1539H142.375V84.1951H136.66V84.1986Z" fill="white"/>
<path d="M163.084 0.401367C163.849 0.411745 164.464 1.02055 164.489 1.78502C164.489 2.55986 163.859 3.18943 163.084 3.18943C162.309 3.18943 161.68 2.55986 161.68 1.78502C161.669 1.03093 162.268 0.411745 163.022 0.401367C163.043 0.401367 163.063 0.401367 163.084 0.401367Z" fill="white"/>
<path d="M138.164 68.7606C138.154 67.9961 138.763 67.37 139.527 67.3562C139.534 67.3562 139.541 67.3562 139.548 67.3562C140.326 67.3562 140.959 67.9823 140.97 68.7606C140.949 69.5355 140.302 70.1443 139.527 70.1235C138.787 70.1339 138.175 69.5424 138.164 68.8021C138.164 68.7883 138.164 68.7744 138.164 68.7606Z" fill="white"/>
<path d="M46.2901 74.7173C41.5338 74.707 37.6803 70.8535 37.6699 66.0972V0.401367H0V13.6913H24.3765V71.829C24.3972 80.7708 31.6545 88.0073 40.5929 88.0073H49.4725V74.7173H46.2901Z" fill="#F47B55"/>
<path d="M24.375 13.6914V71.829C24.3716 73.4202 24.6068 75.001 25.0772 76.5196L37.6685 13.6914H24.375Z" fill="url(#paint0_linear_3126_3219)"/>
<path d="M0.0195312 0.401367V13.6913L37.6687 0.401367H0.0195312Z" fill="url(#paint1_linear_3126_3219)"/>
<path d="M37.6681 66.1559V57.0549C37.6681 57.0549 35.5234 67.799 37.1872 72.1713C38.8511 76.5402 43.8841 77.3427 49.4775 77.3427V74.7173H46.2917C41.5527 74.7034 37.7096 70.888 37.6681 66.1559Z" fill="url(#paint2_linear_3126_3219)"/>
<path d="M24.375 13.6914H37.6684V14.653L24.375 17.742V13.6914Z" fill="#C35030"/>
<path d="M78.3062 66.3945V71.7873C78.3062 79.6119 72.7128 86.3191 65.0162 87.7235C64.058 87.9069 63.086 88.0037 62.1105 88.0037H52.207V74.693H56.396C61.0347 74.7068 64.8432 71.0298 64.9954 66.3945H78.3062Z" fill="#F47B55"/>
<path d="M78.303 66.3945V71.7873C78.303 79.6119 72.7096 86.3191 65.013 87.7235C64.0549 87.9069 63.0828 88.0037 62.1074 88.0037H53.207V86.6201H59.8416C60.824 86.6235 61.803 86.5371 62.7681 86.3606C70.4612 84.9493 76.0511 78.2455 76.058 70.4244V66.4153L78.303 66.3945Z" fill="url(#paint3_linear_3126_3219)"/>
<path d="M67.3615 66.3945V68.7191C67.3615 73.4788 63.5011 77.3392 58.7413 77.3392H52.207V74.693H56.396C61.0347 74.7068 64.8432 71.0298 64.9954 66.3945H67.3615Z" fill="url(#paint4_linear_3126_3219)"/>
<path d="M78.3054 16.6383V23.4528H65.1745V22.3286C65.2091 17.5999 61.4041 13.743 56.6755 13.7084H46.6509C44.3367 13.7049 42.1264 14.6562 40.5352 16.3339V0.421875H62.2862C71.145 0.432252 78.3158 7.62033 78.3054 16.4792C78.3054 16.531 78.3054 16.5864 78.3054 16.6383Z" fill="#F47B55"/>
<path d="M67.8623 22.332V23.4562H65.1745V22.332C65.2091 17.6034 61.4041 13.7464 56.6755 13.7118H46.6509C44.3367 13.7084 42.1264 14.6596 40.5352 16.3373V13.2691C41.2996 12.4562 42.2405 11.8266 43.2817 11.4254C44.3713 11.0864 45.5094 10.9169 46.6509 10.9238H56.6755C62.9019 11.0137 67.8934 16.1056 67.8623 22.332Z" fill="url(#paint5_linear_3126_3219)"/>
<path d="M78.3069 16.6383V23.4528H75.5396V16.6383C75.5845 9.27379 69.6556 3.26182 62.2876 3.20648H40.5781V0.421875H62.2876C71.1465 0.432252 78.3172 7.62033 78.3069 16.4792C78.3069 16.531 78.3069 16.5864 78.3069 16.6383Z" fill="url(#paint6_linear_3126_3219)"/>
<path d="M78.3069 39.8354H40.5781V50.0399H78.3069V39.8354Z" fill="#F47B55"/>
<path d="M78.3069 43.3013H40.5781V46.4871H78.3069V43.3013Z" fill="url(#paint7_linear_3126_3219)"/>
</g>
<defs>
<linearGradient id="paint0_linear_3126_3219" x1="31.0217" y1="13.6914" x2="31.0217" y2="76.5196" gradientUnits="userSpaceOnUse">
<stop stop-color="#F26747" stop-opacity="0"/>
<stop offset="1" stop-color="#F26447"/>
</linearGradient>
<linearGradient id="paint1_linear_3126_3219" x1="-9.18328" y1="8.69795" x2="29.247" y2="1.80176" gradientUnits="userSpaceOnUse">
<stop stop-color="white" stop-opacity="0.28"/>
<stop offset="0.43" stop-color="white" stop-opacity="0.27"/>
<stop offset="0.61" stop-color="white" stop-opacity="0.24"/>
<stop offset="0.75" stop-color="white" stop-opacity="0.19"/>
<stop offset="0.87" stop-color="white" stop-opacity="0.12"/>
<stop offset="0.97" stop-color="white" stop-opacity="0.03"/>
<stop offset="1" stop-color="white" stop-opacity="0"/>
</linearGradient>
<linearGradient id="paint2_linear_3126_3219" x1="64.2887" y1="82.8863" x2="32.1131" y2="61.917" gradientUnits="userSpaceOnUse">
<stop stop-color="#F69169" stop-opacity="0"/>
<stop offset="0.984375" stop-color="#F9AC82"/>
</linearGradient>
<linearGradient id="paint3_linear_3126_3219" x1="53.2069" y1="77.2071" x2="78.3028" y2="77.2071" gradientUnits="userSpaceOnUse">
<stop stop-color="#F6946C" stop-opacity="0"/>
<stop offset="1" stop-color="#F89D75"/>
</linearGradient>
<linearGradient id="paint4_linear_3126_3219" x1="56.5647" y1="77.6555" x2="65.1048" y2="65.4868" gradientUnits="userSpaceOnUse">
<stop stop-color="#EF4137"/>
<stop offset="0.12" stop-color="#F15F56" stop-opacity="0.84"/>
<stop offset="0.36" stop-color="#F69791" stop-opacity="0.55"/>
<stop offset="0.58" stop-color="#FAC4C1" stop-opacity="0.31"/>
<stop offset="0.76" stop-color="#FDE4E2" stop-opacity="0.14"/>
<stop offset="0.91" stop-color="#FEF8F7" stop-opacity="0.04"/>
<stop offset="1" stop-color="white" stop-opacity="0"/>
</linearGradient>
<linearGradient id="paint5_linear_3126_3219" x1="43.4437" y1="7.96284" x2="68.7633" y2="28.2505" gradientUnits="userSpaceOnUse">
<stop stop-color="#FDDE99"/>
<stop offset="1" stop-color="#F69164" stop-opacity="0"/>
</linearGradient>
<linearGradient id="paint6_linear_3126_3219" x1="40.5779" y1="11.9458" x2="78.3066" y2="11.9458" gradientUnits="userSpaceOnUse">
<stop stop-color="#E62919"/>
<stop offset="1" stop-color="#F37551" stop-opacity="0"/>
</linearGradient>
<linearGradient id="paint7_linear_3126_3219" x1="40.5779" y1="44.8954" x2="78.3066" y2="44.8954" gradientUnits="userSpaceOnUse">
<stop stop-color="#EF4036"/>
<stop offset="1" stop-color="#F26B4B" stop-opacity="0"/>
</linearGradient>
<clipPath id="clip0_3126_3219">
<rect width="200" height="88.9446" fill="white"/>
</clipPath>
</defs>
</svg>
