<svg width="36" height="20" viewBox="0 0 36 20" fill="none" xmlns="http://www.w3.org/2000/svg">
<path d="M10.0258 0C15.5111 0 19.9574 4.4774 19.9574 10.0002C19.9574 15.5229 15.5107 20 10.0258 20C4.54078 20 0.09375 15.5229 0.09375 10.0002C0.09375 4.4774 4.54044 0 10.0258 0ZM25.8865 0.585784C28.6291 0.585784 30.8525 4.80032 30.8525 10.0002H30.8528C30.8528 15.1987 28.6295 19.4146 25.8868 19.4146C23.1441 19.4146 20.9208 15.1987 20.9208 10.0002C20.9208 4.80167 23.1438 0.585784 25.8865 0.585784ZM33.5627 1.56636C34.5271 1.56636 35.3093 5.34224 35.3093 10.0002C35.3093 14.6567 34.5275 18.434 33.5627 18.434C32.598 18.434 31.8165 14.6578 31.8165 10.0002C31.8165 5.34258 32.5983 1.56636 33.5627 1.56636Z" fill="white"/>
</svg>
