<svg width="56" height="56" viewBox="0 0 56 56" fill="none" xmlns="http://www.w3.org/2000/svg">
<g clip-path="url(#clip0_2778_2786)">
<path d="M12.9735 9.76697C14.0106 9.76697 14.8521 8.92631 14.8521 7.88922V1.87797C14.852 0.840766 14.0104 0 12.9735 0C11.9363 0 11.0947 0.840766 11.0947 1.87786V7.88911C11.0947 8.9262 11.9363 9.76697 12.9735 9.76697Z" fill="white"/>
<path d="M27.9988 9.76697C29.036 9.76697 29.8776 8.92631 29.8776 7.88922V1.87797C29.8776 0.840766 29.036 0 27.9988 0C26.9616 0 26.1211 0.840766 26.1211 1.87786V7.88911C26.1211 8.9262 26.9617 9.76697 27.9988 9.76697Z" fill="white"/>
<path d="M43.0253 9.76697C44.0633 9.76697 44.9039 8.92631 44.9039 7.88922V1.87797C44.9041 0.840766 44.0634 0 43.0253 0C41.9882 0 41.1475 0.840766 41.1475 1.87786V7.88911C41.1476 8.9262 41.9882 9.76697 43.0253 9.76697Z" fill="white"/>
<path d="M20.9064 44.3048C24.4175 44.3048 27.0347 41.9453 27.0347 38.3778C27.0347 35.8162 25.5962 34.1188 24.4462 33.6298V33.5724C25.8847 32.6231 26.6317 31.155 26.6317 29.515C26.6317 26.3494 24.5321 24.1057 20.8777 24.1057C17.7122 24.1057 15.5535 25.9186 15.1218 28.2779C15.0932 28.45 15.1792 28.5942 15.3529 28.6229L17.7982 29.1987C17.9719 29.2274 18.0866 29.17 18.144 28.9972C18.4897 27.7888 19.3245 26.9827 20.763 26.9827C22.4022 26.9827 23.3803 28.0764 23.3803 29.6304C23.3803 31.3565 22.2589 32.4788 20.532 32.4788H19.7545C19.5826 32.4788 19.4677 32.5934 19.4677 32.7664V35.0396C19.4677 35.2124 19.5825 35.3272 19.7545 35.3272H20.5893C22.5168 35.3272 23.7834 36.5363 23.7834 38.5212C23.7834 40.1907 22.7192 41.4278 20.9064 41.4278C19.2942 41.4278 18.3447 40.5069 17.9416 39.356C17.8843 39.1832 17.7408 39.1259 17.5975 39.1545L15.0932 39.7305C14.9212 39.7878 14.8352 39.9311 14.8638 40.104C15.4676 42.7802 17.8557 44.3048 20.9064 44.3048Z" fill="white"/>
<path d="M32.9637 30.3782L35.9553 28.2778H36.0126V43.7008C36.0126 43.8737 36.129 43.9885 36.301 43.9885H38.9487C39.1207 43.9885 39.2355 43.8738 39.2355 43.7008V24.7093C39.2355 24.5373 39.1208 24.4218 38.9487 24.4218H36.5017C36.2723 24.4218 36.129 24.4791 35.984 24.5946L32.8489 26.8678C32.7039 26.9824 32.6465 27.098 32.6465 27.2701V30.2053C32.6466 30.4356 32.79 30.4929 32.9637 30.3782Z" fill="white"/>
<path d="M46.4065 4.91077V7.88905C46.4065 9.75258 44.8904 11.2694 43.0252 11.2694C41.1616 11.2694 39.6448 9.75247 39.6448 7.88905V4.91077H31.3806V7.88905C31.3806 9.75258 29.8637 11.2694 27.9994 11.2694C26.1358 11.2694 24.619 9.75247 24.619 7.88905V4.91077H16.3547V7.88905C16.3547 9.75258 14.8377 11.2694 12.9735 11.2694C11.11 11.2694 9.5922 9.75247 9.5922 7.88905V4.91077H1.9541V55.9999H54.0458V4.91077H46.4065ZM49.313 51.2678H6.68632V15.6533H49.313V51.2678Z" fill="white"/>
</g>
<defs>
<clipPath id="clip0_2778_2786">
<rect width="56" height="56" fill="white"/>
</clipPath>
</defs>
</svg>
