<svg width="21" height="20" viewBox="0 0 21 20" fill="none" xmlns="http://www.w3.org/2000/svg">
<g clip-path="url(#clip0_1784_8616)">
<path d="M0.552734 10.0002C0.552734 14.095 3.01508 17.6128 6.53859 19.1595C6.51047 18.4612 6.53359 17.6229 6.71266 16.8631C6.90492 16.0513 7.99938 11.4141 7.99938 11.4141C7.99938 11.4141 7.67992 10.7755 7.67992 9.83188C7.67992 8.34992 8.53883 7.24313 9.60852 7.24313C10.5181 7.24313 10.9576 7.92633 10.9576 8.74445C10.9576 9.65883 10.3744 11.0266 10.0745 12.2934C9.82391 13.3541 10.6063 14.2194 11.6528 14.2194C13.5475 14.2194 14.8236 11.7859 14.8236 8.90258C14.8236 6.71086 13.3474 5.07039 10.6625 5.07039C7.62906 5.07039 5.7393 7.33258 5.7393 9.85945C5.7393 10.7307 5.99617 11.3451 6.39852 11.8209C6.58352 12.0394 6.60922 12.1273 6.54227 12.3782C6.4943 12.5622 6.38414 13.0052 6.33852 13.1807C6.27195 13.434 6.06672 13.5245 5.83781 13.431C4.44063 12.8606 3.78992 11.3305 3.78992 9.61055C3.78992 6.76984 6.1857 3.36359 10.937 3.36359C14.7549 3.36359 17.2678 6.12641 17.2678 9.09211C17.2678 13.015 15.0869 15.9457 11.872 15.9457C10.7924 15.9457 9.77687 15.3621 9.42898 14.6992C9.42898 14.6992 8.84844 17.0033 8.72547 17.4482C8.51344 18.2192 8.09844 18.9898 7.71898 19.5905C8.63911 19.8625 9.59362 20.0006 10.5531 20.0005C16.0753 20.0005 20.5528 15.5233 20.5528 10.0002C20.5528 4.47727 16.0753 0 10.5531 0C5.03039 0 0.552734 4.47727 0.552734 10.0002Z" fill="white"/>
</g>
<defs>
<clipPath id="clip0_1784_8616">
<rect width="20" height="20" fill="white" transform="translate(0.552734)"/>
</clipPath>
</defs>
</svg>
