<svg width="52" height="48" viewBox="0 0 52 48" fill="none" xmlns="http://www.w3.org/2000/svg">
<path d="M21.333 10.4666C21.333 6.03329 18.533 2.06663 14.333 0.666626V9.29996H7.33301V0.666626C3.13301 2.06663 0.333008 6.03329 0.333008 10.4666C0.333008 14.9 3.13301 18.8666 7.33301 20.2666V45.9333C7.33301 46.8666 7.79967 47.3333 8.49967 47.3333H13.1663C13.8663 47.3333 14.333 46.8666 14.333 46.1666V20.5C18.533 19.1 21.333 15.1333 21.333 10.4666ZM35.333 14.6666C26.233 14.9 18.9997 22.1333 18.9997 31C18.9997 40.1 26.233 47.3333 35.333 47.3333C44.433 47.3333 51.6663 40.1 51.6663 31C51.6663 21.9 44.433 14.6666 35.333 14.6666ZM35.333 42.6666C28.7997 42.6666 23.6663 37.5333 23.6663 31C23.6663 24.4666 28.7997 19.3333 35.333 19.3333C41.8663 19.3333 46.9997 24.4666 46.9997 31C46.9997 37.5333 41.8663 42.6666 35.333 42.6666ZM32.9997 21.6666V33.3333L41.3997 38.4666L43.2663 35.6666L36.4997 31.7V21.6666H32.9997Z" fill="white"/>
</svg>
