<svg width="25" height="20" viewBox="0 0 25 20" fill="none" xmlns="http://www.w3.org/2000/svg">
<path d="M7.49767 15.4843C5.4426 15.4468 3.69439 14.148 3.00101 12.3317C3.23542 12.3644 3.47445 12.3815 3.71861 12.3815C4.19447 12.3815 4.65549 12.3177 5.09331 12.1992L5.08323 11.8949C2.90049 11.4571 1.24159 9.57527 1.15152 7.29311C1.7972 7.60915 2.51871 7.79751 3.27984 7.8218L3.82769 7.83929L3.37156 7.53533C2.05484 6.65789 1.18923 5.1601 1.18923 3.46306C1.18923 2.64578 1.38954 1.87628 1.74393 1.20015C4.26603 4.1885 7.9738 6.14692 12.1453 6.35593L12.3527 6.36633L12.3054 6.16408C12.2215 5.80578 12.1783 5.43258 12.1783 5.04921C12.1783 2.34733 14.3744 0.1564 17.0838 0.1564C18.4952 0.1564 19.7703 0.750875 20.665 1.70182L20.7242 1.76479L20.8091 1.74811C21.8354 1.54632 22.8067 1.19379 23.6996 0.714121C23.2934 1.68333 22.5828 2.49345 21.6875 3.02803L21.7861 3.31762C22.6391 3.21653 23.4595 3.01301 24.2354 2.71765C23.6229 3.53468 22.8871 4.25799 22.0586 4.85325L21.9899 4.90261L21.9936 4.98713C22.003 5.20152 22.0075 5.41754 22.0075 5.63421C22.0075 12.2389 16.9683 19.8436 7.76028 19.8436C5.16999 19.8436 2.74419 19.1503 0.651128 17.9441C0.835499 17.9538 1.02107 17.9588 1.20765 17.9588C3.61596 17.9588 5.832 17.139 7.59113 15.7639L7.93851 15.4924L7.49767 15.4843Z" fill="white" fill-opacity="0.9" stroke="url(#paint0_linear_1784_8593)" stroke-width="0.3128"/>
<defs>
<linearGradient id="paint0_linear_1784_8593" x1="12.3377" y1="0" x2="12.3377" y2="20" gradientUnits="userSpaceOnUse">
<stop stop-color="white"/>
<stop offset="1" stop-color="white" stop-opacity="0"/>
</linearGradient>
</defs>
</svg>
