<?xml version="1.0" encoding="UTF-8"?>
<svg xmlns="http://www.w3.org/2000/svg" xmlns:xlink="http://www.w3.org/1999/xlink" width="40pt" height="40pt" viewBox="0 0 40 40" version="1.1">
<g id="surface1">
<path style=" stroke:none;fill-rule:nonzero;fill:rgb(64.313725%,77.647059%,22.352941%);fill-opacity:1;" d="M 6.320312 13.601562 C 5.039062 13.601562 4.078125 14.640625 4.078125 15.839844 L 4.078125 25.359375 C 4.078125 26.640625 5.121094 27.601562 6.320312 27.601562 C 7.519531 27.601562 8.558594 26.558594 8.558594 25.359375 L 8.558594 15.921875 C 8.640625 14.640625 7.601562 13.601562 6.320312 13.601562 Z M 32.960938 13.601562 C 31.679688 13.601562 30.71875 14.640625 30.71875 15.839844 L 30.71875 25.359375 C 30.71875 26.640625 31.761719 27.601562 32.960938 27.601562 C 34.160156 27.601562 35.199219 26.558594 35.199219 25.359375 L 35.199219 15.921875 C 35.199219 14.640625 34.160156 13.601562 32.960938 13.601562 Z M 32.960938 13.601562 "/>
<path style=" stroke:none;fill-rule:nonzero;fill:rgb(64.313725%,77.647059%,22.352941%);fill-opacity:1;" d="M 15.839844 24.480469 C 14.558594 24.480469 13.601562 25.519531 13.601562 26.71875 L 13.601562 36.238281 C 13.601562 37.519531 14.640625 38.480469 15.839844 38.480469 C 17.121094 38.480469 18.078125 37.441406 18.078125 36.238281 L 18.078125 26.71875 C 18.078125 25.519531 17.121094 24.480469 15.839844 24.480469 Z M 23.441406 24.480469 C 22.160156 24.480469 21.199219 25.519531 21.199219 26.71875 L 21.199219 36.238281 C 21.199219 37.519531 22.238281 38.480469 23.441406 38.480469 C 24.640625 38.480469 25.679688 37.441406 25.679688 36.238281 L 25.679688 26.71875 C 25.679688 25.519531 24.71875 24.480469 23.441406 24.480469 Z M 23.441406 24.480469 "/>
<path style=" stroke:none;fill-rule:nonzero;fill:rgb(64.313725%,77.647059%,22.352941%);fill-opacity:1;" d="M 13.28125 1.679688 C 13.199219 1.679688 13.199219 1.679688 13.121094 1.761719 C 12.960938 1.839844 12.878906 2 12.960938 2.160156 L 14.558594 5.039062 C 11.441406 6.640625 9.359375 9.679688 9.359375 13.199219 L 29.679688 13.199219 C 29.679688 9.679688 27.601562 6.640625 24.480469 5.039062 L 26.078125 2.160156 C 26.160156 2 26.078125 1.839844 25.921875 1.761719 C 25.839844 1.761719 25.839844 1.679688 25.761719 1.679688 C 25.679688 1.679688 25.519531 1.761719 25.441406 1.839844 L 24 4.800781 C 22.640625 4.238281 21.199219 3.839844 19.601562 3.839844 C 18 3.839844 16.558594 4.160156 15.199219 4.800781 L 13.601562 1.839844 C 13.519531 1.761719 13.441406 1.679688 13.28125 1.679688 Z M 9.441406 14 L 9.441406 28.800781 C 9.441406 30.160156 10.558594 31.28125 11.921875 31.28125 L 27.359375 31.28125 C 28.71875 31.28125 29.839844 30.160156 29.839844 28.800781 L 29.839844 14 Z M 9.441406 14 "/>
<path style=" stroke:none;fill-rule:nonzero;fill:rgb(100%,100%,100%);fill-opacity:1;" d="M 14.960938 7.839844 C 14.480469 7.839844 14.078125 8.238281 14.078125 8.71875 C 14.078125 9.199219 14.480469 9.601562 14.960938 9.601562 C 15.441406 9.601562 15.839844 9.199219 15.839844 8.71875 C 15.761719 8.160156 15.441406 7.839844 14.960938 7.839844 Z M 24.320312 7.839844 C 23.839844 7.839844 23.441406 8.238281 23.441406 8.71875 C 23.441406 9.199219 23.839844 9.601562 24.320312 9.601562 C 24.800781 9.601562 25.199219 9.199219 25.199219 8.71875 C 25.199219 8.160156 24.800781 7.839844 24.320312 7.839844 Z M 24.320312 7.839844 "/>
</g>
</svg>
