<svg width="56" height="56" viewBox="0 0 56 56" fill="none" xmlns="http://www.w3.org/2000/svg">
<path d="M42.9725 29.756C42.996 27.6127 43.5629 25.5103 44.6202 23.6457C45.6774 21.7811 47.1905 20.2153 49.0178 19.0947C47.8559 17.4411 46.3266 16.0793 44.5498 15.1162C42.7731 14.1532 40.7973 13.615 38.7776 13.544C34.4169 13.1011 30.2681 16.1115 28.0538 16.1115C25.8395 16.1115 22.4297 13.6092 18.8161 13.6663C16.4415 13.733 14.1249 14.416 12.0939 15.6482C10.0628 16.8805 8.38708 18.6196 7.23107 20.695C2.29165 29.2643 5.96497 41.9606 10.7794 48.9105C13.1323 52.3122 15.9416 56.1349 19.6176 55.9963C23.1633 55.8551 24.5082 53.7005 28.7928 53.7005C33.0774 53.7005 34.2865 55.9963 38.0304 55.9257C41.8341 55.8551 44.2631 52.4589 46.5997 49.0464C48.2727 46.5893 49.5822 43.9035 50.4876 41.0721C48.2676 40.1248 46.3731 38.5487 45.0378 36.5379C43.7025 34.5272 42.9846 32.1697 42.9725 29.756ZM35.9085 8.9442C38.0218 6.46411 39.0688 3.24897 38.821 0C35.6309 0.309041 32.6798 1.82641 30.5724 4.24116C29.5211 5.41224 28.716 6.78273 28.2049 8.27117C27.6938 9.75962 27.4872 11.3356 27.5973 12.9055C29.1962 12.9306 30.7793 12.5862 32.2233 11.8991C33.6672 11.212 34.933 10.2007 35.9221 8.9442H35.9085Z" fill="white"/>
</svg>
