<?xml version="1.0" encoding="utf-8"?>
<!-- Generator: Adobe Illustrator 22.0.1, SVG Export Plug-In . SVG Version: 6.00 Build 0)  -->
<svg version="1.1" id="Laag_1" xmlns="http://www.w3.org/2000/svg" xmlns:xlink="http://www.w3.org/1999/xlink" x="0px" y="0px"
	 viewBox="0 0 50 50" style="enable-background:new 0 0 50 50;" xml:space="preserve">
<style type="text/css">
	.st0{clip-path:url(#SVGID_2_);}
	.st1{fill:#3670AA;}
	.st2{fill:#72B2DE;}
	.st3{fill:#417FBA;}
	.st4{fill:#286698;}
	.st5{fill:#73AEE0;}
	.st6{fill:#518BC4;}
	.st7{fill:#9BD6F9;}
	.st8{fill:#6CA8DB;}
	.st9{fill:#75B2DC;}
	.st10{fill:#72B1E0;}
	.st11{fill:#4380BA;}
	.st12{fill:#6CA6E1;}
	.st13{fill:#6CA6D4;}
	.st14{fill:#6FAEDC;}
	.st15{fill:#548CBD;}
	.st16{fill:#4B8DCC;}
	.st17{fill:#B8E8FC;}
	.st18{fill:#9BD6F4;}
	.st19{fill:#74AFD8;}
	.st20{fill:#75B0D9;}
	.st21{fill:#71B0DE;}
	.st22{fill:#70ACE7;}
	.st23{fill:#8FCFF8;}
	.st24{fill:#75B0D6;}
	.st25{fill:#6FB1E5;}
	.st26{fill:#99CFF1;}
	.st27{fill:#AEECFA;}
	.st28{fill:#74AFD9;}
	.st29{fill:#6CB0E4;}
	.st30{fill:#6BB1E5;}
	.st31{fill:#1A5495;}
</style>
<title>Sitecore-icon</title>
<g>
	<defs>
		<path id="SVGID_1_" d="M9.9,33.2c0,0-0.6-14.4,2.3-17.2l2.3-7.3l1.1-2.6l4-2.4l2.7-1l2.6-1.5l1.8,0.2l3.1,0.9l3.9,1.5l2.1,0.9
			L37,6.1l1,1.5l0.3,2.3l0.6,2.7l1.4,1.8l0.6,1.3l0.2,2.4l0.1,4.1l0.3,7.6l-0.7,6.3v2.2l0.1,3.5l0,1.3l-0.4,1.1L39.8,45l-1.9,1
			l-3.2,1.4l-3.3,1.2l-2.1,0.9h-1.7l-1.9-0.6l-1.5-0.5l-2.8-1.3l-4-2.6l-2.3-1.5L13,40.8l-1.7-2.8l-0.9-1.8L9.9,33.2z"/>
	</defs>
	<clipPath id="SVGID_2_">
		<use xlink:href="#SVGID_1_"  style="overflow:visible;"/>
	</clipPath>
	<g class="st0">
		<path class="st1" d="M35.3,47.3c-0.6,0.3-1.2,0.6-1.7,0.9c-0.1,0.2-0.3,0.2-0.4,0.1c-1-0.7-1.5-1.7-2.1-2.7c0-0.3,0.1-0.6,0.1-0.9
			c0.2-0.6,0.4-1.1,0.5-1.7c0-0.2,0-0.4,0.1-0.6c0-0.1,0-0.2,0.1-0.3c0.1-0.4,0.3-0.8,0.6-1.2c0.3-0.4,0.3-0.8,0.5-1.2
			c0.6-1.5,1.1-3,1.6-4.5c0.1-0.4,0.3-0.8,0.6-1.1c0.8-0.5,0.9,0.2,1,0.6c0.7,2.1,1.6,4.1,2.3,6.2c0.1,0.4,0.3,0.7,0.4,1
			c0.3,1,0.7,1.9,1,2.9c-0.1,0.3-0.3,0.4-0.6,0.4c-0.9-0.1-1.4,0.8-2.3,0.7c-0.6-0.4-1,0-1.3,0.4c-0.1,0.1-0.3,0.1-0.4,0
			c-0.3-0.5-0.8-1-1.3-1.3c-0.1-0.1,0,0-0.1-0.1c0,0,0,0,0,0c0.2,0.9-0.8,0.5-1,1c0.1,0.1,0.3,0.1,0.5,0.2c0.5,0.4,0.9,0.3,1.4,0
			c0.2,0,0.3,0,0.4,0.2C35.5,46.8,35.5,47.1,35.3,47.3z"/>
		<path class="st1" d="M35.3,47.3c0-0.3,0-0.5,0-0.8l0,0c0.1,0,0.3,0,0.4,0c0.2-0.2,0.5-0.3,0.8-0.1c0.1,0.1,0.1,0.2,0.1,0.3
			c0,0,0,0.1,0,0.1C36.2,46.9,35.7,47.1,35.3,47.3z"/>
		<path class="st2" d="M32,42.4c0,0.2,0,0.4,0,0.6c-0.7,0.4-0.3,1.2-0.6,1.7c0,0.3-0.1,0.6-0.3,0.8c-0.1,0.2-0.3,0.2-0.5,0.1
			c-0.2-0.1-0.1-0.7-0.5-0.3c-0.4,0.5-0.9,0.5-1.5,0.4c-1.4-0.1-2.8,0.5-4.2,0c-0.4-0.2-0.7-0.5-0.9-0.9c-1.5-2.3-3.1-4.6-4.6-6.9
			c-0.2-0.3-0.4-0.5-0.3-0.9c0.9-1.4,1.7-2.9,3.1-4c1-0.1,1.4-0.7,1.7-1.6c0.3-0.9,0.7-1.9,1.9-2.3c0.4-0.1,0.6-0.4,0.7-0.6
			c0.7-1.3,1.7-2.4,1.8-4c0.8-1.6,1.7-3.1,3.2-4.2c0.6,0.2,0.7,0.7,0.8,1.2c1,3.2,2.3,6.3,3.2,9.5c0.2,0.7,0.7,1.3,0.9,2.1
			c0.1,0.5-0.2,0.8-0.4,1.1c-0.8,1.9-1.3,3.8-2.2,5.6c-0.3,0.4-0.3,0.9-0.4,1.3C32.5,41.6,32.3,42,32,42.4c-0.1-0.1,0-0.2-0.2-0.3
			C32,42.2,32,42.3,32,42.4z"/>
		<path class="st3" d="M35.3,34.3c0.1-0.4,0.1-0.7,0.2-1.1c0-0.6,0.1-1.1,0.3-1.7c0.8-2.5,1.5-5.1,2.3-7.6c0.1-0.3,0-1.2,0.9-0.8
			c0.3,1.4,0.1,2.8,0.1,4.2c0,1.1,0,2.3,0,3.4c0.1,1.2-0.3,2.5,0.3,3.6c0.1,1.3,0.2,2.5-0.2,3.8c-0.2,0.7,0,1.5-0.1,2.2
			c-0.1,0.4,0,1-0.8,0.8c-0.9-2.1-1.7-4.2-2.4-6.3C35.8,34.8,36,34.1,35.3,34.3z"/>
		<path class="st4" d="M30.5,45.6c0.2,0,0.4,0,0.6,0c0.8,0.8,1.3,1.8,2,2.6c0,0,0,0,0,0c-0.5,0.3-1.3,0-1.7,0.6
			c-0.5,0.2-0.9,0.4-1.4,0.6c-0.5,0-1,0.2-1.4,0.5c-0.4-0.1-0.9-0.1-1.3-0.2c-0.1,0.1-0.2,0.1-0.2,0.1c-0.1-0.1,0-0.6-0.4-0.3
			c-0.3,0-0.5-0.1-0.7-0.2c-0.3-0.3-0.7-0.3-1.1-0.4c-0.3-0.1-0.6-0.3-0.7-0.7c0.1-0.9,0.8-1.2,1.5-1.6
			C27.1,46.1,28.8,45.9,30.5,45.6z"/>
		<path class="st3" d="M38.3,41.3c0.3,0,0.5-0.2,0.4-0.5c-0.2-2.2,0.7-4.3,0.4-6.4c-0.4-1.1-0.1-2.3-0.2-3.5c0-1.2,0-2.3,0-3.5
			c0-1.9,0-3.8-0.1-5.7c-0.1-0.6,0-1.1,0.2-1.7c0.2-0.3,0.4-0.7,0.6-1.1c0.1-0.2,0.3-0.4,0.6-0.2c0.4,0.6,0.7,1.1,0.4,1.9
			c-0.2,0.4-0.2,0.8-0.2,1.3c0,1.7,0,3.4,0,5.1c0,0.7,0,1.4-0.3,2.1c-0.2,0.5-0.1,1,0,1.5c0.4,1.2,0.3,2.5,0.1,3.7
			c-0.3,0.4-0.3,0.9-0.3,1.5c0,1.5,0,3,0,4.5c0,0.9-0.3,1.5-1.2,1.8C38.5,41.9,38.4,41.6,38.3,41.3z"/>
		<path class="st3" d="M38.8,42.2c1.1-0.9,0.9-2.2,0.9-3.4c0-1.2,0-2.4,0-3.6c0-0.3-0.1-0.8,0.4-0.9c0,0,0.1,0.1,0.1,0.1
			c0.4,1.1,0.1,2.2,0.2,3.3c0.1,1.5,0.1,2.9,0,4.4c-0.1,0.3-0.2,0.5-0.3,0.8c-0.3,0.6,0,0.8,0.5,0.8c0.1,0.1,0.1,0.2,0.1,0.3
			c0,0.3-0.2,0.5-0.4,0.6c-0.2,0-0.3,0.1-0.5,0.2C39.2,44.1,38.8,43.2,38.8,42.2z"/>
		<path class="st1" d="M35.3,46.5c-0.1,0-0.3,0-0.4,0c-0.2,0-0.3-0.1-0.5-0.1c-0.2,0-0.4,0-0.7,0.1c0,0-0.1,0-0.1,0
			c-0.4-0.2-1,0.4-1.1-0.1c-0.1-0.5,0.5-0.8,1.1-0.7c0.3,0,0.5-0.1,0.5-0.4C34.9,45.2,35.3,45.6,35.3,46.5
			C35.3,46.5,35.3,46.5,35.3,46.5z"/>
		<path class="st5" d="M31.4,44.8c0-0.7,0-1.5,0-2.2c0.4,0,0.4,0.3,0.6,0.4C31.9,43.6,31.7,44.2,31.4,44.8z"/>
		<path class="st1" d="M36.6,46.5c-0.3,0-0.6,0-0.9,0c0-0.3-0.1-0.8,0.4-0.8c0.4-0.1,0.8-0.2,0.9,0.4c0,0,0,0.1,0,0.1
			C36.9,46.3,36.7,46.4,36.6,46.5z"/>
		<path class="st1" d="M38.3,45.9c-0.3,0.1-0.6,0.3-0.9,0.4c-0.3,0.1-0.4,0.1-0.4-0.2c0,0,0,0,0,0c0.8-0.1,1.2-1.1,2.2-0.9
			C39,45.6,38.6,45.6,38.3,45.9z"/>
		<path class="st1" d="M34.4,46.1c0.3,0,0.4,0.2,0.4,0.4c-0.4,0.7-0.9,0.7-1.3,0l0,0C33.8,46.2,34.2,46.4,34.4,46.1z"/>
		<path class="st1" d="M34.1,45.2c-0.5,0-0.9-0.1-1.2-0.1c0-0.1,0-0.2,0-0.3C33.3,44.7,33.7,44.6,34.1,45.2z"/>
		<path class="st5" d="M32.7,41.2c0-0.5,0-0.9,0.4-1.3C33.1,40.4,33,40.9,32.7,41.2z"/>
		<path class="st6" d="M25.5,46.9c-0.5,0.4-1,0.8-1.4,1.3c-0.7,0.6-1.1-0.3-1.7-0.2c-0.1,0-0.2-0.1-0.3-0.1
			c-0.3-0.2-0.5-0.4-0.8-0.6c-0.2-0.2-0.5-0.4-0.7-0.6c-0.1-0.1-0.2-0.2-0.3-0.2c-0.3-0.2-0.7-0.1-0.9-0.3c-0.9-0.6-2-0.8-2.6-1.8
			c0-0.4,0.2-0.8,0.1-1.2c0-0.6-0.5-0.9-0.7-1.4c-0.5-0.6-1,0-1.6,0.1c-0.3,0-0.6,0-0.9-0.2c-0.3-0.3,0-0.8-0.4-1
			c-0.4,0.1-0.5,0.4-0.7,0.7c-0.1,0.1-0.3,0.1-0.4,0.1c-0.1,0-0.2-0.1-0.2-0.2c-0.3-0.4-0.5-0.9-0.7-1.3c-0.1-0.3-0.3-0.5-0.4-0.8
			c-0.1-0.4-0.3-0.8-0.1-1.2c1.2-0.9,2.2-2.2,3.8-2.6c0.2,0,0.3,0.1,0.4,0.2c0.6,0.9,1.4,1.2,2.5,1.1c0.4,0.1,0.8,0.2,1,0.6
			c1.7,2.5,3.4,5,5.1,7.6c0.2,0.3,0.4,0.7,0.8,0.9C24.8,46,25.2,46.4,25.5,46.9z"/>
		<path class="st1" d="M37,46.1c0.1,0.2,0.3,0.2,0.4,0.2c-0.2,0.2-0.5,0.4-0.9,0.4c0-0.1,0-0.1,0-0.2C36.6,46.2,36.7,46.1,37,46.1z"
			/>
		<path class="st4" d="M31.4,48.9c0.2-1.2,1.2-0.4,1.7-0.6C32.6,48.6,32,48.7,31.4,48.9z"/>
		<path class="st3" d="M41.3,33.7c0,0.1,0,0.3,0,0.4c0,0.3,0,0.7,0,1c-0.1,0-0.1,0.1-0.2,0.1c-0.5-0.4-0.3-0.9-0.3-1.4
			c0-0.5,0-0.9-0.2-1.4c-0.1-4-0.1-7.9,0-11.9c0.3-0.5-0.1-1.4,0.6-1.8c0.3,0.1,0.3,0.4,0.4,0.7c0,0.3,0,0.6,0,1c0,0.8,0,1.6,0,2.5
			c0,0.3,0,0.5,0,0.8c0,0.5,0.1,1,0,1.5c0.1,1.1,0,2.2,0,3.3c0.1,0.2,0,0.5,0,0.7c0,0.4,0,0.8,0,1.2c0,0.1,0,0.2,0,0.3
			c0,0.2,0,0.5,0,0.7c0,0.3,0,0.6,0,0.9C41.7,32.9,41.7,33.3,41.3,33.7z"/>
		<path class="st7" d="M18.6,37.2c-0.4-0.1-0.7-0.3-1.1-0.4c-1-0.1-1.9-0.5-2.6-1.2c-0.1-0.1-0.2-0.1-0.2-0.2
			c-0.7-0.4-0.5-1-0.5-1.6c0-8,0-16,0-24.1c0-0.3,0-0.5,0-0.8c0-0.1,0-0.2,0-0.4c0.1-0.4,0.3-0.7,0.5-1.1c0.1-0.1,0.1-0.2,0.2-0.2
			c0.3-0.2,0.6-0.3,0.9-0.1c0.5,0.7,0.9,0.3,1.2-0.2c0.1-0.1,0.3-0.1,0.4-0.1c1.1,0.2,2.1-0.2,3.2-0.2c0.5,0,1-0.1,1.5,0.1
			c-0.2-0.5,0-0.8,0.1-1.2c1.2-0.7,2.3-1,3.6-0.2c0.8,0.5,1.8,0.8,2.6,1.4c0.3,0.5,0.1,1.2,0.3,1.7c0.7,3.5,1.3,7,2,10.5
			c0.1,0.5,0.3,1.1-0.1,1.6c-0.9,1.4-2.1,2.6-2.8,4.1c-0.5,1.1-1.3,2-1.9,3c-0.4,0.6-0.8,1.2-1.2,1.7C24,30,23.4,31,22.8,31.9
			c-0.3,0.5-0.6,1.1-1.2,1.3c-0.8,1-1.5,2-2.3,3.1C19.1,36.7,18.9,37,18.6,37.2z"/>
		<path class="st8" d="M30.8,20.4c-0.5-2.6-1-5.3-1.5-7.9c-0.3-1.4-0.6-2.8-0.7-4.2c0-0.3-0.4-0.8,0.2-1c1.4,0.6,2.5,1.6,3.6,2.6
			c2.7,2.3,5.6,4.3,8.3,6.6c0.1,0.1,0.3,0.2,0.3,0.3c0,0.2-0.2,0.3-0.4,0.4c-0.2,0.1-0.4,0.1-0.6,0.1c-0.6,0.3-0.1,0.7,0,1
			c0,0.3-0.1,0.5-0.1,0.7c-0.6-0.1-0.2,0.3-0.2,0.4c0,0.2,0,0.3-0.1,0.5c-0.4,0.5-0.1,1-0.2,1.5c-0.3,0.5,0,1.1-0.4,1.5
			c-0.9,3-1.9,6.1-2.8,9.1c-0.1,0.4-0.3,0.7-0.4,1.1c-1.2-1.9-1.5-4.2-2.4-6.2C32.2,24.9,31.9,22.5,30.8,20.4z"/>
		<path class="st9" d="M25.7,27.4c0.7-1,1.3-2,2.1-2.9c0,0.8,0,1.5-0.7,2.1c-0.7,0.6-0.4,1.8-1.4,2.4c-0.3,0.2-0.4,0.5-0.8,0.5
			c-0.3,0-0.5,0.1-0.5,0.4c0,0.5-0.2,0.9-0.7,1c-0.1,0-0.3,0.4-0.2,0.7c0.2,1.3-1,1.4-1.8,1.9c0-0.1-0.1-0.2-0.1-0.3
			c0.9-1.4,1.8-2.9,3-4.1C25.1,28.6,25.6,28.1,25.7,27.4z"/>
		<path class="st10" d="M25.5,46.9c-0.7-0.1-0.9-0.7-1.1-1.3c0.8,0,1.6,0.3,2.4-0.1c0.4-0.2,1,0.3,1.6,0.1c0.5-0.2,1.2,0.5,1.5-0.5
			c0.1-0.2,0.5,0.1,0.8,0.2c0.2,0.1-0.1,0.2-0.2,0.4C28.9,46.2,27.2,46.5,25.5,46.9z"/>
		<path class="st5" d="M32,42.4c-0.1-0.1-0.2-0.1-0.2-0.2c-0.1-0.2-0.5-0.1-0.3-0.4c0-0.1,0.2-0.2,0.3-0.2c0.3,0,0.3,0.3,0.3,0.5
			C32,42.2,32,42.3,32,42.4C32,42.4,32,42.4,32,42.4z"/>
		<path class="st3" d="M38.7,23c0-0.5,0.1-1.1,0.4-1.5c0,2,0,3.9,0,5.9c-0.1,0.1-0.3,0.1-0.4,0C38.7,25.9,38.7,24.5,38.7,23z"/>
		<path class="st3" d="M38.8,27.4c0.1,0,0.3,0,0.4,0c0,1.2,0,2.3,0,3.5c-0.1,0.1-0.3,0.1-0.4,0C38.8,29.7,38.8,28.6,38.8,27.4z"/>
		<path class="st3" d="M38.8,30.9c0.1,0,0.3,0,0.4,0c0,1.2,0,2.3,0,3.5c-0.5-0.1-0.4-0.5-0.4-0.8C38.7,32.6,38.8,31.7,38.8,30.9z"/>
		<path class="st4" d="M25.9,49.1c-0.1,0-0.3,0-0.4,0c-0.2-0.1-0.5-0.3-0.7-0.4C25.3,48.7,25.7,48.6,25.9,49.1z"/>
		<path class="st4" d="M26.7,49.5c0-0.1-0.1-0.1-0.1-0.2c0.2-0.1,0.4-0.3,0.7-0.2c-0.1,0.2-0.1,0.3-0.2,0.5
			C26.9,49.6,26.8,49.6,26.7,49.5z"/>
		<path class="st3" d="M40.1,34.3c-0.1-1.3,0.2-2.7-0.4-4c-0.2-0.5-0.2-1.2,0.2-1.7c0.2-0.3,0.1-0.7,0.1-1c0-2,0-4.1,0-6.1
			c0-0.4-0.2-0.8,0.4-1c0,0.1,0.1,0.1,0.1,0.2c0.2,2.2,0,4.3,0.1,6.5c0,1.8,0,3.6,0,5.4c0.1,0.6,0.2,1.2-0.1,1.8
			C40.4,34.5,40.3,34.5,40.1,34.3L40.1,34.3z"/>
		<path class="st11" d="M40.3,17c0.1-0.1,0.3-0.2,0.4-0.2c0.1-0.2,0.2-0.3,0.4-0.3c0.2,0,0.4,0,0.5,0.2c0.2,0.5,0.2,1,0.1,1.5
			c0,0.3,0,0.6-0.3,0.8c-0.4,0.4,0.1,1.1-0.4,1.5c-0.1,0.1-0.3,0.1-0.4,0c0,0,0,0,0,0c0.2-0.7-0.6-1.1-0.4-1.8
			C39.6,18.1,39.9,17.5,40.3,17z"/>
		<path class="st12" d="M40.3,17c-0.1,0.6-0.2,1.1-0.2,1.7c-0.1,0.1-0.2,0.3-0.2,0.4c-0.1,0.1-0.1,0.1-0.2,0c0-0.3,0-0.6,0-0.9
			c-0.3-0.4-0.3-0.9,0-1.3C39.8,17,40.1,17,40.3,17z"/>
		<path class="st13" d="M39.6,19.1c0.1,0,0.1,0,0.2,0c-0.2,0.3-0.1,0.6-0.4,0.9c-0.1-0.3-0.1-0.5-0.2-0.8c0-0.1,0-0.2,0-0.3
			C39.4,19,39.5,19.1,39.6,19.1z"/>
		<path class="st3" d="M40.5,34.3c0-0.6,0-1.2,0-1.7c0.6,0.1,0.4,0.6,0.5,0.9c0,2.7,0,5.4,0,8c0,0.4,0,0.9,0,1.3
			c-0.1,0.3-0.1,0.6-0.4,0.7c-0.4-0.2-0.4-0.6-0.5-0.9c0-1.6,0-3.2,0-4.8c0.4-0.5,0.2-1.1,0.2-1.7C40.3,35.5,40.1,34.9,40.5,34.3z"
			/>
		<path class="st3" d="M40.5,34.3c0,0.9,0,1.8,0,2.6c0,0.3,0.1,0.7-0.4,0.8c0-1.2,0-2.3,0-3.5C40.2,34.3,40.3,34.3,40.5,34.3z"/>
		<path class="st3" d="M40.1,42.6c0.6,0.1,0.4,0.5,0.4,0.9c0.1,0.1,0.1,0.3,0,0.4c-0.3-0.1-0.5,0.7-0.9,0.1
			C39.3,43.5,39.6,43,40.1,42.6z"/>
		<path class="st3" d="M40.5,43.9c0-0.1,0-0.3,0-0.4c0.1-0.1,0.3-0.3,0.4-0.4c0.2,0.2,0.1,0.4,0,0.7c0,0.3-0.1,0.4-0.4,0.5
			C40.5,44.1,40.5,44,40.5,43.9z"/>
		<path class="st1" d="M34.4,46.1c-0.1,0.6-0.5,0.4-0.9,0.4C33.6,45.9,34.1,46.1,34.4,46.1z"/>
		<path class="st14" d="M14.4,9.4c0,8.2,0,16.4,0,24.6c0,0.5-0.1,1,0.2,1.5c-1,0.3-1.6,1-2.4,1.6c-0.4,0.3-0.8,0.7-1.4,0.8
			c-0.1,0.1-0.2,0.1-0.3,0.1c-0.3-0.2-0.5-0.5-0.5-0.8c0.2-1.2-0.3-2.2-0.7-3.2c-0.3-0.6,0-1.3-0.5-1.9C9,31.8,9,31.6,9,31.4
			c0.3-0.6-0.2-1.3,0.3-1.9c0.2-0.2,0.8,0.2,0.6-0.5c-0.2-0.5-0.1-1,0-1.5c0.1-0.6-0.2-1.1-0.7-1.4c-0.2-0.3-0.2-0.6-0.2-0.9
			c0-0.5-0.1-1.1,0.5-1.5c0.2-0.1,0.3-0.1,0.5-0.1c0.1-0.1,0.4,0.4,0.3-0.1c-0.1-0.2-0.2-0.4-0.3-0.6c-0.1-0.3-0.1-0.5-0.1-0.8
			c0-0.2,0.1-0.3,0.1-0.5c0.3-0.4,0.3-0.9,0.5-1.3c0.1-0.2,0.3-0.4,0.4-0.6c0.5-0.3,0.1-1.4,1.1-1.3c0.1,0,0.2,0.1,0.2,0.2
			c0.3,0.4-0.4,1.4,0.8,1.3c0.3,0,0.6,0,0.9,0.1c0.4,0.2,0.3,0.5,0.3,0.9c0,4.3,0,8.5,0,11.6c0.2-6.6-0.3-14.4-0.2-22.2
			c0-0.1,0-0.3-0.1-0.4C13.8,9.7,13.9,9.3,14.4,9.4z"/>
		<path class="st6" d="M16.6,41.7c0,0.6,1.1,0.7,0.6,1.5c-0.1,0.1-0.3,0.2-0.4,0.1c-0.1,0-0.2-0.1-0.3-0.1c-0.4-0.4-1.1-0.2-1.4-0.8
			c-0.1-0.3-0.1-0.6,0.2-0.8C15.8,41.5,16.2,41.4,16.6,41.7z"/>
		<path class="st6" d="M12.3,38.2c0.1-0.3,0.2-0.4,0.5-0.2c0.4,0.4,1,0.8,0.8,1.5c-0.1,0.5-0.5,0.4-0.9,0.4
			C12.5,39.4,12,38.9,12.3,38.2z"/>
		<path class="st15" d="M14.9,35.6c0.9,0.4,1.7,0.8,2.6,1.2C16.3,37.1,15.4,36.7,14.9,35.6z"/>
		<path class="st6" d="M14.2,42.7c-0.2-0.1-0.4-0.3-0.6-0.4c-0.2-0.2-0.2-0.4-0.2-0.6c0-0.1,0.1-0.2,0.2-0.3
			c0.2-0.1,0.3-0.1,0.5,0.1c0.2,0.3,0.6,0.2,0.9,0.2c0,0,0.1,0.1,0.1,0.1C15.3,42.7,15.3,42.7,14.2,42.7z"/>
		<path class="st6" d="M12.3,38.2c0.3,0.5,0.5,1.1,0.4,1.7C11.6,39.3,11.6,39.1,12.3,38.2z"/>
		<path class="st16" d="M22.8,46.5c0.4,0,0.7,0,0.7,0.4c0,0.3-0.2,0.5-0.5,0.4c-0.3,0-0.7-0.1-0.7-0.5
			C22.3,46.5,22.7,46.5,22.8,46.5z"/>
		<path class="st6" d="M13.6,41.5c0,0.1,0,0.1,0,0.2c-0.5,0.3-0.6-0.3-0.9-0.4c0,0,0,0,0,0c0-0.6,0.2-1,0.9-0.9
			C13.9,40.8,13.8,41.1,13.6,41.5z"/>
		<path class="st6" d="M16.8,43.2c0.1,0,0.3,0,0.4,0c0.4,0.5,0.1,0.8-0.2,1.1c-0.2-0.1-0.4-0.1-0.6-0.2c0,0,0-0.1,0-0.1
			C16.3,43.7,16.4,43.4,16.8,43.2z"/>
		<path class="st6" d="M16.6,41.7c-0.4,0-0.9,0-1.3,0c-0.1,0.1-0.3,0.1-0.4,0c0,0,0,0,0,0C15.5,41.3,16,40.9,16.6,41.7z"/>
		<path class="st6" d="M13.6,41.5c0-0.4,0-0.7,0-1.1c0.2-0.2,0.3-0.5,0.4,0c0.1,0.3,0,0.7,0,1.1C13.9,41.5,13.7,41.5,13.6,41.5z"/>
		<path class="st6" d="M19.2,44.8c0.1,0,0.3,0,0.3,0.2c0,0.2-0.2,0.2-0.3,0.2c-0.1,0-0.3,0-0.3-0.2C18.9,44.8,19.1,44.8,19.2,44.8z"
			/>
		<path class="st3" d="M40.9,41.7c0-2.8,0-5.7,0-8.5c-0.1-0.2-0.1-0.4,0-0.6c0.4,0.9,0.1,1.8,0.2,2.7c0,2.2,0,4.3-0.1,6.5
			C41,41.8,41,41.8,40.9,41.7z"/>
		<path class="st3" d="M40.9,41.7c0.1,0,0.1,0,0.2,0c0,0.7,0.2,1.3-0.2,2c0-0.2,0-0.4,0-0.7C40.9,42.6,40.9,42.2,40.9,41.7z"/>
		<path class="st3" d="M40.9,32.6c0,0.2,0,0.4,0,0.6c-0.1-0.2-0.3-0.4-0.4-0.6c0-4.1,0-8.1,0-12.2c0.1,0,0.3,0,0.4,0
			C40.9,24.5,40.9,28.6,40.9,32.6z"/>
		<path class="st17" d="M15.7,7.2c-0.3,0.1-0.6,0.1-0.9,0.2c-0.3-0.2-0.3-0.5-0.2-0.8c0.1-0.3,0.3-0.7,0.5-1
			c0.1-0.1,0.3-0.2,0.4-0.2c0.6,0,1-0.2,1.2-0.8c0.2-0.4,0.6-0.7,1-0.9c0.1-0.1,0.3-0.1,0.4-0.1c0.6,0.1,0.9-0.5,1.4-0.7
			c0.4-0.2,0.9-0.2,1.3-0.5c0.4-0.1,0.7-0.2,1.1,0c0.1,0.1,0.2,0.1,0.2,0.2c0.1,0.1,0,0,0.1,0.1c0,0,0,0-0.1,0
			c-0.1-0.1-0.2-0.2-0.2-0.3c0-0.1,0.1-0.2,0.1-0.2c0.2-0.2,0.5-0.2,0.7-0.5c0.1-0.2,0.2-0.3,0.4-0.4c0.1,0,0.2-0.1,0.3-0.1
			c0.4,0,0.6-0.2,0.9-0.4c0.3-0.1,0.6-0.1,0.9,0c0.4,0.1,0.8,0.3,1.2,0.5C27.4,1.6,28.2,2,29,2.4c0.6,0.5,1.7,0.3,1.7,1.5
			c-0.6,1.1-1.1,2.2-2.3,2.7c-0.9,0.3-1.5-0.4-2.1-0.8c-1.4-0.9-2.6-0.8-4-0.1c-1.5,0.9-3.1,1-4.8,1.3c-0.1,0-0.3,0-0.4,0
			C16.7,7.4,16.3,7.6,15.7,7.2z"/>
		<path class="st18" d="M17.5,7c1.5-0.6,3.1-1,4.8-1.3c0.1,0.4,0.4,0.9,0.3,1.2c-0.2,0.6-0.6,0-0.9,0c-1,0-2.1,0-3.1,0.2
			C18.2,7.2,17.8,7.3,17.5,7z"/>
		<path class="st19" d="M28.4,6.6c0.7-0.9,1.4-1.8,2.1-2.6c0.1-0.1,0.3-0.4,0.5-0.2c0.2,0.8-0.2,1.3-0.7,1.8
			c-0.5,0.6-1.1,1.2-1.6,1.9c-0.4,0.2,0,0.6-0.2,0.9C28.2,7.8,28.4,7.2,28.4,6.6z"/>
		<path class="st18" d="M21,9.9c1-0.3,1.3-0.8,1.3-1.6c0-0.4,0-0.8,0.5-0.8c0.5,0,0.3,0.5,0.3,0.8C23.1,9.5,22.5,10.1,21,9.9z"/>
		<path class="st7" d="M15.7,7.2C16.2,7.1,16.6,7.1,17,7c0,0.4,0.1,0.9-0.6,0.9C16,7.9,15.7,7.7,15.7,7.2z"/>
		<path class="st20" d="M25.7,27.4c0.1,0.1,0.2,0.2,0.4,0.4c-0.6,0.3-0.6,1.3-1.5,1.4C24.9,28.5,25.3,28,25.7,27.4z"/>
		<path class="st14" d="M14,8.7c0.1,0,0.3,0,0.4,0c0,0.2,0,0.5,0,0.7C14.2,9.5,14,9.7,14,10c-0.1,0.1-0.2,0.1-0.3,0
			c-0.2-0.3-0.1-0.7,0-1c0-0.1,0.1-0.2,0.2-0.2C13.9,8.8,14,8.8,14,8.7z"/>
		<path class="st21" d="M28.8,7.4c-0.1-1,0.8-1.4,1.3-2c0.4-0.5,0.8-1.1,0.9-1.7c0.1-0.5,0.5-0.3,0.8-0.2c1.4,0.2,2.7,0.5,4,1.1
			c0.2,0,0.3,0,0.5,0.1c0.1,0.1,0.2,0.3,0.2,0.4c-0.1,0.4,0.2,0.8-0.2,1.1c-0.8,0.4-1.1-0.5-2-0.6c1.1,0.4,1.6,1,1.5,2.2
			c0.4-0.4,0.4-1.1,1-0.9c0.3,0.2,0.3,0.5,0.3,0.8c0.1,0.7,0.3,0.1,0.5,0c0.2-0.1,0.4-0.2,0.6-0.1c0.1,0,0.2,0.1,0.3,0.2
			c0.1,0.2,0.1,0.3,0,0.5c0.1,0.4,0.3,0.9,0.4,1.3c0,0.3,0,0.6,0,0.9c-0.4,0.4-0.1,0.9-0.2,1.3c0-0.1,0-0.3,0.2-0.4
			c0.6,0.4,0.8,0.9,0.9,1.6c0,0.3,0.1,0.6,0.4,0.6c0.3,0.2,0.3,0.6,0.3,0.9c0,0.5,0.2,0.9,0.7,1.1c0.2,0.2,0.4,0.4,0.5,0.6
			c0,0.2,0,0.3-0.2,0.4c-0.1,0-0.3,0-0.4,0c-0.3-0.1-0.5,0-0.7,0.2c-1.9-1.8-4.1-3.2-6-4.8c-1.6-1.3-3.1-2.8-4.9-3.8
			C29.1,8,29.2,7.5,28.8,7.4z"/>
		<path class="st13" d="M39.6,17c0,0.4,0,0.9,0,1.3C39,17.8,39,17.4,39.6,17z"/>
		<path class="st22" d="M40.3,16.8c0-0.3,0.1-0.5,0.4-0.6c0.2,0,0.2,0.2,0.3,0.4c-0.1,0.1-0.2,0.1-0.2,0.2
			C40.6,16.8,40.4,16.8,40.3,16.8z"/>
		<path class="st14" d="M13.9,10c0.1,0,0.2,0,0.2,0c0,0,0,0,0,0c0.3,1.5,0.1,2.6-0.5,4.7c0.3-0.2,0-0.6,0.3-0.7c0.1,0,0.2,0,0.2,0
			c0.2,1.7,0.1,3.4,0,5.1c0,0.1-0.1,0.2-0.2,0.2c-0.6-0.1-0.6-0.6-0.6-0.9c0-0.5-0.3-0.3-0.5-0.4c-0.3-0.1-0.2,0.1-0.3,0.2
			c-0.1,0.3,0,0.6-0.5,0.5c-0.1,0-0.1,0-0.2,0c-0.7-0.5-0.3-1.2-0.3-1.8c0.2-1.1,1.1-2.1,0.9-3.4c0-0.7,0.3-1.4,0.5-2.1
			c0.2-0.4,0.3-0.8,0.5-1.3c0-0.1,0.1-0.2,0.2-0.2C13.7,9.9,13.8,10,13.9,10z"/>
		<path class="st14" d="M13.6,19.1c0.4-0.1,0.4-0.4,0.4-0.7c0-1.4,0-2.8,0-4.2c-0.4,0.2,0,0.7-0.7,1c0.8-1.8,0.7-3.5,0.7-5.1
			c0.3,0.3,0.2,0.6,0.2,0.9c0,7.7,0,15.3,0,23c0,0.2,0.1,0.5-0.2,0.7c0-4.3,0-8.7,0-13c0-0.4,0.3-1-0.4-1.2
			C13.2,20,13.2,19.6,13.6,19.1z"/>
		<path class="st14" d="M9.2,29.6c-0.1,0.6,0.5,1.2,0,1.8c-0.5,0.2-0.6-0.1-0.7-0.5c-0.1-1,0-2.1,0-3.1c0-0.5,0-1,0-1.4
			c0-0.2,0-0.5,0-0.7c0-0.1,0.1-0.2,0.1-0.3c0.1-0.1,0.2-0.1,0.3-0.2c0.1,0,0.2,0,0.3,0.1c0,0.3,0,0.6,0,0.9
			c0.4,0.4,0.4,0.9,0.3,1.3C9.6,28.2,9.8,28.9,9.2,29.6z"/>
		<path class="st14" d="M13.6,19.1c0,0.4,0,0.9,0,1.3c-0.3,0-0.6,0-0.9,0c-0.7-0.9-0.3-1.7,0-2.6c0.5,0,0.3-0.6,0.7-0.8
			C13.7,17.8,13.5,18.5,13.6,19.1z"/>
		<path class="st14" d="M12.7,17.8c0,0.9,0,1.7,0,2.6c-1.6-0.1-0.6-1.1-0.7-1.7c0.5-0.4,0-1.1,0.4-1.6
			C12.8,17.3,12.7,17.6,12.7,17.8z"/>
		<path class="st14" d="M9.2,29.6c0-0.7,0-1.4,0-2.2c0.3-0.2,0.6-0.2,0.9,0c0,0.8,0,1.6,0,2.4C9.8,29.7,9.5,29.6,9.2,29.6z"/>
		<path class="st14" d="M11.8,17c0,0.6-0.3,1.2,0,1.7c-0.3,0.1-0.5,0.3-0.4,0.7c0,0.3-0.1,0.6-0.4,0.6c-0.4-0.3-0.3-0.8-0.3-1.2
			c0-0.3,0.1-0.6,0.2-0.8c0.1-0.4,0.2-0.7,0.3-1.1c0.1-0.1,0.2-0.2,0.3-0.3C11.7,16.7,11.7,16.9,11.8,17z"/>
		<path class="st14" d="M10.4,37.1c0-0.1-0.1-0.1-0.1-0.2c-0.1-0.4-0.5-0.7-0.7-1c0-0.1-0.1-0.2-0.1-0.3c-0.1-0.5-0.3-1.1,0-1.6
			c0,0,0.1-0.1,0.1-0.1C10.4,34.9,10.8,35.9,10.4,37.1z"/>
		<path class="st14" d="M10.1,27.4c-0.3,0-0.6,0-0.9,0c0-0.4,0-0.9,0-1.3C10.4,26,10.1,26.8,10.1,27.4z"/>
		<path class="st14" d="M9.7,22.2c0.1,0,0.3,0,0.4,0c0,0.3,0,0.6,0,0.9c0.2,0.3,0.2,0.6,0,0.9c-0.2,0-0.3,0-0.5,0c0-0.4,0-0.9,0-1.3
			C9.5,22.5,9.6,22.3,9.7,22.2z"/>
		<path class="st14" d="M10.3,32.7c-0.3-0.8-0.3-1.2,0-2C10.6,31.5,10.6,32,10.3,32.7z"/>
		<path class="st14" d="M9.2,32.6c0-0.2,0-0.4,0-0.6c0.8,0.5,0.3,1.3,0.4,1.9c0,0,0,0,0,0c-0.4,0-0.4-0.3-0.6-0.6c0-0.1,0-0.2,0-0.3
			C9,32.9,9.1,32.7,9.2,32.6z"/>
		<path class="st14" d="M11,18.7c0,0.4,0,0.9,0,1.3c0,0.3-0.2,0.4-0.4,0.4c0,0-0.1-0.1-0.1-0.1c-0.2-0.3-0.2-0.6-0.1-0.9
			c0-0.2,0.1-0.4,0.3-0.6C10.7,18.7,10.8,18.6,11,18.7z"/>
		<path class="st14" d="M10.1,23.9c0-0.3,0-0.6,0-0.9c0.6,0.1,0.5,0.7,0.4,1C10.4,24.3,10.2,24,10.1,23.9z"/>
		<path class="st6" d="M14.9,41.7c0.1,0,0.3,0,0.4,0c0,0.3,0,0.6,0,0.9c0.4,0.4,1,0.4,1.5,0.6c0,0,0,0,0,0c-0.1,0.3-0.3,0.6-0.4,0.8
			c-0.8-0.3-1.5-0.9-2.2-1.4C14.4,42.3,15.4,42.5,14.9,41.7z"/>
		<path class="st6" d="M12.7,41.3c0.4-0.1,0.5,0.4,0.9,0.4c0,0.2,0,0.4,0,0.6C13.1,42.2,12.8,41.8,12.7,41.3z"/>
		<path class="st6" d="M16.8,43.2c-0.7,0.2-1.2,0.1-1.5-0.6C15.9,42.6,16.6,42.4,16.8,43.2z"/>
		<path class="st23" d="M35.7,4.8c-1.6-0.4-3.1-1-4.8-1.1c-0.2,0.1-0.3,0.1-0.5,0.2c0.1-0.5-0.3-0.7-0.6-0.8
			c-0.4-0.1-0.7-0.3-1.1-0.5C28.6,1.9,29.1,2,29.5,2c0.4,0.2,0.9,0.5,1.4,0.4c0.2,0,0.3,0,0.5,0.1c0.3,0.2,0.6,0.3,1,0.3
			c0.3,0,0.5,0.1,0.7,0.3l0,0c0.4,0.3,0.9,0.6,1.5,0.6c0.3,0,0.5,0.1,0.7,0.3c0.1,0.1,0.3,0.3,0.4,0.4C35.8,4.5,35.8,4.7,35.7,4.8z"
			/>
		<path class="st24" d="M40.3,13.5c0.1,0,0.1,0,0.2,0c0.1,0.1,0.2,0.3,0.3,0.4c-0.1,0.6,0.7,1.1,0.2,1.7c-0.7,0-0.8-0.5-0.9-1
			c-0.1-0.4,0-0.8,0-1.2C40.1,13.5,40.2,13.5,40.3,13.5z"/>
		<path class="st25" d="M38.8,11.3c0,0.4,0,0.8-0.4,1.2c0-0.7,0-1.3,0-1.9c0-0.3,0.2-0.3,0.4-0.2C38.8,10.8,38.8,11,38.8,11.3z"/>
		<path class="st26" d="M29.6,2.2c-0.3,0-0.8-0.1-0.9,0.4c-0.7-0.5-1.6-0.7-2.2-1.3c0.2-0.3,0.5-0.2,0.7-0.2c0.2,0,0.4,0,0.6,0
			c0.1,0,0.1,0,0.2,0c0.6-0.1,1,0.4,1.5,0.5c0.1,0.1,0.1,0.3,0.1,0.4C29.7,2.1,29.7,2.2,29.6,2.2z"/>
		<path class="st27" d="M22.3,2.7c0.4,0,0.8,0,1.1,0c0,0.1,0,0.2,0,0.3C23,3,22.6,3.4,22.3,2.7L22.3,2.7z"/>
		<path class="st28" d="M36.6,7c-0.5,0.1-0.4,0.4-0.4,0.7c0,0.3-0.1,0.7-0.5,0.7c-0.5,0-0.4-0.5-0.4-0.7c0-0.9-0.2-1.6-1.3-1.6
			c-0.3,0-0.5-0.2-0.4-0.5c0-0.3,0.3-0.3,0.6-0.4c0.4,0,0.6,0.1,0.8,0.4c0.3,0.4,0.7,0.5,1.1,0.5C36.4,5.9,36.7,5.9,37,6
			c0.2,0.1,0.4,0.3,0.4,0.5C37.5,7.1,37,7.1,36.6,7z"/>
		<path class="st29" d="M36.6,7c0-0.2,0.1-0.5,0.4-0.3c0.3,0.2,0.3,0,0.3-0.2c0.1-0.1,0.2,0,0.3,0.1c0.3,0.4,0.2,0.8-0.1,1.2
			c0,0.3,0.1,0.9-0.5,0.8c-0.5-0.1-0.3-0.5-0.4-0.8C36.6,7.6,36.6,7.3,36.6,7z"/>
		<path class="st30" d="M37,6.1c-0.3,0-0.6,0-0.9,0c0.2-0.3-0.8-0.6,0-0.9C36.4,5,36.7,5,37,5.2C37.2,5.5,37.3,5.8,37,6.1z"/>
		<path class="st14" d="M12.3,14.2c0.1-0.2,0.3-0.5,0.4-0.7c0.3,1.3-0.6,2.3-0.9,3.5c-0.1-0.1-0.2-0.2-0.2-0.2
			c-0.4-0.4-0.1-0.9,0-1.3C11.8,15,11.7,14.4,12.3,14.2z"/>
		<path class="st26" d="M30.9,2.2c0,0.1,0,0.3,0,0.4c-0.4-0.1-1.1,0.3-1.3-0.4c0,0,0,0,0,0c0.3-0.2,0.6-0.2,0.9,0
			C30.7,2.2,30.8,2.2,30.9,2.2z"/>
		<circle class="st31" cx="20.8" cy="8.4" r="0.7"/>
	</g>
</g>
</svg>
