<svg width="53" height="53" viewBox="0 0 53 53" fill="none" xmlns="http://www.w3.org/2000/svg">
<g clip-path="url(#clip0_2778_2678)">
<path d="M27.9845 30.21H34.5565C36.4645 30.21 37.6305 29.15 37.6305 27.56C37.6305 25.97 36.4645 24.91 34.5565 24.91H27.9845C27.7725 24.91 27.5605 25.122 27.5605 25.334V29.998C27.5605 29.998 27.7725 30.21 27.9845 30.21ZM27.9845 40.81H34.7685C36.8885 40.81 38.1605 39.75 38.1605 37.842C38.1605 36.252 36.9945 34.874 34.7685 34.874H27.9845C27.7725 34.874 27.5605 35.086 27.5605 35.298V40.386C27.5605 40.704 27.7725 40.81 27.9845 40.81Z" fill="white"/>
<path d="M52.0461 0.529993L32.5421 20.034H35.7221C40.7041 20.034 43.6721 23.108 43.6721 26.606C43.6721 29.256 41.8701 31.27 39.9621 32.118C39.6441 32.224 39.6441 32.648 39.9621 32.754C42.1881 33.602 43.7781 35.934 43.7781 38.69C43.7781 42.612 41.2341 45.686 36.1461 45.686H22.3661C22.1541 45.686 21.9421 45.474 21.9421 45.262V30.634L0.530064 51.94C0.212064 52.258 0.424064 52.682 0.848064 52.682H52.2581C52.4701 52.682 52.5761 52.576 52.5761 52.364V0.847993C52.7881 0.529993 52.3641 0.317993 52.0461 0.529993Z" fill="white"/>
</g>
<defs>
<clipPath id="clip0_2778_2678">
<rect width="53" height="53" fill="white"/>
</clipPath>
</defs>
</svg>
