<?xml version="1.0" encoding="utf-8"?>
<!-- Generator: Adobe Illustrator 22.0.1, SVG Export Plug-In . SVG Version: 6.00 Build 0)  -->
<svg version="1.1" id="Layer_1" xmlns="http://www.w3.org/2000/svg" xmlns:xlink="http://www.w3.org/1999/xlink" x="0px" y="0px"
	 viewBox="0 0 50 50" style="enable-background:new 0 0 50 50;" xml:space="preserve">
<style type="text/css">
	.st0{fill:#EE4323;}
</style>
<g>
	<path class="st0" d="M18.5,48.9c-3-1.2-5.7-4.5-5.7-7.8c0-3.6,2.2-6.7,5.1-8.7c-0.4,1.2-0.5,2.5,0.4,3.6c0.7,1.1,2.1,1.6,3.5,1.4
		c3-0.6,3.2-4,1.4-6c-1.7-1.9-3.5-4.1-2.9-6.8c0.4-1.4,1.2-2.7,2.2-3.6c-0.9,2.2,1.5,4.3,3.1,5.5c2.7,1.9,5.7,3.2,8.2,5.5
		c2.6,2.4,4.6,5.5,4.2,9.1c-0.4,4-3.5,6.6-7.1,8.1c7.3-1.6,15-7.3,15.1-15.5c0.1-6.7-4.5-11.9-10.2-14.9l-0.2-0.1
		c0.1,0.4,0.2,0.7,0.2,1c0-0.2,0.1-0.4,0.1-0.6c0,0.2,0,0.5-0.1,0.7v-0.1c-0.1,0.4-0.2,0.7-0.4,1l0.1-0.1c-1.1,1.9-4.2,2.4-5.7,0.4
		c-2.5-3.1,0-6.6,0.4-9.9c0.2-4.3-2.4-8.3-5.7-10.8c1.7,2.9-0.6,6.7-2.5,8.9C20.2,11,18,12.8,16,14.6c-2.1,2-4.2,4.2-6.1,6.6
		C6.3,25.9,4.2,32,5.8,38C7.4,43.8,12.6,47.5,18.5,48.9L18.5,48.9z"/>
</g>
</svg>
