<svg width="56" height="56" viewBox="0 0 56 56" fill="none" xmlns="http://www.w3.org/2000/svg">
<g clip-path="url(#clip0_3098_2851)">
<path d="M27.9756 55.8585L11.8143 51.3721L8.21289 10.9775H47.7867L44.1814 51.3657L27.9756 55.8585Z" fill="#264DE4"/>
<path d="M41.0951 48.7939L44.1761 14.2804H28V52.4244L41.0951 48.7939Z" fill="#2965F1"/>
<path d="M16.4688 29.2621L16.9128 34.2163H27.9994V29.2621H16.4688Z" fill="#EBEBEB"/>
<path d="M15.5771 19.2346L16.0275 24.1889H28V19.2346H15.5771Z" fill="#EBEBEB"/>
<path d="M28 42.1288L27.9783 42.1346L22.4607 40.6447L22.108 36.6935H17.1348L17.8289 44.4723L27.9772 47.2896L28 47.2833V42.1288Z" fill="#EBEBEB"/>
<path d="M17.5264 0H23.5268V2.50927H20.0356V5.01854H23.5268V7.52781H17.5264V0Z" fill="white"/>
<path d="M24.7266 0H30.727V2.18197H27.2358V2.61837H30.727V7.63691H24.7266V5.34583H28.2177V4.90944H24.7266V0Z" fill="white"/>
<path d="M31.9277 0H37.9282V2.18197H34.437V2.61837H37.9282V7.63691H31.9277V5.34583H35.4189V4.90944H31.9277V0Z" fill="white"/>
<path d="M39.4984 29.2621L40.3928 19.2346H27.9824V24.1889H34.9634L34.5126 29.2621H27.9824V34.2163H34.083L33.5079 40.6415L27.9824 42.1329V47.2872L38.1389 44.4723L38.2134 43.6353L39.3776 30.5925L39.4984 29.2621Z" fill="white"/>
</g>
<defs>
<clipPath id="clip0_3098_2851">
<rect width="56" height="56" fill="white"/>
</clipPath>
</defs>
</svg>
