<?xml version="1.0" encoding="utf-8"?>
<!-- Generator: Adobe Illustrator 22.0.1, SVG Export Plug-In . SVG Version: 6.00 Build 0)  -->
<svg version="1.1" id="Layer_1" xmlns="http://www.w3.org/2000/svg" xmlns:xlink="http://www.w3.org/1999/xlink" x="0px" y="0px"
	 viewBox="0 0 50 50" style="enable-background:new 0 0 50 50;" xml:space="preserve">
<style type="text/css">
	.st0{fill:#2BA977;}
</style>
<g>
	<path class="st0" d="M23.5,0.5h8.1v37.2c-4.2,0.8-7.2,1.1-10.5,1.1c-9.9,0-15.1-4.4-15.1-12.9c0-8.2,5.5-13.5,13.9-13.5
		c1.3,0,2.3,0.1,3.5,0.4V0.5z M23.8,19.4c-0.9-0.3-1.7-0.4-2.7-0.4c-4.1,0-6.5,2.5-6.5,6.9c0,4.3,2.3,6.6,6.4,6.6
		c0.9,0,1.6-0.1,2.8-0.2V19.4z"/>
	<path class="st0" d="M44.9,13.3v18.6c0,6.4-0.5,9.5-1.9,12.1c-1.3,2.6-3,4.2-6.6,5.9l-7.5-3.5c3.6-1.7,5.3-3.1,6.4-5.4
		c1.2-2.3,1.5-4.9,1.5-11.9V13.3H44.9L44.9,13.3z"/>
	<path class="st0" d="M36,0.5h8.1v8.2H36V0.5L36,0.5z"/>
</g>
</svg>
