<?xml version="1.0" encoding="utf-8"?>
<!-- Generator: Adobe Illustrator 22.0.1, SVG Export Plug-In . SVG Version: 6.00 Build 0)  -->
<svg version="1.1" id="Layer_1" xmlns="http://www.w3.org/2000/svg" xmlns:xlink="http://www.w3.org/1999/xlink" x="0px" y="0px"
	 viewBox="0 0 50 50" style="enable-background:new 0 0 50 50;" xml:space="preserve">
<style type="text/css">
	.st0{fill:#F6D2A2;}
	.st1{fill:#69D7E2;}
	.st2{fill:#FFFFFF;}
	.st3{fill:#231F20;}
</style>
<path class="st0" d="M7.4,27.1c0.1,1.5,1.5,0.8,2.2,0.3c0.6-0.4,0.8-0.1,0.9-0.9c0-0.6,0.1-1.1,0.1-1.7c-0.9-0.1-2,0.1-2.7,0.7
	C7.4,25.8,6.6,26.7,7.4,27.1 M36.4,45c1.1,0.7,3.2,2.8,1.5,3.8c-1.6,1.5-2.5-1.6-3.9-2C34.6,45.9,35.3,45.1,36.4,45z M16.4,47.3
	c-1.3,0.2-2,1.4-3.1,2c-1,0.6-1.4-0.2-1.5-0.4c-0.2-0.1-0.1,0.1-0.4-0.2c-1-1.5,1-2.6,2-3.4C14.8,45.1,15.7,46.3,16.4,47.3
	L16.4,47.3z M42.6,26.9c-0.1,1.5-1.5,0.8-2.2,0.3c-0.6-0.4-0.8-0.1-0.9-0.9c0-0.6-0.1-1.1-0.1-1.7c0.9-0.1,2,0.1,2.7,0.7
	C42.6,25.6,43.4,26.5,42.6,26.9"/>
<path class="st1" d="M38.7,9.1c5-1.8,1.1-8.7-3.3-5.6c-2.9-2.5-6.9-2.9-11-2.9c-4.1,0.3-8,1.1-10.7,3.4c-4.4-2.8-8.4,4-3.3,5.7
	c-1.4,5.6,0.2,11.3,0,17c-0.2,5.1-1.6,12,1.3,16.6c2.4,3.9,7.6,5.3,11.9,5.5c5.5,0.2,12.1-1.1,14.7-6.4c2.5-5,1.8-11.3,1.5-16.8
	C39.6,20,40.2,14.4,38.7,9.1L38.7,9.1z"/>
<path d="M43,26c-0.1-0.3-0.4-0.6-0.7-0.8c-0.6-0.5-1.5-0.7-2.3-0.7c0-0.9-0.1-1.8-0.1-3.1v-1.1c0-3.5-0.1-5-0.3-6.9
	c-0.2-1.5-0.4-2.9-0.7-4.2c1.1-0.4,1.9-1.2,2.2-2.1c0.3-0.9,0.1-1.8-0.3-2.7c-0.5-0.8-1.3-1.5-2.2-1.7c-1-0.3-2.1-0.1-3.1,0.6
	c-0.9-0.8-2-1.4-3.2-1.8c-2.1-0.8-4.5-1.1-7.9-1.1v0.1l0-0.1c-3.5,0.3-6.2,0.8-8.3,1.9c-0.9,0.4-1.7,0.9-2.3,1.5
	c-1-0.6-2.1-0.8-3.1-0.5C9.7,3.6,8.9,4.3,8.4,5.1C7.9,6,7.8,7,8.1,7.8c0.3,0.8,1.1,1.5,2.2,1.9c-0.4,1.4-0.5,2.9-0.6,4.6
	c0,1.6,0,2.9,0.3,5.9c0.2,2.2,0.3,3.2,0.3,4.4c-1,0-1.9,0.2-2.6,0.7c-0.3,0.2-0.5,0.5-0.7,0.8c-0.2,0.4-0.1,0.7,0.3,1
	c0.1,0.7,0.4,1,1,0.9c0.4,0,0.9-0.3,1.4-0.6c0.1-0.1,0.2-0.1,0.3-0.2c0,0,0.1,0,0.1,0c0,0,0.1,0,0.1,0c0,0,0.1,0,0.1-0.1
	c0,0.7-0.1,1.4-0.2,2.9C10,31.9,9.9,32.9,9.9,34c-0.1,4,0.4,7,1.8,9.3c0.5,0.7,1,1.4,1.7,2c-0.1,0.1-0.7,0.5-0.8,0.6
	c-0.6,0.5-1,0.8-1.2,1.3c-0.3,0.6-0.3,1.1,0,1.7l0,0l0,0c0.2,0.2,0.2,0.2,0.4,0.2h0c0,0,0,0,0,0.1c0,0.1,0.1,0.1,0.1,0.2
	c0.4,0.4,0.8,0.5,1.5,0.1c0.4-0.2,0.6-0.4,1.1-0.8l0,0c0.9-0.7,1.3-1,1.9-1.1l0.2,0c0.1,0,0.2,0.1,0.3,0.1c2,0.8,4.3,1.2,6.7,1.3
	c3.1,0.1,6-0.3,8.5-1.2c0.7-0.2,1.3-0.5,1.9-0.8c0.4,0.1,0.7,0.4,1.3,1.1c0,0,0,0,0,0.1c0,0,0,0,0,0.1c0,0,0.1,0.1,0.1,0.1
	c0.5,0.6,0.8,0.8,1.1,1c0.5,0.2,0.9,0.1,1.4-0.3c0.8-0.5,0.9-1.3,0.3-2.2c-0.4-0.6-1-1.3-1.7-1.7c0.7-0.7,1.4-1.6,1.9-2.6
	c1.4-2.7,1.9-5.9,1.9-9.9c0-1.4-0.1-2.7-0.2-5.1v-0.1c0.1,0,0.1,0.1,0.2,0.1c0.4,0.3,0.9,0.5,1.4,0.6c0.6,0.1,1-0.3,1-0.9
	C43.1,26.8,43.2,26.4,43,26L43,26z M38.5,3c0.8,0.2,1.6,0.8,2,1.6c0.5,0.8,0.6,1.7,0.3,2.5c-0.3,0.8-0.9,1.5-2,1.9
	c-0.2-0.8-0.5-1.5-0.7-2.2c0.4-0.4,0.6-0.8,0.3-1.4c-0.3-0.6-0.9-0.7-1.5-0.5c-0.4-0.5-0.8-0.9-1.2-1.3C36.6,2.9,37.6,2.7,38.5,3
	L38.5,3z M8.4,7.8C8.1,7,8.2,6.1,8.6,5.3c0.5-0.8,1.2-1.4,2.1-1.7c0.9-0.3,1.9-0.1,2.8,0.4c-0.6,0.5-1,1.1-1.5,1.7
	c-0.7-0.4-1.5-0.5-1.9,0.3c-0.4,0.8,0.1,1.4,0.8,1.8c-0.1,0.2-0.2,0.5-0.3,0.7c-0.1,0.3-0.2,0.6-0.3,1C9.4,9.1,8.7,8.5,8.4,7.8
	L8.4,7.8z M10.1,27C10.1,27,10,27,10.1,27c-0.1,0.1-0.2,0.1-0.2,0.1c-0.1,0-0.2,0.1-0.3,0.2c-0.4,0.3-0.9,0.5-1.2,0.5
	c-0.4,0-0.7-0.1-0.7-0.6C7.9,27.1,8,27,8.1,26.8l-0.2-0.2c-0.1,0.1-0.2,0.2-0.4,0.2c0,0,0,0,0,0c-0.2-0.1-0.3-0.3-0.1-0.6
	c0.1-0.3,0.4-0.6,0.6-0.7c0.7-0.5,1.6-0.7,2.5-0.7c0,0.4,0,0.7,0,1c0,0,0,0.1,0,0.1c0,0.2,0,0.3,0,0.4C10.3,26.9,10.2,26.9,10.1,27
	L10.1,27z M14.4,48.3L14.4,48.3c-0.6,0.5-0.8,0.7-1.1,0.8c-0.5,0.3-0.9,0.3-1.2-0.1c0,0-0.1-0.1-0.1-0.1c0,0,0,0,0-0.1v0
	c0-0.3,0.1-0.4,0.4-0.8c0,0,0,0,0,0c0.2-0.2,0.2-0.4,0.3-0.5l-0.3-0.1c-0.1,0.1-0.1,0.2-0.3,0.5c0,0,0,0,0,0
	c-0.3,0.4-0.4,0.6-0.4,0.8h0h0c0,0-0.1,0-0.1-0.1c-0.6-0.9-0.1-1.6,1.1-2.6c0.2-0.1,0.7-0.5,0.8-0.6c0,0,0.1,0,0.1,0
	c0.8,0.6,1.7,1.2,2.6,1.7c0,0,0,0,0,0C15.6,47.4,15.1,47.7,14.4,48.3L14.4,48.3z M38.1,46.8c0.4,0.7,0.4,1.3-0.1,1.7
	c0-0.1-0.1-0.2-0.1-0.3c0,0,0,0,0,0c-0.2-0.5-0.3-0.8-0.6-1L37,47.4c0.2,0.2,0.3,0.4,0.5,0.9c0,0,0,0,0,0c0.1,0.2,0.1,0.3,0.2,0.4
	c-0.4,0.3-0.7,0.4-1,0.2c-0.3-0.1-0.6-0.4-1-0.9c0,0-0.1-0.1-0.1-0.1c0,0,0,0,0-0.1c0,0,0,0,0-0.1c-0.5-0.6-0.8-0.9-1.2-1.1
	c0.8-0.5,1.5-1,2.1-1.6C37,45.5,37.7,46.2,38.1,46.8L38.1,46.8z M38.3,42.2c-1.2,2.4-3.4,4.2-6.2,5.2c-2.5,0.9-5.4,1.3-8.4,1.1
	c-5.2-0.2-9.7-2-11.8-5.4C10.5,40.9,10,38,10.1,34c0-1.1,0.1-2.1,0.2-3.8c0.2-2,0.2-2.6,0.2-3.5c0-0.6,0-1.3,0-2
	c0-1.2-0.1-2.2-0.3-4.4C10.1,17.3,10,16,10,14.4c0-2.1,0.3-4,0.9-5.7c1-2.9,2.7-4.8,5.3-6.1c2.1-1,4.7-1.6,8.2-1.9
	c3.3,0,5.7,0.3,7.8,1.1c2.5,0.9,4.3,2.5,5.6,5c0.8,2,1.3,4.2,1.6,6.7c0.2,1.9,0.2,3.4,0.3,6.9v1.1c0,1.7,0,2.9,0.1,4.1
	c0,0.5,0,0.7,0.1,1.8c0.2,2.4,0.2,3.6,0.2,5.1C40.1,36.4,39.6,39.5,38.3,42.2L38.3,42.2z M42.6,26.7C42.6,26.7,42.6,26.7,42.6,26.7
	c-0.3-0.1-0.4-0.2-0.5-0.3l-0.2,0.2c0.1,0.2,0.3,0.2,0.5,0.3c-0.1,0.5-0.3,0.7-0.7,0.6c-0.4,0-0.8-0.3-1.2-0.5
	c-0.1-0.1-0.2-0.1-0.3-0.2c0,0,0,0,0,0c-0.1-0.8-0.1-1-0.1-1.4l0-0.8c0.8,0,1.6,0.3,2.2,0.7c0.2,0.2,0.5,0.5,0.6,0.7
	C42.9,26.4,42.8,26.6,42.6,26.7L42.6,26.7z"/>
<path class="st2" d="M26.6,15.2c0,0.7,0.2,1.5,0,2.3c-0.2,0.4-0.6,0.4-0.9,0.6c-0.5-0.1-0.8-0.4-1-0.8c-0.1-0.9,0-1.7,0.1-2.5
	c0,0,0.5,0,1,0.2C26.2,14.9,26.6,15.1,26.6,15.2L26.6,15.2z M22.6,15.2c-0.4,1.5,0.5,3.9,2,1.9c-0.1-0.8,0-1.7,0.1-2.5
	C24.7,14.6,22.6,15.1,22.6,15.2L22.6,15.2z"/>
<path d="M26.7,15.8c0-0.4,0-0.6,0-0.8v-0.1l-0.1,0l-1.8-0.6v-0.1l-0.2,0h0v0l-2,0.5l-0.1,0l0,0.1c-0.3,0.7-0.2,1.9,0.2,2.6
	c0.5,0.8,1.2,0.8,1.9-0.1c0.2,0.4,0.6,0.7,1.1,0.8h0l0,0c0.1,0,0.1,0,0.2-0.1c0,0,0,0,0,0c0.4-0.1,0.6-0.3,0.7-0.5l0,0v0
	c0-0.3,0.1-0.5,0.1-0.8C26.8,16.4,26.8,16.2,26.7,15.8L26.7,15.8z M24.5,15.3c0,0.3,0,0.4,0,0.5c0,0.5,0,0.9,0,1.3
	c-0.7,0.8-1.2,0.8-1.5,0.2c-0.3-0.6-0.4-1.6-0.2-2.3l1.8-0.5C24.5,14.8,24.5,15,24.5,15.3z M26.5,17.4c-0.1,0.2-0.2,0.3-0.6,0.4
	c0,0,0,0,0,0c-0.1,0-0.1,0.1-0.2,0.1c-0.4-0.1-0.7-0.3-0.9-0.7c0-0.4,0-0.8,0-1.3c0-0.1,0-0.2,0-0.5c0-0.3,0-0.5,0-0.7l1.5,0.5
	c0,0.2,0,0.4,0,0.7c0,0.4,0,0.6,0,0.8C26.5,16.9,26.5,17.2,26.5,17.4z"/>
<g transform="translate(48.476 21.976)">
	<path class="st2" d="M-34.4-13c1.3,5.1,9.4,3.8,9.1-1.3C-25.7-20.4-35.6-19.2-34.4-13"/>
	<path d="M-25.2-14.3c-0.1-1.5-0.7-2.6-1.8-3.3c-1-0.6-2.2-0.9-3.5-0.7c-1.3,0.2-2.4,0.7-3.2,1.6c-0.8,1-1.2,2.3-0.9,3.8l0.1,0
		l-0.1,0C-33.2-7.8-24.9-9-25.2-14.3z M-34.3-13c-0.3-1.4,0-2.6,0.8-3.6c0.7-0.8,1.8-1.4,3-1.5c1.2-0.2,2.4,0.1,3.3,0.7
		c1,0.7,1.6,1.7,1.7,3.1C-25.1-9.3-33-8.1-34.3-13L-34.3-13z"/>
	<ellipse cx="-32.2" cy="-13.8" rx="1.4" ry="1.5"/>
	<ellipse class="st2" cx="-31.5" cy="-13.5" rx="0.3" ry="0.4"/>
</g>
<g transform="translate(129.618 18.098)">
	<path class="st2" d="M-104.2-10c1,5.8,10.5,4.3,9.1-1.6C-96.3-16.9-104.5-15.4-104.2-10"/>
	<path d="M-94.9-11.7c-1.3-5.4-9.7-3.9-9.4,1.6v0c0.5,2.7,2.9,4.1,5.6,3.7c1.2-0.2,2.3-0.8,3.1-1.7C-94.9-9-94.6-10.2-94.9-11.7
		L-94.9-11.7z M-95.9-8.2c-0.7,0.8-1.7,1.4-2.9,1.6c-2.6,0.4-4.8-0.9-5.3-3.5c-0.3-5.2,7.7-6.6,8.9-1.5
		C-94.9-10.3-95.1-9.1-95.9-8.2z"/>
	<ellipse cx="-101.9" cy="-10.3" rx="1.3" ry="1.5"/>
	<ellipse class="st2" cx="-101.2" cy="-10" rx="0.3" ry="0.4"/>
</g>
<g>
	<path class="st0" d="M22.9,12.2c-1.1,0.1-2,1.4-1.4,2.5c0.8,1.4,2.5-0.1,3.5,0c1.2,0,2.2,1.3,3.2,0.2c1.1-1.2-0.5-2.3-1.7-2.9
		L22.9,12.2L22.9,12.2z"/>
	<path class="st3" d="M28.3,13.1c-0.4-0.5-1-0.9-1.8-1.2l0,0h0L22.9,12c-1.3,0.1-2.2,1.6-1.6,2.7c0.2,0.4,0.6,0.6,1,0.7
		c0.3,0,0.7-0.1,1.2-0.2c0,0,0.1,0,0.2-0.1c0.7-0.2,1-0.3,1.3-0.3h0c0.3,0,0.6,0.1,1.2,0.3c0.6,0.2,0.8,0.3,1.1,0.3
		c0.4,0,0.8-0.1,1.1-0.5C28.8,14.4,28.8,13.7,28.3,13.1L28.3,13.1z M28.1,14.8c-0.3,0.3-0.5,0.4-0.9,0.4c-0.3,0-0.4-0.1-1-0.3
		c-0.6-0.2-0.9-0.3-1.2-0.3c-0.4,0-0.6,0-1.4,0.3c-0.1,0-0.1,0-0.2,0.1c-1,0.4-1.5,0.3-1.9-0.3c-0.5-0.9,0.3-2.2,1.3-2.3l3.6-0.1
		c0.7,0.3,1.3,0.7,1.6,1.1C28.5,13.8,28.5,14.3,28.1,14.8L28.1,14.8z"/>
	<path d="M26.8,11.6c-0.4-1.6-4.1-1.4-4,0.6C22.9,13.5,27.2,13.1,26.8,11.6z"/>
</g>
</svg>
