<svg width="56" height="56" viewBox="0 0 56 56" fill="none" xmlns="http://www.w3.org/2000/svg">
<g clip-path="url(#clip0_3098_2839)">
<path d="M47.7867 10.9775L44.1814 51.3657L27.9756 55.8585L11.8143 51.3721L8.21289 10.9775H47.7867Z" fill="#E44D26"/>
<path d="M28 52.4244L41.0951 48.7939L44.1761 14.2804H28V52.4244Z" fill="#F16529"/>
<path d="M20.9915 24.1889H28V19.2346H15.5771L15.6957 20.5638L16.9134 34.2163H28V29.2621H21.4443L20.9915 24.1889Z" fill="#EBEBEB"/>
<path d="M22.108 36.6935H17.1348L17.8289 44.4723L27.9772 47.2896L28 47.2833V42.1288L27.9783 42.1346L22.4607 40.6447L22.108 36.6935Z" fill="#EBEBEB"/>
<path d="M11.8945 0H14.4122V2.48745H16.7153V0H19.2331V7.53261H16.7154V5.01025H14.4123V7.53261H11.8946L11.8945 0Z" fill="white"/>
<path d="M22.5446 2.49792H20.3281V0H27.2799V2.49792H25.0625V7.53261H22.5447L22.5446 2.49792Z" fill="white"/>
<path d="M28.3828 0H31.0081L32.6229 2.64673L34.2362 0H36.8624V7.53261H34.3551V3.79903L32.6229 6.4773H32.5796L30.8463 3.79903V7.53261H28.3828V0Z" fill="white"/>
<path d="M38.1152 0H40.6337V5.04276H44.1742V7.53261H38.1152V0Z" fill="white"/>
<path d="M27.9824 34.2163H34.083L33.5079 40.6415L27.9824 42.1329V47.2872L38.1389 44.4723L38.2134 43.6353L39.3776 30.5925L39.4984 29.2621H27.9824V34.2163Z" fill="white"/>
<path d="M27.9824 24.1768V24.1889H39.9492L40.0486 23.0754L40.2744 20.5638L40.3928 19.2346H27.9824V24.1768Z" fill="white"/>
</g>
<defs>
<clipPath id="clip0_3098_2839">
<rect width="56" height="56" fill="white"/>
</clipPath>
</defs>
</svg>
