<?xml version="1.0" encoding="utf-8"?>
<!-- Generator: Adobe Illustrator 22.0.1, SVG Export Plug-In . SVG Version: 6.00 Build 0)  -->
<svg version="1.1" id="Layer_1" xmlns="http://www.w3.org/2000/svg" xmlns:xlink="http://www.w3.org/1999/xlink" x="0px" y="0px"
	 viewBox="0 0 50 50" style="enable-background:new 0 0 50 50;" xml:space="preserve">
<style type="text/css">
	.st0{fill:#4E8EF7;}
</style>
<g>
	<path class="st0" d="M45.1,8.3c0,0.9-0.3,1.6-0.8,2.2c3.1,4.1,4.9,9.1,4.9,14.6c0,13.4-10.9,24.2-24.2,24.2S0.8,38.4,0.8,25
		C0.8,11.7,11.6,0.8,25,0.8c5.5,0,10.5,1.8,14.6,4.9c0.6-0.5,1.4-0.8,2.2-0.8C43.6,4.9,45.1,6.4,45.1,8.3z M25,48.4
		c12.9,0,23.4-10.5,23.4-23.4c0-5.2-1.7-10.1-4.7-14c-0.6,0.4-1.2,0.6-2,0.6c-1.9,0-3.4-1.5-3.4-3.4c0-0.7,0.2-1.4,0.6-2
		c-3.9-2.9-8.8-4.7-14-4.7C12.1,1.6,1.6,12.1,1.6,25S12.1,48.4,25,48.4z M25,34.9c-5.5,0-9.9-4.4-9.9-9.9s4.4-9.9,9.9-9.9
		s9.9,4.4,9.9,9.9S30.4,34.9,25,34.9z"/>
</g>
</svg>
