<svg width="56" height="56" viewBox="0 0 56 56" fill="none" xmlns="http://www.w3.org/2000/svg">
<path d="M46.5964 44.5458C46.3397 44.3218 45.9944 44.2238 45.6631 44.2728C45.4041 44.3125 45.1334 44.3335 44.8604 44.3335C43.8594 44.3335 43.0334 44.2075 42.3334 44.0325V45.5001C42.3334 46.1441 41.8107 46.6668 41.1667 46.6668H10.8333C10.1893 46.6668 9.6666 46.1441 9.6666 45.5001V5.83331C9.6666 5.18931 10.1893 4.6666 10.8333 4.6666H41.1667C41.8107 4.6666 42.3334 5.18931 42.3334 5.83331V10.1546C43.3997 9.64361 44.5757 9.33331 45.8334 9.33331C46.4774 9.33331 47.0001 8.81061 47.0001 8.16661V5.83331C47.0001 2.61801 44.3844 0 41.1667 0H10.8333C7.6156 0 5 2.61801 5 5.83331V50.1667C5 53.382 7.61571 56 10.8333 56H41.1667C44.3844 56 47 53.382 47 50.1667V45.4277C47.0001 45.0871 46.8531 44.7651 46.5964 44.5458ZM26 52.5001C24.712 52.5001 23.6667 51.4524 23.6667 50.1668C23.6667 48.8812 24.712 47.8335 26 47.8335C27.288 47.8335 28.3333 48.8812 28.3333 50.1668C28.3333 51.4524 27.288 52.5001 26 52.5001Z" fill="white"/>
<path d="M45.8333 11.6667C42.6156 11.6667 40 14.2847 40 17.5C40 18.144 40.5227 18.6667 41.1667 18.6667C44.3844 18.6667 47 16.0487 47 12.8334C47 12.1893 46.4773 11.6667 45.8333 11.6667Z" fill="white"/>
<path d="M51.4822 33.0074C51.2979 32.7181 50.9945 32.5244 50.6539 32.4801C48.9902 32.2584 47.7349 30.8934 47.7349 29.3044C47.7349 27.9161 48.6776 26.6887 50.0846 26.2547C50.4346 26.1474 50.7169 25.8789 50.8383 25.5336C50.962 25.1884 50.9153 24.8033 50.7123 24.4976C49.352 22.4396 47.1796 21.0023 45.4296 21.0023C44.2583 21.0023 43.2036 21.3453 42.2703 21.6463C41.5493 21.8796 40.868 22.099 40.308 22.099C39.7457 22.099 39.0667 21.8773 38.3457 21.644C37.4147 21.343 36.3577 21 35.1864 21C32.4564 21 28.3311 24.5303 28.3311 29.8528C28.3311 34.8695 32.1718 42.0001 35.7558 42.0001C37.4708 42.0001 38.5185 41.5474 39.2838 41.2184C40.2498 40.8007 40.3711 40.8031 41.3325 41.2184C42.0955 41.5497 43.1432 42.0001 44.8605 42.0001C47.5415 42.0001 50.4022 37.9214 51.6155 33.9781C51.7155 33.6514 51.6665 33.2968 51.4822 33.0074Z" fill="white"/>
</svg>
