<?xml version="1.0" encoding="utf-8"?>
<!-- Generator: Adobe Illustrator 22.0.1, SVG Export Plug-In . SVG Version: 6.00 Build 0)  -->
<svg version="1.1" id="Layer_1" xmlns="http://www.w3.org/2000/svg" xmlns:xlink="http://www.w3.org/1999/xlink" x="0px" y="0px"
	 viewBox="0 0 50 50" style="enable-background:new 0 0 50 50;" xml:space="preserve">
<style type="text/css">
	.st0{fill:#F9AE41;}
	.st1{fill:#EE4035;}
	.st2{fill:#4F91CD;}
	.st3{fill:#7AC043;}
</style>
<g>
	<path class="st0" d="M49.3,7.2c0-3.5-2.9-6.4-6.4-6.4c-3.2,0-5.9,2.4-6.4,5.5c0,0-0.1,0-0.1,0c-5.2-2.4-9.7,1.8-9.7,1.8L15.1,19.8
		l4.6,4.4l9.4-9.2c4.4-4.4,6.8-1.4,6.8-1.4c3.3,2.8,0.1,6.1,0.1,6.1l4.7,4.6c3.9-4.2,4.1-7.8,2.9-10.7C46.9,13.2,49.3,10.5,49.3,7.2
		"/>
	<path class="st1" d="M43.8,36.7C43.8,36.7,43.8,36.7,43.8,36.7C46.2,31.4,42,27,42,27L30.2,15.3l-4.4,4.6l9.2,9.4
		c4.4,4.4,1.4,6.8,1.4,6.8c-2.8,3.3-6.1,0.1-6.1,0.1L25.8,41c4.2,3.9,7.8,4.1,10.7,2.9c0.4,3.2,3.1,5.6,6.4,5.6
		c3.5,0,6.4-2.9,6.4-6.4C49.3,39.8,46.9,37.2,43.8,36.7"/>
	<path class="st2" d="M30.3,25.8L20.9,35c-4.4,4.4-6.8,1.4-6.8,1.4c-3.3-2.8-0.1-6.1-0.1-6.1l-4.7-4.6C5.4,30,5.2,33.6,6.4,36.5
		c-3.2,0.4-5.6,3.1-5.6,6.4c0,3.5,2.9,6.4,6.4,6.4c3.2,0,5.9-2.4,6.4-5.5c0,0,0.1,0,0.1,0c5.2,2.4,9.7-1.8,9.7-1.8L35,30.2
		L30.3,25.8"/>
	<path class="st3" d="M15.1,20.7c-4.4-4.4-1.4-6.8-1.4-6.8c2.8-3.3,6.1-0.1,6.1-0.1l4.6-4.7C20.1,5.2,16.5,5,13.6,6.2
		C13.2,3,10.5,0.6,7.2,0.6C3.7,0.6,0.8,3.5,0.8,7c0,3.2,2.4,5.9,5.5,6.4c0,0,0,0.1,0,0.1c-2.4,5.2,1.8,9.7,1.8,9.7l11.7,11.7
		l4.4-4.6L15.1,20.7"/>
</g>
</svg>
