<?xml version="1.0" encoding="utf-8"?>
<!-- Generator: Adobe Illustrator 22.0.1, SVG Export Plug-In . SVG Version: 6.00 Build 0)  -->
<svg version="1.1" id="Layer_1" xmlns="http://www.w3.org/2000/svg" xmlns:xlink="http://www.w3.org/1999/xlink" x="0px" y="0px"
	 viewBox="0 0 50 50" style="enable-background:new 0 0 50 50;" xml:space="preserve">
<style type="text/css">
	.st0{fill:#FF2D20;}
</style>
<g>
	<path class="st0" d="M49.1,11.7c0,0.1,0,0.1,0,0.2v10.5c0,0.3-0.1,0.5-0.4,0.7l-8.8,5.1v10.1c0,0.3-0.1,0.5-0.4,0.7L21.1,49.5
		c0,0-0.1,0-0.1,0.1c0,0,0,0-0.1,0c-0.1,0-0.3,0-0.4,0c0,0,0,0-0.1,0c0,0-0.1,0-0.1-0.1L1.9,38.9c-0.2-0.1-0.4-0.4-0.4-0.7V6.7
		c0-0.1,0-0.1,0-0.2c0,0,0,0,0-0.1c0,0,0-0.1,0-0.1c0,0,0,0,0.1-0.1c0,0,0-0.1,0.1-0.1c0,0,0.1,0,0.1-0.1c0,0,0.1,0,0.1-0.1h0
		l9.2-5.3c0.2-0.1,0.5-0.1,0.8,0L21.1,6h0c0,0,0.1,0,0.1,0.1c0,0,0.1,0,0.1,0.1c0,0,0,0.1,0.1,0.1c0,0,0,0,0.1,0.1c0,0,0,0.1,0,0.1
		c0,0,0,0,0,0.1c0,0.1,0,0.1,0,0.2v19.7l7.7-4.4V11.9c0-0.1,0-0.1,0-0.2c0,0,0,0,0-0.1c0,0,0-0.1,0-0.1c0,0,0,0,0.1-0.1
		c0,0,0-0.1,0.1-0.1c0,0,0,0,0.1-0.1c0,0,0.1,0,0.1-0.1h0l9.2-5.3c0.2-0.1,0.5-0.1,0.8,0l9.2,5.3c0,0,0.1,0,0.1,0.1
		c0,0,0.1,0,0.1,0.1c0,0,0,0.1,0.1,0.1c0,0,0,0,0.1,0.1C49.1,11.5,49.1,11.6,49.1,11.7C49.1,11.6,49.1,11.7,49.1,11.7z M47.6,22
		v-8.8l-3.2,1.9l-4.5,2.6v8.8L47.6,22L47.6,22z M38.4,37.8V29L34,31.5l-12.5,7.1v8.8L38.4,37.8z M3,8v29.8l16.9,9.7v-8.8l-8.8-5l0,0
		l0,0c0,0-0.1,0-0.1-0.1c0,0-0.1,0-0.1-0.1l0,0c0,0,0-0.1-0.1-0.1c0,0,0,0-0.1-0.1l0,0c0,0,0-0.1,0-0.1c0,0,0-0.1,0-0.1v0
		c0,0,0-0.1,0-0.1c0,0,0-0.1,0-0.1v0V12.4L6.3,9.8L3,8L3,8z M11.5,2.2L3.8,6.7l7.7,4.4l7.7-4.4L11.5,2.2L11.5,2.2z M15.5,29.8
		l4.5-2.6V8l-3.2,1.9l-4.5,2.6v19.3L15.5,29.8z M39.2,7.5l-7.7,4.4l7.7,4.4l7.7-4.4L39.2,7.5z M38.4,17.6l-4.5-2.6l-3.2-1.9V22
		l4.5,2.6l3.2,1.9V17.6z M20.7,37.4L32,30.9l5.6-3.2l-7.7-4.4l-8.8,5.1L13,33L20.7,37.4z"/>
</g>
</svg>
