<?xml version="1.0" encoding="utf-8"?>
<!-- Generator: Adobe Illustrator 22.0.1, SVG Export Plug-In . SVG Version: 6.00 Build 0)  -->
<svg version="1.1" id="Layer_1" xmlns="http://www.w3.org/2000/svg" xmlns:xlink="http://www.w3.org/1999/xlink" x="0px" y="0px"
	 viewBox="0 0 50 50" style="enable-background:new 0 0 50 50;" xml:space="preserve">
<style type="text/css">
	.st0{fill:#539E43;}
</style>
<g>
	<path class="st0" d="M25.4,49.6c-0.7,0-1.3-0.2-1.9-0.5l-6-3.5c-0.9-0.5-0.4-0.7-0.2-0.8c1.2-0.4,1.4-0.5,2.7-1.2
		c0.1-0.1,0.3,0,0.4,0l4.6,2.7c0.2,0.1,0.4,0.1,0.5,0L43.5,36c0.2-0.1,0.3-0.3,0.3-0.5V14.8c0-0.2-0.1-0.4-0.3-0.5L25.6,4
		c-0.2-0.1-0.4-0.1-0.5,0L7.2,14.3c-0.2,0.1-0.3,0.3-0.3,0.5v20.7c0,0.2,0.1,0.4,0.3,0.5l4.9,2.8c2.6,1.3,4.3-0.2,4.3-1.8V16.6
		c0-0.3,0.2-0.5,0.5-0.5h2.3c0.3,0,0.5,0.2,0.5,0.5v20.4c0,3.5-1.9,5.6-5.3,5.6c-1,0-1.8,0-4.1-1.1l-4.7-2.7
		c-1.2-0.7-1.9-1.9-1.9-3.3V14.9c0-1.3,0.7-2.6,1.9-3.3L23.5,1.2c1.1-0.6,2.6-0.6,3.8,0l17.9,10.4c1.2,0.7,1.9,1.9,1.9,3.3v20.7
		c0,1.3-0.7,2.6-1.9,3.3L27.3,49.2C26.7,49.5,26,49.6,25.4,49.6L25.4,49.6z M30.9,35.4c-7.9,0-9.5-3.6-9.5-6.6
		c0-0.3,0.2-0.5,0.5-0.5h2.3c0.3,0,0.5,0.2,0.5,0.4c0.4,2.4,1.4,3.5,6.2,3.5c3.8,0,5.4-0.9,5.4-2.9c0-1.2-0.4-2-6.3-2.6
		c-4.9-0.5-7.9-1.6-7.9-5.5c0-3.6,3.1-5.8,8.2-5.8c5.7,0,8.6,2,8.9,6.3c0,0.1,0,0.3-0.1,0.4c-0.1,0.1-0.2,0.2-0.4,0.2h-2.3
		c-0.2,0-0.4-0.2-0.5-0.4c-0.5-2.5-1.9-3.3-5.6-3.3c-4.1,0-4.6,1.4-4.6,2.5c0,1.3,0.6,1.7,6.2,2.4c5.5,0.7,8.1,1.8,8.1,5.6
		C39.9,33.1,36.6,35.4,30.9,35.4L30.9,35.4z"/>
</g>
</svg>
