<?xml version="1.0" encoding="utf-8"?>
<!-- Generator: Adobe Illustrator 22.0.1, SVG Export Plug-In . SVG Version: 6.00 Build 0)  -->
<svg version="1.1" id="Layer_1" xmlns="http://www.w3.org/2000/svg" xmlns:xlink="http://www.w3.org/1999/xlink" x="0px" y="0px"
	 viewBox="0 0 50 50" style="enable-background:new 0 0 50 50;" xml:space="preserve">
<style type="text/css">
	.st0{fill:#169CEE;}
</style>
<g>
	<path class="st0" d="M29.1,31H17c-1.8,0-2.8,1.1-2.8,2.6c0,1.4,0.9,2.4,2.3,2.4c1.6,0,2.5-1.1,2.6-2.6h3.5
		c-0.2,3.8-2.6,5.8-6.1,5.8c-3.3,0-5.8-2.2-5.8-5.6c0-3.5,2.6-5.9,6.5-5.9h11.9c4,0,7.1-3,7.1-6.9c0-4-2.7-6.9-6.6-6.9
		c-3.9,0-7,2.8-7,8v3.4h-3.5v-3.4c0-6.9,4.4-11.4,10.6-11.4c5.9,0,10.1,4.2,10.1,10.2C39.8,26.6,35.2,31,29.1,31L29.1,31z M25,49.5
		c13.7,0,24.5-10.8,24.5-24.5S38.7,0.5,25,0.5S0.5,11.4,0.5,25C0.5,38.7,11.3,49.5,25,49.5L25,49.5z"/>
</g>
</svg>
