<svg width="52" height="56" viewBox="0 0 52 56" fill="none" xmlns="http://www.w3.org/2000/svg">
<path d="M48.7021 8.06081C48.5861 3.77062 44.7597 2.84301 44.7597 2.84301C44.7597 2.84301 31.5413 0.755889 25.7437 0.0601823C19.9462 -0.635525 20.294 4.93013 20.294 4.93013C20.294 4.93013 21.5695 45.8609 21.8014 50.8468C21.9173 56.8763 27.599 55.9486 27.599 55.9486L47.5426 52.4701C51.137 51.7744 51.3689 47.2523 51.3689 47.2523C51.3689 47.2523 48.818 12.8148 48.7021 8.06081C48.818 12.8148 48.4702 3.65467 48.7021 8.06081ZM44.18 42.7302L29.3382 44.2376C29.3382 44.2376 25.048 44.9333 24.9321 39.7155C24.8161 35.8891 24.0045 13.7424 24.0045 13.7424C24.0045 13.7424 23.6566 9.68413 28.1787 10.032C32.7008 10.3798 43.6002 11.1915 43.6002 11.1915C43.6002 11.1915 46.499 11.8872 46.6149 15.1338C46.7309 18.7283 48.0064 38.6719 48.0064 38.6719C48.0064 38.6719 48.3542 42.0345 44.18 42.7302Z" fill="white"/>
<path d="M8.00349 36.8167L5.22067 37.0486C5.22067 37.0486 2.43784 37.3965 2.43784 34.3817C2.43784 32.1787 2.08998 19.54 2.08998 19.54C2.08998 19.54 1.85808 17.221 4.75686 17.3369C5.45257 17.3369 6.49613 17.4529 7.65564 17.5688C7.65564 15.4817 7.53969 13.6265 7.53969 12.2351C6.03232 12.1191 4.52496 12.0032 3.4814 11.8872C-0.229039 11.4234 0.00286299 14.67 0.00286299 14.67C0.00286299 14.67 0.466668 37.8603 0.582619 40.6431C0.69857 44.0057 4.29306 43.4259 4.29306 43.4259L8.2354 42.9621C8.11944 41.3388 8.00349 39.2517 8.00349 36.8167Z" fill="white"/>
<path d="M18.9032 15.7136C18.9032 15.3657 18.7872 15.1338 18.7872 14.9019C17.6277 14.786 14.613 13.9743 13.5694 15.0179C12.9897 15.7136 13.2216 16.9891 13.2216 17.8007C14.4971 17.9167 15.4247 17.9167 15.4247 17.9167C15.4247 17.9167 17.2799 18.2645 17.3958 20.2357C17.5118 22.3228 17.5118 33.9179 17.5118 33.9179C17.5118 33.9179 17.7437 35.7731 15.0768 36.2369L13.6854 36.3529C13.6854 36.8167 13.6854 37.0486 13.6854 37.3965C13.6854 40.759 17.2799 39.5995 19.483 39.4836C19.7149 36.005 19.367 32.2946 19.251 28.8161C19.1351 24.4099 19.1351 20.1197 18.9032 15.7136C19.0191 18.3805 18.9032 15.4817 18.9032 15.7136Z" fill="white"/>
<path d="M20.0627 40.759L16.1203 41.1069C16.1203 41.1069 12.4099 41.6866 12.294 37.3965C12.294 34.2658 11.8301 16.2933 11.8301 16.2933C11.8301 16.2933 11.5982 12.9308 15.4246 13.2786C16.3522 13.3946 17.7437 13.5105 19.251 13.6265C19.1351 10.1479 19.0191 7.48106 19.0191 6.08964C17.0479 5.85774 15.0768 5.74179 13.6854 5.50989C8.69946 4.93013 8.93137 9.45222 8.93137 9.45222C8.93137 9.45222 9.51112 42.2664 9.62707 46.3247C9.74302 51.0787 14.613 50.383 14.613 50.383L20.2946 49.6873C20.2946 47.7161 20.1786 44.5854 20.0627 40.759Z" fill="white"/>
<path d="M28.1796 11.4234C27.4839 11.4234 26.6722 11.4234 26.0925 12.0032C25.5127 12.5829 25.5127 13.3946 25.5127 14.0903C27.4839 14.2062 28.9912 14.4381 28.9912 14.4381C28.9912 14.4381 31.5422 15.0179 31.6581 17.6848C31.7741 20.5835 32.4698 36.5848 32.4698 36.5848C32.4698 36.5848 32.7017 39.2517 29.2231 39.8314L26.5563 40.0633C26.9041 44.2376 32.3538 42.4983 35.1366 42.1505C34.9047 35.7731 33.9771 16.2933 33.7452 11.6553C31.5422 11.6553 29.571 11.5394 28.1796 11.4234C29.571 11.5394 27.9477 11.4234 28.1796 11.4234Z" fill="white"/>
</svg>
