<?xml version="1.0" encoding="utf-8"?>
<!-- Generator: Adobe Illustrator 22.0.1, SVG Export Plug-In . SVG Version: 6.00 Build 0)  -->
<svg version="1.1" id="Layer_1" xmlns="http://www.w3.org/2000/svg" xmlns:xlink="http://www.w3.org/1999/xlink" x="0px" y="0px"
	 viewBox="0 0 50 50" style="enable-background:new 0 0 50 50;" xml:space="preserve">
<style type="text/css">
	.st0{fill:#A5DBE8;}
	.st1{fill:#525353;}
	.st2{fill:#AA9678;}
	.st3{fill:#C4B6A1;}
	.st4{fill:#786453;}
	.st5{fill:#FFFFFF;}
	.st6{fill:#BBBCBD;}
	.st7{fill:#676A6A;}
	.st8{fill:#909393;}
	.st9{fill:#E3DDDB;}
	.st10{fill:#FCB03F;}
	.st11{fill:#9F2254;}
	.st12{fill:#DF0067;}
	.st13{fill:#8B7460;}
</style>
<g>
	<path class="st0" d="M16.5,38.1c0.4-0.2,0.8-0.3,1.2-0.5c0.5-0.2,0.9-0.3,1.4-0.5c0.6-0.2,1.2-0.3,1.7-0.5c0.8-0.2,1.6-0.3,2.4-0.4
		c-0.5,1.4-1,2.8-1.5,4.2c0,0.3,0,0.5,0,0.8c1.1-0.2,2.2-0.3,3.4-0.3c1.2,0,2.3,0.1,3.4,0.3c0-0.3,0-0.5,0-0.8
		c-0.5-1.4-1-2.8-1.5-4.2c0.8,0.1,1.6,0.2,2.4,0.4c0.6,0.1,1.2,0.3,1.7,0.5c0.5,0.1,0.9,0.3,1.4,0.5c0.4,0.2,0.8,0.3,1.2,0.5
		c2.8,1.2,5.3,3.1,7.4,5.4c5.2-4.5,8.5-11.1,8.5-18.5c0-13.5-10.9-24.4-24.4-24.4S0.6,11.6,0.6,25.1c0,7.4,3.3,14,8.5,18.5
		C11.2,41.2,13.7,39.4,16.5,38.1"/>
	<path class="st1" d="M33.7,38.1l1.5,5.2l0.4,0c0.3,0,0.5,0.1,0.5,0.4c0,0.5,0,1,0.1,1.4c0.4,0.3,0.8,0.7,1.2,1
		c1.3-0.8,2.5-1.6,3.7-2.6C39,41.2,36.4,39.4,33.7,38.1"/>
	<path class="st1" d="M30.7,38.1l1.8-0.4c-0.5-0.2-0.9-0.3-1.4-0.5c-0.6-0.2-1.2-0.3-1.7-0.5c-0.8-0.2-1.6-0.3-2.4-0.4
		c0.5,1.4,1,2.8,1.5,4.2c0,0.3,0,0.5,0,0.8c1.3,0.2,2.5,0.7,3.7,1.2L30.7,38.1"/>
	<path d="M12.8,46.2c0.3,0.2,0.6,0.3,0.9,0.5c0.1-0.5,0.3-1.2,0.3-1.7C13.6,45.3,13.1,45.8,12.8,46.2"/>
	<path d="M32,42.5c-1.1-0.5-2.4-0.9-3.6-1.1c-1.1-0.2-2.2-0.3-3.4-0.3c-1.2,0-2.3,0.1-3.4,0.3c-1.3,0.2-2.6,0.6-3.7,1.1l-0.1,0.8
		h14.4L32,42.5"/>
	<path class="st1" d="M13.9,45.1c0-0.5,0.1-0.9,0.1-1.3c0-0.3,0.2-0.5,0.5-0.5l0.5,0l1.5-5.2c-2.8,1.2-5.3,3.1-7.4,5.4
		c1.1,1,2.4,1.9,3.7,2.6C13.1,45.8,13.5,45.5,13.9,45.1"/>
	<path d="M36.3,46.1c0.1,0.5,0.1,0.6,0.1,0.6c0.3-0.2,0.6-0.3,0.9-0.5c-0.3-0.4-0.7-0.7-1.1-1L36.3,46.1"/>
	<path class="st2" d="M32,42.5l0.2,0.7h3l-1.6-5.2c-0.4-0.2-0.8-0.3-1.2-0.5l-1.8,0.4L32,42.5"/>
	<path class="st3" d="M15,44.3C15,44.3,15,44.3,15,44.3L15,44.3C15,44.3,15,44.3,15,44.3"/>
	<path class="st2" d="M35.2,44.3L35.2,44.3C35.1,44.3,35.2,44.3,35.2,44.3C35.2,44.3,35.2,44.3,35.2,44.3"/>
	<path class="st2" d="M35.1,44.2l-10.1,0l0,5.3c3.8,0,7.3-0.8,10.5-2.4c-0.2-0.9-0.2-1.9-0.3-2.8C35.3,44.3,35.1,44.2,35.1,44.2"/>
	<path class="st3" d="M25,44.3c0,0-10.1,0-10.2,0c0,1-0.2,2.1-0.3,2.9c3.2,1.5,6.7,2.4,10.5,2.4L25,44.3L25,44.3"/>
	<path class="st4" d="M25.1,43.8L25.1,43.8l0,0.5h0V43.8z"/>
	<path class="st1" d="M32.1,39.8c-0.1-0.1-0.1-0.2-0.2-0.3C31.9,39.6,32,39.7,32.1,39.8"/>
	<path class="st2" d="M32.6,40.4C32.6,40.4,32.6,40.4,32.6,40.4C32.6,40.4,32.6,40.4,32.6,40.4s-0.2-0.2-0.6-0.6
		C32.4,40.2,32.6,40.4,32.6,40.4"/>
	<path class="st5" d="M40.1,18.3L40.1,18.3L40.1,18.3"/>
	<path class="st5" d="M41.1,25.3C41.1,25.3,41.1,25.3,41.1,25.3C41.1,25.3,41.1,25.3,41.1,25.3"/>
	<path class="st6" d="M41.1,25.3C41.1,25.3,41.1,25.3,41.1,25.3C41.1,25.3,41.1,25.3,41.1,25.3"/>
	<path class="st7" d="M41,24.9C41,24.9,41,24.9,41,24.9C41,24.9,41.1,24.9,41,24.9L41,24.9c0,0.1,0,0.2,0,0.3c0,0,0,0,0,0.1
		c0,0,0,0,0,0c0,0,0,0,0,0c0,0,0,0,0,0.1c0,0.1,0,0.2,0,0.3v0c0,0,0,0,0,0c0,0,0,0,0,0c0,0.1,0,0.2-0.1,0.3c0,0,0,0,0,0v0l0,0
		c0,0,0,0,0,0v0l0.6-0.7L41,24.6c0,0,0,0,0,0C41,24.7,41,24.8,41,24.9"/>
	<path d="M41,25.7C41,25.7,41,25.6,41,25.7c0-0.1,0-0.2,0-0.3c0,0,0,0,0-0.1c0,0,0,0,0-0.1c0-0.1,0-0.2,0-0.3c0,0,0,0,0,0
		c0-0.1,0-0.2-0.1-0.3c0,0,0-0.1,0-0.1c-0.1-0.2-0.1-0.4-0.2-0.5c0,0,0,0,0-0.1c0,0-0.1-0.1-0.1-0.1c0,0-0.1-0.1-0.1-0.1
		c0,0,0,0-0.1,0c0,0-0.1,0-0.1-0.1c0,0,0,0-0.1,0c-0.1,0-0.1,0-0.2,0s-0.1,0-0.2,0c0,0,0,0-0.1,0c0,0-0.1,0-0.1,0.1c0,0,0,0-0.1,0
		c0,0-0.1,0.1-0.1,0.1c0,0-0.1,0.1-0.1,0.1c0,0,0,0,0,0.1c-0.1,0.1-0.2,0.3-0.2,0.5c0,0,0,0,0,0c0,0.1,0,0.2-0.1,0.3
		c0,0,0,0.1,0,0.1c0,0.1,0,0.2,0,0.3c0,0,0,0,0,0h0c0,0.9,0.4,1.7,1,1.7c0.1,0,0.2,0,0.3-0.1c0,0,0,0,0,0c0,0,0.1,0,0.1-0.1
		c0,0,0,0,0.1,0c0,0,0.1-0.1,0.1-0.1c0,0,0.1-0.1,0.1-0.1c0,0,0-0.1,0-0.1c0-0.1,0.1-0.1,0.1-0.2c0,0,0,0,0-0.1
		c0-0.1,0.1-0.2,0.1-0.2C41,25.9,41,25.8,41,25.7L41,25.7z M40.1,25.1c-0.2,0-0.4-0.3-0.4-0.6c0-0.3,0.2-0.6,0.4-0.6
		s0.4,0.3,0.4,0.6C40.5,24.8,40.3,25.1,40.1,25.1L40.1,25.1z"/>
	<path class="st5" d="M40.1,23.8c-0.2,0-0.4,0.3-0.4,0.6c0,0.3,0.2,0.6,0.4,0.6s0.4-0.3,0.4-0.6C40.5,24.1,40.3,23.8,40.1,23.8"/>
	<path class="st8" d="M39.2,24.5L39.2,24.5c0.1-0.2,0.1-0.4,0.2-0.5c0,0,0,0,0-0.1c0,0,0.1-0.1,0.1-0.1c0,0,0.1-0.1,0.1-0.1
		c0,0,0,0,0.1,0c0,0,0.1,0,0.1-0.1c0,0,0,0,0.1,0c0.1,0,0.1,0,0.2,0s0.1,0,0.2,0c0,0,0,0,0.1,0c0,0,0.1,0,0.1,0.1c0,0,0,0,0.1,0
		c0,0,0.1,0.1,0.1,0.1c0,0,0.1,0.1,0.1,0.1c0,0,0,0,0,0.1c0.1,0.1,0.2,0.3,0.2,0.5v0l-0.9-4L39.2,24.5L39.2,24.5"/>
	<path d="M28.6,25.2c0-0.1,0-0.2,0-0.2c0,0,0,0,0,0c0-0.1,0-0.2,0-0.2c0,0,0,0,0,0c0-0.1,0-0.1-0.1-0.2c0,0,0,0,0,0
		c0-0.1-0.1-0.1-0.1-0.2c0,0,0,0,0,0c0-0.1-0.1-0.1-0.1-0.2c-0.1-0.2-0.3-0.4-0.4-0.5c-0.2-0.2-0.4-0.4-0.7-0.5c0,0,0,0,0,0
		c-0.1-0.1-0.3-0.1-0.4-0.1c0,0,0,0,0,0c-0.1,0-0.3,0-0.4,0c-0.1,0-0.3,0-0.4,0c0,0,0,0,0,0c-0.1,0-0.3,0.1-0.4,0.1c0,0,0,0,0,0
		c-0.1,0.1-0.3,0.1-0.4,0.2c0,0,0,0,0,0c-0.1,0.1-0.2,0.2-0.3,0.3l0,0l0,0c-0.2,0.2-0.3,0.3-0.4,0.5c0,0,0,0,0,0
		c0,0.1-0.1,0.1-0.1,0.2c0,0,0,0,0,0c0,0.1,0,0.1-0.1,0.2c0,0,0,0,0,0c0,0.1,0,0.1,0,0.2c0,0,0,0,0,0.1c0,0.1,0,0.1,0,0.2
		c0,0,0,0,0,0.1c0,0.1,0,0.2,0,0.2c0,0.2,0,0.3,0,0.4c0,0,0,0,0,0c0,0.1,0.1,0.3,0.1,0.4c0,0,0,0,0,0c0.1,0.3,0.3,0.5,0.5,0.7
		c0.2,0.2,0.3,0.3,0.5,0.4c0,0,0,0,0,0c0.1,0,0.1,0.1,0.2,0.1c0,0,0,0,0,0c0.1,0,0.1,0,0.2,0.1c0,0,0,0,0,0c0.1,0,0.1,0,0.2,0
		c0,0,0,0,0,0c0.1,0,0.1,0,0.2,0c0,0,0,0,0.1,0c0.1,0,0.2,0,0.2,0c0.3,0,0.6-0.1,0.9-0.2c0.1-0.1,0.3-0.1,0.4-0.2
		c0.2-0.2,0.5-0.4,0.6-0.6c0.1-0.1,0.2-0.3,0.2-0.4C28.5,25.9,28.6,25.6,28.6,25.2C28.6,25.3,28.6,25.3,28.6,25.2
		C28.6,25.3,28.6,25.3,28.6,25.2L28.6,25.2z M26.3,25c-0.5,0-0.9-0.4-0.9-0.9c0-0.5,0.4-0.9,0.9-0.9c0.5,0,0.9,0.4,0.9,0.9
		C27.1,24.6,26.7,25,26.3,25L26.3,25z"/>
	<path class="st5" d="M26.3,23.2c-0.5,0-0.9,0.4-0.9,0.9c0,0.5,0.4,0.9,0.9,0.9c0.5,0,0.9-0.4,0.9-0.9
		C27.1,23.6,26.7,23.2,26.3,23.2"/>
	<path class="st6" d="M24.7,23.6L24.7,23.6L24.7,23.6L24.7,23.6l1.6-4.9v-1.1c0,0,0,0,0,0c-0.9-0.2-1.8-0.3-2.7-0.3
		c-0.3,0-0.6,0-0.9,0c0,0-0.1,0-0.1,0c-1.6,0.1-3.2,0.5-4.6,1.2c-1.2,0.6-2.4,1.3-3.4,2.2v0c0,0,0,0,0,0c-0.3,0.2-0.5,0.5-0.8,0.7
		c0,0-0.1,0.1-0.1,0.1c-0.2,0.2-0.5,0.5-0.7,0.8c0,0.1-0.1,0.1-0.1,0.2c-0.2,0.3-0.5,0.6-0.7,0.8c0,0,0,0-0.1,0.1
		c-0.2,0.3-0.4,0.6-0.6,0.8c0,0.1-0.1,0.1-0.1,0.2c-0.2,0.2-0.3,0.5-0.4,0.7H18L24.7,23.6"/>
	<path class="st9" d="M30.8,23.1c0-0.2,0-0.4,0-0.6c0-0.3,0-0.5,0-0.8c0-0.2,0-0.4,0-0.6c0-0.1,0-0.1,0-0.2c0-0.5,0-1-0.1-1.5
		c0,0,0,0,0,0c0,0,0,0,0,0c0,0,0,0,0,0c0,0,0,0,0,0c-0.1-0.1-0.3-0.2-0.5-0.3c0,0,0,0,0,0C30.1,19,30.1,19,30,19c0,0,0,0,0,0
		c0,0-0.1,0-0.1-0.1c0,0,0,0,0,0c0,0-0.1,0-0.1,0c-0.3-0.2-0.7-0.3-1-0.5c-0.8-0.3-1.9-0.7-2.6-0.8v1.1l1.6,4.9l0,0
		c0.2,0.2,0.3,0.3,0.4,0.5v0c0,0.1,0.1,0.1,0.1,0.2c0,0,0,0,0,0c0,0.1,0.1,0.1,0.1,0.2c0,0,0,0,0,0c0,0.1,0,0.1,0.1,0.2c0,0,0,0,0,0
		c0,0.1,0,0.2,0,0.2c0,0,0,0,0,0c0,0.1,0,0.2,0,0.2l0,0h1.9C30.6,24.6,30.7,23.8,30.8,23.1C30.8,23.1,30.8,23.1,30.8,23.1"/>
	<path class="st10" d="M33.3,21.3C33.3,21.4,33.3,21.4,33.3,21.3C33.3,21.4,33.3,21.4,33.3,21.3"/>
	<path class="st8" d="M24.7,23.6L24.7,23.6c0.1-0.1,0.2-0.2,0.3-0.3c0,0,0,0,0,0c0.1-0.1,0.2-0.1,0.4-0.2c0,0,0,0,0,0
		c0.1-0.1,0.3-0.1,0.4-0.1c0,0,0,0,0,0c0.1,0,0.3,0,0.4,0c0.2,0,0.3,0,0.4,0c0,0,0,0,0,0c0.1,0,0.3,0.1,0.4,0.1c0,0,0,0,0,0
		c0.3,0.1,0.5,0.3,0.7,0.5l0,0l-1.6-4.9L24.7,23.6"/>
	<path class="st7" d="M24.1,26.1C24.1,26,24,25.9,24,25.7c0,0,0,0,0,0c0-0.1,0-0.3,0-0.4c0-0.1,0-0.2,0-0.2c0,0,0,0,0-0.1
		c0-0.1,0-0.1,0-0.2c0,0,0,0,0-0.1c0-0.1,0-0.1,0-0.2c0,0,0,0,0,0c0-0.1,0-0.1,0.1-0.2c0,0,0,0,0,0c0-0.1,0.1-0.1,0.1-0.2
		c0,0,0,0,0,0c0.1-0.2,0.3-0.4,0.4-0.5L18,25.3h0l6.6,1.6C24.4,26.7,24.2,26.4,24.1,26.1C24.1,26.2,24.1,26.2,24.1,26.1"/>
	<path class="st9" d="M39.1,24.9C39.1,24.9,39.1,24.8,39.1,24.9c0-0.2,0.1-0.3,0.1-0.4c0,0,0,0,0,0l0.9-4l0-2.3
		c-0.7-0.6-1.5-0.9-2.3-0.9c-1,0-1.9,0.6-2.6,1.2c-0.8,0.7-1.4,1.7-1.8,2.6c0,0,0,0.1-0.1,0.1c0.1,0.1,0.3,0.3,0.4,0.4
		c0.3,0.3,0.6,0.6,1,0.9c0.1,0.1,0.3,0.3,0.4,0.4c0.2,0.2,0.3,0.3,0.5,0.5c0.2,0.2,0.4,0.4,0.6,0.6c0.1,0.1,0.2,0.2,0.2,0.3
		c0.2,0.3,0.5,0.5,0.7,0.8l0,0c0,0,0.1,0.1,0.1,0.1h2c0,0,0,0,0,0C39.1,25.1,39.1,25,39.1,24.9"/>
	<path class="st9" d="M33.3,21.4C33.3,21.4,33.3,21.4,33.3,21.4C33.3,21.4,33.3,21.4,33.3,21.4C33.3,21.4,33.3,21.4,33.3,21.4
		C33.3,21.4,33.3,21.4,33.3,21.4"/>
	<path class="st1" d="M9.6,27.8C9.6,27.8,9.6,27.7,9.6,27.8c0.1-0.4,0.3-0.7,0.4-1c0-0.1,0.1-0.2,0.1-0.3c0.1-0.3,0.2-0.5,0.4-0.8
		c0.1-0.1,0.1-0.2,0.2-0.3c0-0.1,0.1-0.1,0.1-0.2c0.1-0.2,0.3-0.5,0.4-0.7c0-0.1,0.1-0.1,0.1-0.2c0.2-0.3,0.4-0.6,0.6-0.8
		c0,0,0,0,0.1-0.1c0.2-0.3,0.4-0.6,0.7-0.8c0-0.1,0.1-0.1,0.1-0.2c0.2-0.3,0.5-0.5,0.7-0.8c0,0,0.1-0.1,0.1-0.1
		c0.3-0.3,0.5-0.5,0.8-0.7c0,0,0,0,0,0c1.1-3.7,4.6-5.9,8.6-5.9c1.6,0,3.2,0.5,4.6,1.3c1.4,0.9,2.4,1.7,3.1,3.2c0,0,0,0,0,0
		c0,0,0,0.1,0.1,0.1c0,0,0,0,0,0c0,0,0,0,0,0c0.6,0.4,1.2,0.8,1.8,1.3c0.2,0.2,0.4,0.3,0.6,0.5c0.1,0.1,0.1,0.1,0.2,0.2c0,0,0,0,0,0
		c0,0,0,0,0,0c0,0,0-0.1,0.1-0.1c0.6-3.5,2.3-5.5,4.2-5.5c1.4,0,2.4,0.8,3.2,3.1l0,0c0,0,0,0,0,0c0.2,0.2,0.4,0.5,0.6,0.8l0,0
		c0,0,0,0,0,0l0,0l0,0c0,0,0,0.1,0,0.1v0l0-0.1C39,12.8,32.6,8,25.1,8C15.6,8,8,15.6,8,25.1c0,1.9,0.3,3.7,0.9,5.3c0,0,0,0,0,0
		c0.1-0.5,0.2-1,0.4-1.5C9.3,28.5,9.4,28.1,9.6,27.8"/>
	<path class="st5" d="M41.6,25.3L41,26v0c0,0,0,0,0,0c0,0.1-0.1,0.2-0.1,0.2c0,0,0,0,0,0.1c0,0.1,0,0.1-0.1,0.2c0,0,0,0.1,0,0.1
		c0,0-0.1,0.1-0.1,0.1c0,0.1-0.1,0.1-0.1,0.1c0,0,0,0-0.1,0c0,0-0.1,0-0.1,0.1c0,0,0,0,0,0c-0.1,0-0.2,0.1-0.3,0.1
		c-0.5,0-1-0.8-1-1.7h-2c0,0,0,0,0,0c0.4,0.4,0.7,0.9,1.1,1.3c0,0,0,0,0,0c0.3,0.4,0.7,0.8,1,1.3c0,0,0,0,0,0.1
		c0.3,0.4,0.6,0.8,0.9,1.2c0,0,0.1,0.1,0.1,0.1c0.3,0.4,0.7,0.9,1,1.3c0,0,0,0,0,0c0.6-1.7,0.9-3.5,0.9-5.3L41.6,25.3L41.6,25.3"/>
	<path d="M22.5,17.4c0,0,0.1,0,0.1,0c0.3,0,0.6,0,0.9,0c0.9,0,1.8,0.1,2.7,0.3h0c0.6,0.1,1.7,0.5,2.6,0.8c0.3,0.1,0.7,0.3,1,0.5
		c0,0,0,0,0.1,0c0,0,0,0,0,0c0,0,0.1,0,0.1,0.1c0,0,0,0,0,0c0,0,0.1,0.1,0.1,0.1c0,0,0,0,0,0c0.2,0.1,0.4,0.3,0.5,0.3c0,0,0,0,0,0
		c0,0,0,0,0,0c0,0,0-0.1-0.1-0.1c0,0,0,0,0,0c-0.7-1.5-1.9-2.7-3.3-3.6c-1.4-0.8-3-1.3-4.6-1.3c-4,0-7.3,2.7-8.4,6.4
		c1-0.9,2.2-1.6,3.4-2.2C19.3,17.9,20.9,17.5,22.5,17.4"/>
	<path class="st6" d="M41.3,19.6L41.3,19.6L41.3,19.6C41.3,19.6,41.3,19.6,41.3,19.6L41.3,19.6c-0.2-0.3-0.4-0.6-0.6-0.8
		c0,0,0,0,0,0c0,0,0,0,0,0c0,0,0,0,0,0c-0.1-0.1-0.2-0.2-0.3-0.3c0,0-0.1-0.1-0.1-0.1c-0.1-0.1-0.1-0.1-0.2-0.2v2.3l0.9,4v0
		c0,0,0,0.1,0,0.1l0.6,0.7l0,0h0.6c0-0.1,0-0.1,0-0.2v0C42.2,23.2,41.9,21.4,41.3,19.6L41.3,19.6C41.4,19.7,41.3,19.7,41.3,19.6"/>
	<path d="M35.2,18.6c0.7-0.7,1.6-1.2,2.6-1.2c0.8,0,1.6,0.3,2.3,0.9c0,0,0,0,0,0v0v0c0.1,0.1,0.1,0.1,0.2,0.2c0,0,0.1,0.1,0.1,0.1
		c0.1,0.1,0.2,0.2,0.3,0.3c0,0,0,0,0,0c0,0,0,0,0,0l0,0l0,0c-0.8-2.2-2-3.7-3.4-3.7c-1.8,0-3.4,2.5-4,6.1l0,0
		C33.8,20.3,34.4,19.3,35.2,18.6"/>
	<path d="M32.7,40.3c0,0-0.2-0.2-0.6-0.6c-0.1-0.1-0.1-0.2-0.2-0.3c-0.1-0.1-0.1-0.2-0.2-0.2c0-0.1-0.1-0.1-0.1-0.2
		c-0.1-0.2-0.2-0.4-0.3-0.6c-0.1-0.3-0.1-0.4-0.2-0.7c0-0.2-0.1-0.4-0.1-0.5c0-0.3-0.1-0.6-0.1-0.9c0-0.2,0-0.4,0-0.5
		c0-0.2,0.1-0.4,0.1-0.5c0.1-0.6,0.4-1.1,0.8-1.8c0,0,0.1-0.2,0.1-0.2c0.1-0.2,0.1-0.2,0.3-0.4c1.6-2.8,2.5-4.8,2.1-8.1
		c0-0.2-0.1-0.7-0.2-1c0,0.2-0.1,0.7-0.1,0.7c0,0.1-0.1,0.2-0.1,0.2c-0.7,2.1-1.8,3.6-3.4,5.4c-0.2,0.2-0.4,0.5-0.7,0.7
		c-0.4,0.4-0.8,0.8-1.2,1.3c-0.2,0.2-0.4,0.3-0.5,0.5c-0.2,0.2-0.4,0.5-0.6,0.8c-0.2,0.4-0.3,0.9-0.5,1.4c-0.1,0-0.1,0-0.2-0.1
		c-3.1-1.2-5.2-2.8-5.2-2.8s1.6,2.1,4.3,4.1c0.3,0.2,0.5,0.4,0.8,0.5c-0.1,1.8,0.7,3.5,4.2,4c0.6,0.1,1.2,0.1,1.8,0
		C32.6,40.4,32.7,40.4,32.7,40.3C32.7,40.4,32.7,40.4,32.7,40.3"/>
	<path class="st11" d="M30.8,35.7c3.1,0.5,7.8,0.4,12.6-1.8c0.1-0.1,0.2,0.1,0.4,0c0,0-3.3,3.4-7.2,5.3c-0.1,0.1-0.2,0.1-0.3,0.2
		c-0.4,0.2-0.8,0.3-1.2,0.5c-0.8,0.3-1.5,0.5-2.3,0.6c0,0-0.1,0-0.1,0c0,0,0,0,0,0c0,0,0,0,0,0s-0.2-0.2-0.6-0.6
		c-0.1-0.1-0.1-0.2-0.2-0.3c-0.1-0.1-0.1-0.2-0.2-0.2c0-0.1-0.1-0.1-0.1-0.2c-0.1-0.2-0.2-0.4-0.3-0.6c-0.1-0.2-0.2-0.5-0.3-0.7
		c0-0.2-0.1-0.4-0.1-0.5c0-0.3-0.1-0.6-0.1-0.9C30.7,36.1,30.8,35.9,30.8,35.7L30.8,35.7"/>
	<path class="st10" d="M28.6,32.2c0.4-0.4,0.8-0.9,1.2-1.3c0.2-0.2,0.5-0.5,0.7-0.7c1.6-1.7,2.8-3.4,3.5-5.5c0,0,0-0.1,0-0.2
		c0,0,0,0,0,0c0-0.1,0-0.2,0-0.3c0-0.1,0.2-0.2,0.2-0.3c-0.2-0.9-0.6-1.9-1-2.6c0,0,0,0,0,0c0,0,0,0,0,0c-0.1-0.1-0.1-0.1-0.2-0.2
		c-0.2-0.2-0.4-0.3-0.6-0.5c-0.6-0.5-1.2-0.9-1.8-1.3c0,0.5,0.1,1,0.1,1.5c0,0.1,0,0.1,0,0.2c0,0.2,0,0.4,0,0.6c0,0.3,0,0.5,0,0.8
		c0,0.2,0,0.4,0,0.6c0,0,0,0,0,0.1c-0.1,0.7-0.1,1.4-0.3,2.1l-0.2,1.1c-0.5,1.9-1.4,3.7-2.2,5.4c-0.2,0.5-0.4,1-0.6,1.4
		c0,0,0,0.1,0,0.1c0.2-0.3,0.5-0.5,0.6-0.6C28.2,32.5,28.4,32.4,28.6,32.2"/>
	<path class="st1" d="M18.2,42.5c1.1-0.5,2.2-0.8,3.5-1.1c0-0.3,0-0.5,0-0.8c0.5-1.4,1-2.8,1.5-4.2c-0.8,0.1-1.6,0.2-2.4,0.4
		c-0.6,0.1-1.2,0.3-1.7,0.5c-0.5,0.1-0.9,0.3-1.4,0.5l1.8,0.4L18,42.6L18.2,42.5"/>
	<path class="st12" d="M40.3,29.1c-0.3-0.4-0.6-0.8-0.9-1.2c0,0,0,0,0-0.1c-0.3-0.4-0.7-0.9-1-1.3c0,0,0,0,0,0
		c-0.4-0.4-0.7-0.9-1.1-1.3c0,0,0-0.1-0.1-0.1c-0.2-0.3-0.5-0.5-0.7-0.8c-0.1-0.1-0.2-0.2-0.2-0.3c-0.2-0.2-0.4-0.4-0.6-0.6
		c-0.2-0.2-0.3-0.3-0.5-0.5c-0.1-0.1-0.3-0.3-0.4-0.4c-0.3-0.3-0.6-0.6-1-0.9c-0.1-0.1-0.3-0.3-0.4-0.4c0,0,0,0,0,0
		c0.3,0.9,0.7,1.8,0.8,2.7c0,0.2,0.1,0.5,0.1,0.7c0.4,3.2-0.6,5.3-2.2,8.1c-0.1,0.2-0.2,0.4-0.4,0.6c-0.4,0.6-0.6,1.2-0.8,1.8
		c0,0.2-0.1,0.4-0.1,0.5c3.2,0.5,8,0.6,13-1.8c0,0-1-1.4-2.4-3.4c-0.3-0.4-0.7-0.9-1-1.3C40.3,29.2,40.3,29.2,40.3,29.1"/>
	<path class="st2" d="M17.8,43.4l1.6-5.3l-1.8-0.4c-0.4,0.1-0.8,0.3-1.2,0.5l-1.6,5.3l1.8,0L17.8,43.4"/>
	<path class="st5" d="M19,41.1c0.2,0.1,0.3,0.1,0.5,0.2c1.8,0.6,3.7,1,5.7,1c2.3,0,4.4-0.4,6.4-1.2c0.1,0,0.2-0.1,0.3-0.1
		c0.2-0.1,0.3-0.1,0.5-0.2c0.1-0.1,0.3-0.1,0.4-0.2c0,0-0.1,0-0.1,0c-0.6,0.1-1.2,0.1-1.8,0c-3.5-0.5-4.3-2.2-4.2-4
		c-0.3-0.1-0.5-0.3-0.8-0.5c-2.7-2-4.3-4.1-4.3-4.1s2.1,1.6,5.2,2.8c0.1,0,0.1,0,0.2,0.1c0.1-0.5,0.3-1,0.5-1.4c0,0,0-0.1,0-0.1
		c0.2-0.5,0.4-1,0.6-1.4c0.8-1.8,1.7-3.5,2.2-5.4l0.2-1.1h-1.9l0,0c0,0,0,0,0,0l0,0c0,0,0,0,0,0c0,0.3-0.1,0.6-0.2,0.9
		c-0.1,0.1-0.1,0.3-0.2,0.4c-0.2,0.2-0.4,0.5-0.6,0.6c-0.1,0.1-0.3,0.2-0.4,0.2c-0.3,0.1-0.6,0.2-0.9,0.2c-0.1,0-0.2,0-0.2,0
		c0,0,0,0-0.1,0c-0.1,0-0.1,0-0.2,0c0,0,0,0,0,0c-0.1,0-0.1,0-0.2,0c0,0,0,0,0,0c-0.1,0-0.1,0-0.2-0.1c0,0,0,0,0,0
		c-0.1,0-0.1-0.1-0.2-0.1l0,0c-0.2-0.1-0.4-0.3-0.5-0.4L18,25.3h-7.2c0,0.1-0.1,0.1-0.1,0.2c-0.1,0.1-0.1,0.2-0.2,0.3
		c-0.1,0.2-0.3,0.5-0.4,0.8c0,0.1-0.1,0.2-0.1,0.3c-0.1,0.3-0.3,0.6-0.4,1c0,0,0,0,0,0c-0.1,0.4-0.3,0.8-0.4,1.1
		c-0.2,0.5-0.3,1-0.4,1.5c1.1,3.5,3.3,6.4,6.2,8.5c0.1,0.1,0.2,0.1,0.3,0.2c0.5,0.3,1,0.7,1.5,1C17.5,40.5,18.2,40.8,19,41.1"/>
	<path class="st13" d="M36.2,45.2c0-0.5-0.1-0.9-0.1-1.4c0-0.3-0.2-0.5-0.5-0.5H14.5c-0.3,0-0.5,0.2-0.5,0.5c0,0.5,0,0.9-0.1,1.4
		c0,0.5-0.1,1-0.2,1.5c0.3,0.2,0.6,0.3,0.9,0.5c0.2-0.9,0.3-1.8,0.4-2.8c0,0,0,0,0,0h20.2c0,0,0,0,0,0c0,1,0.2,1.9,0.4,2.8
		c0.3-0.2,0.6-0.3,0.9-0.5C36.4,46.2,36.3,45.7,36.2,45.2"/>
</g>
</svg>
