<?xml version="1.0" encoding="utf-8"?>
<!-- Generator: Adobe Illustrator 22.0.1, SVG Export Plug-In . SVG Version: 6.00 Build 0)  -->
<svg version="1.1" id="Layer_1" xmlns="http://www.w3.org/2000/svg" xmlns:xlink="http://www.w3.org/1999/xlink" x="0px" y="0px"
	 viewBox="0 0 50 50" style="enable-background:new 0 0 50 50;" xml:space="preserve">
<style type="text/css">
	.st0{fill:url(#SVGID_1_);}
	.st1{fill:url(#SVGID_2_);}
</style>
<g>
	
		<linearGradient id="SVGID_1_" gradientUnits="userSpaceOnUse" x1="-222.7908" y1="274.2915" x2="-222.6634" y2="274.1651" gradientTransform="matrix(189.3834 0 0 -189.8058 42198.0313 52067.0586)">
		<stop  offset="0" style="stop-color:#387EB8"/>
		<stop  offset="1" style="stop-color:#366994"/>
	</linearGradient>
	<path class="st0" d="M24.8,0.5c-12.4,0-11.6,5.4-11.6,5.4l0,5.6H25v1.7H8.5c0,0-7.9-0.9-7.9,11.6c0,12.5,6.9,12.1,6.9,12.1h4.1
		v-5.8c0,0-0.2-6.9,6.8-6.9h11.7c0,0,6.6,0.1,6.6-6.4V6.9C36.7,6.9,37.7,0.5,24.8,0.5L24.8,0.5L24.8,0.5z M18.3,4.2
		c1.2,0,2.1,1,2.1,2.1s-1,2.1-2.1,2.1c-1.2,0-2.1-1-2.1-2.1C16.2,5.2,17.1,4.2,18.3,4.2L18.3,4.2L18.3,4.2z"/>
	
		<linearGradient id="SVGID_2_" gradientUnits="userSpaceOnUse" x1="-223.0609" y1="274.549" x2="-222.9241" y2="274.4194" gradientTransform="matrix(189.3834 0 0 -189.8058 42264.0313 52131.3203)">
		<stop  offset="0" style="stop-color:#FFE052"/>
		<stop  offset="1" style="stop-color:#FFC331"/>
	</linearGradient>
	<path class="st1" d="M25.2,49c12.4,0,11.6-5.4,11.6-5.4l0-5.6H24.9v-1.7h16.5c0,0,7.9,0.9,7.9-11.6c0-12.5-6.9-12.1-6.9-12.1h-4.1
		v5.8c0,0,0.2,6.9-6.8,6.9H19.8c0,0-6.6-0.1-6.6,6.4v10.7C13.2,42.5,12.2,49,25.2,49L25.2,49L25.2,49z M31.7,45.3
		c-1.2,0-2.1-1-2.1-2.1s1-2.1,2.1-2.1c1.2,0,2.1,1,2.1,2.1S32.8,45.3,31.7,45.3L31.7,45.3L31.7,45.3z"/>
</g>
</svg>
