<?xml version="1.0" encoding="utf-8"?>
<!-- Generator: Adobe Illustrator 22.0.1, SVG Export Plug-In . SVG Version: 6.00 Build 0)  -->
<svg version="1.1" id="Layer_1" xmlns="http://www.w3.org/2000/svg" xmlns:xlink="http://www.w3.org/1999/xlink" x="0px" y="0px"
	 viewBox="0 0 50 50" style="enable-background:new 0 0 50 50;" xml:space="preserve">
<style type="text/css">
	.st0{fill:#61DAFB;}
</style>
<g>
	<path class="st0" d="M49.8,25.3c0-3.3-4.1-6.4-10.4-8.3c1.4-6.4,0.8-11.5-2-13.1c-0.7-0.4-1.4-0.6-2.3-0.6v2.2
		c0.5,0,0.8,0.1,1.1,0.3c1.4,0.8,2,3.8,1.5,7.6c-0.1,0.9-0.3,1.9-0.5,3c-2-0.5-4.1-0.9-6.4-1.1c-1.4-1.9-2.8-3.6-4.2-5
		c3.3-3,6.4-4.7,8.5-4.7V3.3c-2.8,0-6.4,2-10.1,5.4C21.4,5.3,17.8,3.3,15,3.3v2.2c2.1,0,5.2,1.7,8.5,4.7c-1.4,1.5-2.8,3.2-4.2,5
		c-2.3,0.2-4.4,0.6-6.4,1.1c-0.2-1-0.4-2-0.5-2.9c-0.5-3.8,0.1-6.8,1.5-7.6c0.3-0.2,0.7-0.3,1.2-0.3V3.3c-0.8,0-1.6,0.2-2.3,0.6
		c-2.8,1.6-3.5,6.7-2,13.1c-6.3,1.9-10.3,5-10.3,8.3c0,3.3,4.1,6.4,10.4,8.3c-1.4,6.4-0.8,11.5,2,13.1c0.7,0.4,1.4,0.6,2.3,0.6
		c2.8,0,6.4-2,10.1-5.4c3.7,3.4,7.3,5.4,10.1,5.4c0.8,0,1.6-0.2,2.3-0.6c2.8-1.6,3.5-6.7,2-13.1C45.7,31.6,49.8,28.5,49.8,25.3
		L49.8,25.3z M36.7,18.6c-0.4,1.3-0.8,2.6-1.4,4c-0.4-0.8-0.8-1.6-1.3-2.4c-0.5-0.8-1-1.6-1.4-2.4C34,18,35.4,18.2,36.7,18.6
		L36.7,18.6z M32.1,29.3c-0.8,1.4-1.6,2.6-2.4,3.8c-1.5,0.1-3,0.2-4.5,0.2c-1.5,0-3-0.1-4.5-0.2c-0.8-1.2-1.7-2.5-2.4-3.8
		c-0.8-1.3-1.5-2.7-2.1-4c0.6-1.3,1.3-2.7,2.1-4c0.8-1.4,1.6-2.6,2.4-3.8c1.5-0.1,3-0.2,4.5-0.2c1.5,0,3,0.1,4.5,0.2
		c0.8,1.2,1.7,2.5,2.4,3.8c0.8,1.3,1.5,2.7,2.1,4C33.5,26.6,32.8,28,32.1,29.3L32.1,29.3z M35.3,28c0.5,1.3,1,2.7,1.4,4
		c-1.3,0.3-2.7,0.6-4.1,0.8c0.5-0.8,1-1.6,1.4-2.4C34.5,29.6,34.9,28.8,35.3,28L35.3,28z M25.1,38.7c-0.9-1-1.9-2-2.8-3.2
		c0.9,0,1.8,0.1,2.8,0.1c0.9,0,1.9,0,2.8-0.1C27,36.7,26,37.7,25.1,38.7z M17.6,32.8c-1.4-0.2-2.8-0.5-4.1-0.8
		c0.4-1.3,0.8-2.6,1.4-4c0.4,0.8,0.8,1.6,1.3,2.4C16.7,31.2,17.1,32,17.6,32.8z M25.1,11.8c0.9,1,1.9,2,2.8,3.2C27,15,26,15,25.1,15
		c-0.9,0-1.9,0-2.8,0.1C23.2,13.9,24.1,12.8,25.1,11.8z M17.6,17.8c-0.5,0.8-1,1.6-1.4,2.4c-0.5,0.8-0.9,1.6-1.3,2.4
		c-0.5-1.3-1-2.7-1.4-4C14.8,18.3,16.2,18,17.6,17.8L17.6,17.8z M8.5,30.4c-3.6-1.5-5.9-3.5-5.9-5.1s2.3-3.6,5.9-5.1
		c0.9-0.4,1.8-0.7,2.8-1c0.6,2,1.3,4,2.3,6.1c-0.9,2.1-1.7,4.1-2.2,6.1C10.3,31.1,9.4,30.7,8.5,30.4L8.5,30.4z M13.9,44.7
		c-1.4-0.8-2-3.8-1.5-7.6c0.1-0.9,0.3-1.9,0.5-3c2,0.5,4.1,0.9,6.4,1.1c1.4,1.9,2.8,3.6,4.2,5c-3.3,3-6.4,4.7-8.5,4.7
		C14.6,45,14.2,44.9,13.9,44.7L13.9,44.7z M37.8,37.1c0.5,3.8-0.1,6.8-1.5,7.6C36,44.9,35.6,45,35.2,45c-2.1,0-5.2-1.7-8.5-4.7
		c1.4-1.5,2.8-3.2,4.2-5c2.3-0.2,4.4-0.6,6.4-1.1C37.5,35.2,37.7,36.1,37.8,37.1z M41.7,30.4c-0.9,0.4-1.8,0.7-2.8,1
		c-0.6-2-1.3-4-2.3-6.1c0.9-2.1,1.7-4.1,2.2-6.1c1,0.3,1.9,0.7,2.8,1c3.6,1.5,5.9,3.5,5.9,5.1C47.5,26.9,45.2,28.9,41.7,30.4
		L41.7,30.4z"/>
	<circle class="st0" cx="25.1" cy="25.3" r="4.6"/>
</g>
</svg>
