<?xml version="1.0" encoding="utf-8"?>
<!-- Generator: Adobe Illustrator 22.0.1, SVG Export Plug-In . SVG Version: 6.00 Build 0)  -->
<svg version="1.1" id="Layer_1" xmlns="http://www.w3.org/2000/svg" xmlns:xlink="http://www.w3.org/1999/xlink" x="0px" y="0px"
	 viewBox="0 0 50 50" style="enable-background:new 0 0 50 50;" xml:space="preserve">
<style type="text/css">
	.st0{fill:#00D8FF;}
</style>
<g>
	<path class="st0" d="M40.7,17.2c-0.5-0.2-1-0.3-1.6-0.5c0.1-0.4,0.2-0.7,0.2-1.1c1.2-5.8,0.4-10.4-2.2-12
		c-2.6-1.5-6.7,0.1-10.9,3.7c-0.4,0.4-0.8,0.7-1.2,1.1c-0.3-0.3-0.5-0.5-0.8-0.7c-4.4-3.9-8.8-5.6-11.5-4c-2.5,1.5-3.3,5.9-2.2,11.3
		c0.1,0.5,0.2,1.1,0.4,1.6c-0.6,0.2-1.2,0.4-1.8,0.6c-5.2,1.8-8.5,4.6-8.5,7.6c0,3,3.5,6.1,8.9,7.9c0.4,0.1,0.9,0.3,1.3,0.4
		c-0.1,0.6-0.3,1.2-0.4,1.7c-1,5.4-0.2,9.7,2.3,11.1c2.6,1.5,7,0,11.3-3.8c0.3-0.3,0.7-0.6,1-0.9c0.4,0.4,0.9,0.8,1.3,1.2
		c4.2,3.6,8.3,5,10.8,3.5c2.6-1.5,3.5-6.1,2.4-11.7c-0.1-0.4-0.2-0.9-0.3-1.3c0.3-0.1,0.6-0.2,0.9-0.3c5.6-1.9,9.3-4.9,9.3-7.9
		C49.4,21.9,46,19,40.7,17.2L40.7,17.2z M39.5,30.8C39.3,30.9,39,31,38.7,31c-0.6-2-1.5-4-2.5-6.2c1-2.1,1.8-4.2,2.4-6.1
		c0.5,0.1,1,0.3,1.5,0.5c4.5,1.6,7.3,3.9,7.3,5.6C47.3,26.7,44.4,29.2,39.5,30.8L39.5,30.8z M37.5,34.8c0.5,2.5,0.6,4.7,0.2,6.5
		c-0.3,1.6-0.9,2.6-1.6,3c-1.5,0.9-4.8-0.3-8.4-3.3c-0.4-0.4-0.8-0.7-1.2-1.1c1.4-1.5,2.8-3.3,4.1-5.2c2.4-0.2,4.6-0.6,6.6-1
		C37.4,34,37.4,34.4,37.5,34.8L37.5,34.8z M17.2,44.1c-1.5,0.5-2.7,0.5-3.4,0.1c-1.5-0.9-2.2-4.3-1.3-8.9c0.1-0.5,0.2-1.1,0.4-1.6
		c2,0.4,4.2,0.8,6.6,1c1.4,1.9,2.8,3.7,4.2,5.2c-0.3,0.3-0.6,0.6-0.9,0.9C20.8,42.3,18.9,43.5,17.2,44.1L17.2,44.1z M10.2,30.8
		c-2.4-0.8-4.4-1.9-5.7-3c-1.2-1-1.8-2.1-1.8-2.9c0-1.8,2.7-4.1,7.1-5.6c0.5-0.2,1.1-0.4,1.7-0.5c0.6,2,1.4,4.1,2.4,6.2
		c-1,2.1-1.8,4.2-2.4,6.3C11,31,10.5,30.9,10.2,30.8L10.2,30.8z M12.5,14.7c-0.9-4.7-0.3-8.2,1.2-9.1C15.4,4.6,19,6,22.8,9.3
		c0.2,0.2,0.5,0.4,0.7,0.7c-1.4,1.5-2.8,3.3-4.2,5.2c-2.3,0.2-4.5,0.6-6.5,1C12.7,15.7,12.6,15.2,12.5,14.7L12.5,14.7z M33.6,19.9
		c-0.5-0.8-1-1.7-1.5-2.4c1.6,0.2,3.1,0.5,4.5,0.8c-0.4,1.4-0.9,2.8-1.6,4.2C34.6,21.6,34.1,20.7,33.6,19.9L33.6,19.9z M25,11.5
		c1,1,1.9,2.2,2.9,3.5c-1,0-1.9-0.1-2.9-0.1c-1,0-1.9,0-2.9,0.1C23.1,13.7,24,12.6,25,11.5L25,11.5z M16.4,19.9
		c-0.5,0.8-0.9,1.7-1.4,2.5c-0.6-1.4-1.1-2.9-1.6-4.2c1.4-0.3,2.9-0.6,4.4-0.8C17.3,18.2,16.8,19.1,16.4,19.9L16.4,19.9L16.4,19.9z
		 M17.9,32.4c-1.6-0.2-3.1-0.4-4.5-0.7c0.4-1.4,1-2.8,1.6-4.3c0.4,0.8,0.9,1.7,1.4,2.5h0C16.9,30.7,17.4,31.6,17.9,32.4L17.9,32.4z
		 M25.1,38.3c-1-1.1-2-2.2-2.9-3.5c0.9,0,1.9,0.1,2.9,0.1c1,0,2,0,3-0.1C27,36.1,26,37.3,25.1,38.3L25.1,38.3z M35,27.3
		c0.7,1.5,1.2,2.9,1.6,4.3c-1.4,0.3-2.9,0.6-4.6,0.8c0.5-0.8,1-1.6,1.5-2.5C34.1,29,34.6,28.1,35,27.3L35,27.3z M31.8,28.8
		c-0.8,1.3-1.5,2.6-2.3,3.8c-1.5,0.1-2.9,0.2-4.5,0.2c-1.5,0-3,0-4.4-0.1c-0.8-1.2-1.6-2.5-2.4-3.8h0c-0.8-1.3-1.5-2.6-2.1-3.9
		c0.6-1.3,1.3-2.6,2.1-3.9l0,0c0.8-1.3,1.5-2.6,2.4-3.8C22,17.1,23.5,17,25,17h0c1.5,0,3,0.1,4.5,0.2c0.8,1.2,1.6,2.5,2.4,3.8
		c0.8,1.3,1.5,2.6,2.1,3.9C33.3,26.2,32.6,27.5,31.8,28.8L31.8,28.8z M36.1,5.5c1.6,0.9,2.3,4.8,1.2,9.7c-0.1,0.3-0.1,0.6-0.2,1
		c-2-0.5-4.2-0.8-6.5-1c-1.3-1.9-2.7-3.7-4.1-5.2c0.4-0.4,0.8-0.7,1.1-1C31.2,5.8,34.6,4.6,36.1,5.5L36.1,5.5z M25,20.5
		c2.4,0,4.4,2,4.4,4.4c0,2.4-2,4.4-4.4,4.4c-2.4,0-4.4-2-4.4-4.4C20.6,22.4,22.6,20.5,25,20.5L25,20.5z"/>
</g>
</svg>
