<?xml version="1.0" encoding="utf-8"?>
<!-- Generator: Adobe Illustrator 22.0.1, SVG Export Plug-In . SVG Version: 6.00 Build 0)  -->
<svg version="1.1" id="Layer_1" xmlns="http://www.w3.org/2000/svg" xmlns:xlink="http://www.w3.org/1999/xlink" x="0px" y="0px"
	 viewBox="0 0 50 50" style="enable-background:new 0 0 50 50;" xml:space="preserve">
<style type="text/css">
	.st0{fill:#CC0000;}
</style>
<path class="st0" d="M43.3,29.7v2.3h4.1c0.8,0,2.3-0.6,2.3-2.3v-0.9c0-1.5-1.2-2.3-2.3-2.3h-2v-1h4v-2.3h-3.9c-1,0-2.3,0.8-2.3,2.4
	v0.8c0,1.5,1.3,2.3,2.3,2.3c2.8,0-0.7,0,1.9,0v1.1 M21.4,29.1c0,0,2.2-0.2,2.2-3S20.9,23,20.9,23h-4.8v8.9h2.4v-2.1l2.1,2.1h3.5
	L21.4,29.1L21.4,29.1z M20.5,27.3h-1.9v-2h1.9c0,0,0.5,0.2,0.5,1S20.5,27.3,20.5,27.3L20.5,27.3z M29.5,23.1h-2.4
	c-1.7,0-2.3,1.6-2.3,2.3v6.5h2.4v-1.6h2.3v1.6h2.4v-6.5C31.8,23.5,30.1,23.1,29.5,23.1L29.5,23.1z M29.5,27.9h-2.3v-2.2
	c0,0,0-0.5,0.8-0.5h0.8c0.7,0,0.7,0.5,0.7,0.5L29.5,27.9L29.5,27.9L29.5,27.9z M32.9,23.1h2.5v8.8h-2.5V23.1z M39,29.7v-6.6h-2.5
	v8.8h5.9v-2.3L39,29.7z"/>
<path class="st0" d="M1.1,31.9H11c0,0-1.9-8.6,4.4-12.1c1.4-0.7,5.7-3.1,12.8,2.1c0.2-0.2,0.4-0.3,0.4-0.3s-6.5-6.5-13.7-5.8
	c-3.6,0.3-8.1,3.6-10.7,8S1.1,31.9,1.1,31.9z"/>
<path class="st0" d="M1.1,31.9H11c0,0-1.9-8.6,4.4-12.1c1.4-0.7,5.7-3.1,12.8,2.1c0.2-0.2,0.4-0.3,0.4-0.3s-6.5-6.5-13.7-5.8
	c-3.6,0.3-8.1,3.6-10.7,8S1.1,31.9,1.1,31.9z"/>
<path class="st0" d="M1.1,31.9H11c0,0-1.9-8.6,4.4-12.1c1.4-0.7,5.7-3.1,12.8,2.1c0.2-0.2,0.4-0.3,0.4-0.3s-6.5-6.5-13.7-5.8
	c-3.6,0.3-8.1,3.6-10.7,8S1.1,31.9,1.1,31.9z M21.7,16.6l0-0.8c-0.1-0.1-0.4-0.2-1.2-0.4l0,0.8C20.9,16.3,21.3,16.4,21.7,16.6z"/>
<path class="st0" d="M20.5,19.2l0,0.8c0.4,0,0.8,0.1,1.2,0.1l0-0.8C21.3,19.3,20.9,19.2,20.5,19.2z M15.9,15.3H16l-0.2-0.8
	c-0.4,0-0.8,0-1.2,0.1l0.2,0.7C15.1,15.3,15.5,15.3,15.9,15.3z M16.5,19.9l0.3,0.9c0.4-0.2,0.7-0.3,1.1-0.4l-0.3-0.8
	C17.1,19.6,16.8,19.8,16.5,19.9L16.5,19.9z M10.8,16.6l-0.6-0.9c-0.3,0.2-0.6,0.3-1,0.5l0.6,0.9C10.2,17,10.5,16.8,10.8,16.6
	L10.8,16.6z M13.4,22.2l0.6,0.9c0.2-0.3,0.5-0.6,0.7-0.9l-0.6-0.8C13.8,21.7,13.6,22,13.4,22.2L13.4,22.2z M11.5,26.3l1,0.8
	c0-0.5,0.1-1,0.3-1.5l-0.9-0.7C11.8,25.4,11.6,25.8,11.5,26.3L11.5,26.3z M6.1,20.3l-0.9-0.8c-0.3,0.3-0.6,0.6-0.9,0.9l1,0.8
	C5.5,21,5.8,20.7,6.1,20.3L6.1,20.3z M2.3,25.9l-1.4-0.5c-0.2,0.5-0.5,1.2-0.6,1.5l1.4,0.5C1.8,27,2.1,26.4,2.3,25.9z M11.4,29.4
	c0,0.7,0.1,1.2,0.1,1.6l1.5,0.5c-0.1-0.5-0.2-1-0.3-1.6L11.4,29.4z"/>
</svg>
