<?xml version="1.0" encoding="utf-8"?>
<!-- Generator: Adobe Illustrator 22.0.1, SVG Export Plug-In . SVG Version: 6.00 Build 0)  -->
<svg version="1.1" id="Layer_1" xmlns="http://www.w3.org/2000/svg" xmlns:xlink="http://www.w3.org/1999/xlink" x="0px" y="0px"
	 viewBox="0 0 50 50" style="enable-background:new 0 0 50 50;" xml:space="preserve">
<style type="text/css">
	.st0{fill:url(#SVGID_1_);}
	.st1{fill:url(#SVGID_2_);}
	.st2{fill:url(#SVGID_3_);}
	.st3{fill:url(#SVGID_4_);}
	.st4{fill:url(#SVGID_5_);}
</style>
<g>
	
		<linearGradient id="SVGID_1_" gradientUnits="userSpaceOnUse" x1="-223.0867" y1="275.3394" x2="-222.9673" y2="275.3394" gradientTransform="matrix(256 0 0 96 57120 -26400)">
		<stop  offset="0" style="stop-color:#4F4F4F"/>
		<stop  offset="1" style="stop-color:#000000"/>
	</linearGradient>
	<path class="st0" d="M9.8,30.7v3.8c0,0.6,13.9,1.7,22.9,3.8l0,0c4.4-1,7.6-2.3,7.6-3.8l0,0v-3.8c0-1.6-3.2-2.8-7.6-3.8l0,0
		C23.7,28.9,9.8,30,9.8,30.7"/>
	
		<linearGradient id="SVGID_2_" gradientUnits="userSpaceOnUse" x1="-223.0867" y1="276.5135" x2="-222.9673" y2="276.5135" gradientTransform="matrix(256 0 0 96 57120 -26528)">
		<stop  offset="0" style="stop-color:#4F4F4F"/>
		<stop  offset="1" style="stop-color:#000000"/>
	</linearGradient>
	<path class="st1" d="M9.8,15.4v3.8c0,0.6,13.9,1.7,22.9,3.8l0,0c4.4-1,7.6-2.3,7.6-3.8l0,0v-3.8c0-1.6-3.2-2.8-7.6-3.8l0,0
		C23.7,13.7,9.8,14.7,9.8,15.4"/>
	
		<linearGradient id="SVGID_3_" gradientUnits="userSpaceOnUse" x1="-223.0867" y1="275.7559" x2="-222.9673" y2="275.7559" gradientTransform="matrix(256 0 0 160 57120 -44096)">
		<stop  offset="0" style="stop-color:#C40000"/>
		<stop  offset="1" style="stop-color:#FF0000"/>
	</linearGradient>
	<path class="st2" d="M9.8,23v11.5c0-1,30.6-2.9,30.6-7.6l0,0V15.4C40.4,20.2,9.8,22.1,9.8,23"/>
	
		<linearGradient id="SVGID_4_" gradientUnits="userSpaceOnUse" x1="-223.0867" y1="276.4603" x2="-222.9673" y2="276.4603" gradientTransform="matrix(256 0 0 160 57120 -44224)">
		<stop  offset="0" style="stop-color:#C40000"/>
		<stop  offset="1" style="stop-color:#FF0000"/>
	</linearGradient>
	<path class="st3" d="M9.8,7.7v11.5c0-1,30.6-2.9,30.6-7.6l0,0V0.1C40.4,4.9,9.8,6.8,9.8,7.7"/>
	
		<linearGradient id="SVGID_5_" gradientUnits="userSpaceOnUse" x1="-223.0867" y1="275.0514" x2="-222.9673" y2="275.0514" gradientTransform="matrix(256 0 0 160 57120 -43968)">
		<stop  offset="0" style="stop-color:#C40000"/>
		<stop  offset="1" style="stop-color:#FF0000"/>
	</linearGradient>
	<path class="st4" d="M9.8,38.3v11.5c0-1,30.6-2.9,30.6-7.6l0,0V30.7C40.4,35.4,9.8,37.4,9.8,38.3"/>
</g>
</svg>
