<?xml version="1.0" encoding="utf-8"?>
<!-- Generator: Adobe Illustrator 22.0.1, SVG Export Plug-In . SVG Version: 6.00 Build 0)  -->
<svg version="1.1" id="Layer_1" xmlns="http://www.w3.org/2000/svg" xmlns:xlink="http://www.w3.org/1999/xlink" x="0px" y="0px"
	 viewBox="0 0 50 50" style="enable-background:new 0 0 50 50;" xml:space="preserve">
<style type="text/css">
	.st0{fill:#1A171B;}
	.st1{fill:#FFFFFF;}
</style>
<g>
	<circle class="st0" cx="25" cy="25" r="24.7"/>
	<path class="st1" d="M35.7,9.5c-2.5,0.1-4.7,1.5-6.3,3.4c-1.8,2.1-3,4.6-3.9,7.1c-1.5-1.3-2.7-2.9-5.2-3.6
		c-1.9-0.6-3.9-0.3-5.8,1.1C13.6,18.1,13,19,12.8,20c-0.7,2.4,0.8,4.6,1.5,5.3l1.5,1.6c0.3,0.3,1.1,1.1,0.7,2.3
		c-0.4,1.3-2,2.1-3.6,1.6c-0.7-0.2-1.7-0.8-1.5-1.5c0.1-0.3,0.3-0.5,0.4-0.8c0.1-0.2,0.2-0.4,0.2-0.5c0.3-1-0.1-2.2-1.1-2.5
		c-1-0.3-1.9-0.1-2.3,1.2c-0.4,1.4,0.2,3.9,3.8,5c4.2,1.3,7.7-1,8.2-4c0.3-1.9-0.5-3.3-2.1-5l-1.3-1.4c-0.8-0.8-1-2.1-0.2-3.1
		c0.7-0.8,1.6-1.2,3.2-0.8c2.3,0.6,3.3,2.2,5,3.5c-0.7,2.3-1.2,4.6-1.6,6.6l-0.3,1.5c-1.2,6.3-2.1,9.8-4.5,11.8
		c-0.5,0.3-1.2,0.9-2.2,0.9c-0.5,0-0.7-0.4-0.7-0.5c0-0.4,0.3-0.6,0.5-0.7c0.3-0.2,0.8-0.5,0.8-1.4c0-1.1-0.9-2-2.3-2
		c-1,0-2.5,1-2.4,2.6c0.1,1.7,1.7,3.1,4.1,3c1.3,0,4.2-0.6,7.1-4c3.4-3.9,4.3-8.4,5-11.7l0.8-4.4c0.4,0.1,0.9,0.1,1.4,0.1
		c4.2,0.1,6.3-2.1,6.3-3.7c0-1-0.6-1.9-1.5-1.9c-0.6,0-1.5,0.4-1.7,1.3c-0.2,0.9,1.3,1.7,0.1,2.4c-0.8,0.5-2.4,0.9-4.5,0.6l0.4-2.1
		c0.8-4.1,1.8-9.1,5.5-9.2c0.3,0,1.3,0,1.3,0.7c0,0.2,0,0.3-0.3,0.8c-0.3,0.4-0.4,0.7-0.3,1.1c0,1,0.8,1.7,2,1.7
		c1.5,0,2-1.5,1.9-2.3C40.1,10.5,38.2,9.4,35.7,9.5L35.7,9.5z"/>
</g>
</svg>
