<?xml version="1.0" encoding="utf-8"?>
<!-- Generator: Adobe Illustrator 22.0.1, SVG Export Plug-In . SVG Version: 6.00 Build 0)  -->
<svg version="1.1" id="Layer_1" xmlns="http://www.w3.org/2000/svg" xmlns:xlink="http://www.w3.org/1999/xlink" x="0px" y="0px"
	 viewBox="0 0 500 500" style="enable-background:new 0 0 500 500;" xml:space="preserve">
<style type="text/css">
	.st0{fill:#DCFEFF;}
	.st1{fill:#5377A2;}
	.st2{fill:#FDB655;}
	.st3{fill:#6BECFE;}
	.st4{fill:#FFD8B9;}
	.st5{fill:#FF5B70;}
</style>
<path class="st0" d="M251.7,333.7c-129.7,0-234.8-30.6-234.8-68.4v151.4c0,37.8,105.1,68.4,234.8,68.4s234.8-30.6,234.8-68.4V265.3
	C486.4,303.1,381.3,333.7,251.7,333.7z"/>
<path class="st1" d="M304.6,406.3L304.6,406.3l-58.4-72.2l-52.9,65.3l-37.2,45.9c29.5,4.1,62.2,6.3,95.5,6.3c29.6,0,58.7-1.7,85.6-5
	L304.6,406.3z"/>
<path d="M251.7,461.2c-33.3,0-66.8-2.2-96.8-6.3c-3.4-0.5-6.3-2.7-7.6-6c-1.3-3.2-0.7-6.8,1.5-9.5l90-111.3c1.8-2.2,4.5-3.5,7.4-3.5
	l0,0c2.9,0,5.6,1.3,7.4,3.5l91.1,112.5c2.2,2.7,2.7,6.4,1.4,9.6c-1.3,3.2-4.3,5.5-7.7,5.9C310.8,459.5,281.6,461.2,251.7,461.2z
	 M174.4,438c24.6,2.7,50.9,4.1,77.2,4.1c23,0,45.5-1,67.1-3l-72.6-89.7L174.4,438z"/>
<rect x="152.5" y="129.2" class="st2" width="48.8" height="55.5"/>
<rect x="201.3" y="129.2" class="st3" width="149.5" height="55.5"/>
<path class="st1" d="M155.9,129.2h16.7v-25.6h83.7l25.1-20.8l27.8,20.8h21.5v25.6h18.9c3-12.6,4.8-28.4,2.9-46.3
	c-4.6-42.5-18.2-78.8-72.4-64.9c0,0-39.3,6.1-76.9,7.6c-0.6,0-1.2,0.1-1.8,0.1c-17.1,1.2-31.1,13.3-40.4,29.5
	c-12.8,22.4-14.4,49.6-5.3,73.8L155.9,129.2z"/>
<g>
	<polygon class="st4" points="330.7,129.2 330.7,103.5 309.2,103.5 281.4,82.8 256.2,103.5 172.6,103.5 172.6,129.2 	"/>
	<path class="st4" d="M330.1,184.7h-157c3.9,31.5,26.3,57.2,56,66L218.7,287l32.9,20l32.9-20l-10.5-36.3
		C303.8,241.9,326.2,216.2,330.1,184.7z"/>
</g>
<path d="M309.9,166.5c-0.6,0-1.3-0.1-1.9-0.2c-0.6-0.1-1.2-0.3-1.8-0.5c-0.6-0.2-1.1-0.5-1.7-0.9c-0.5-0.4-1-0.8-1.5-1.2
	c-1.8-1.8-2.8-4.2-2.8-6.8c0-0.6,0.1-1.3,0.2-1.9c0.1-0.6,0.3-1.2,0.5-1.8c0.2-0.6,0.5-1.1,0.9-1.7c0.3-0.5,0.7-1,1.2-1.5
	s0.9-0.8,1.5-1.2c0.5-0.3,1.1-0.6,1.7-0.9c0.6-0.2,1.2-0.4,1.8-0.5c1.2-0.2,2.5-0.2,3.7,0c0.6,0.1,1.2,0.3,1.8,0.5
	c0.6,0.2,1.1,0.5,1.6,0.9c0.5,0.3,1,0.7,1.5,1.2c0.4,0.4,0.8,0.9,1.2,1.5c0.3,0.5,0.6,1.1,0.9,1.7c0.2,0.6,0.4,1.2,0.5,1.8
	c0.1,0.6,0.2,1.2,0.2,1.9c0,2.5-1,5-2.8,6.8C314.9,165.5,312.5,166.5,309.9,166.5z"/>
<path class="st5" d="M251.7,333.7c48.4,0,93.4-4.3,130.8-11.6c-1.5-26.4-23.4-47.4-50.2-47.4h-51.2l3.5,12.2l-32.9,20l-32.9-20
	l3.5-12.2H171c-26.8,0-48.7,20.9-50.2,47.4C158.2,329.4,203.2,333.7,251.7,333.7z"/>
<g>
	<path class="st2" d="M63.4,224.4c-29.2,11.4-46.5,25.5-46.5,40.9s17.3,29.5,46.5,40.9C63.4,306.2,63.4,224.4,63.4,224.4z"/>
	<path class="st2" d="M440,224.4v81.7c29.2-11.4,46.5-25.5,46.5-40.9S469.2,235.8,440,224.4z"/>
</g>
<path d="M55.3,425c-2.1,0-4.1-0.7-5.9-2l-0.2-0.2c-2.4-1.9-3.7-4.7-3.7-7.5c0-2.1,0.7-4.1,2-5.9c3.3-4.1,9.3-4.9,13.4-1.6l0.2,0.2
	c2.4,1.9,3.7,4.7,3.7,7.5c0,2.1-0.7,4.1-2,5.9C60.9,423.8,58.1,425,55.3,425z"/>
<polygon class="st3" points="240.3,396 262.9,412.6 285.4,396 304.6,406.3 246.2,334.2 193.3,399.5 217.7,412.6 "/>
<path class="st1" d="M285.4,396l-22.6,16.6L240.3,396l-22.6,16.6l-24.4-13.1l-37.2,45.9c29.5,4.1,62.2,6.3,95.5,6.3
	c29.6,0,58.7-1.7,85.6-5l-32.7-40.4L285.4,396z"/>
<g>
	<path class="st3" d="M156.1,445.4l37.2-45.9l3.6-4.4L170,371.9l-71.9,61.7c4.6,1.3,9.7,2.6,15.2,3.9c14.7,3.5,31,6.3,48.2,8.5
		C159.7,445.9,157.9,445.7,156.1,445.4z"/>
	<path class="st3" d="M333.3,358.7l-37.3,37l8.6,10.6l0,0l32.7,40.4c-3.3,0.4,33.9-4.7,52.8-9.1c6.7-1.6,12.7-3.2,18.1-4.8
		L333.3,358.7z"/>
</g>
<path d="M443.4,215.5c-2.9-1.1-6.3-0.8-8.9,1c-2.6,1.8-4.2,4.7-4.2,7.9v75c-11.4,4.1-24.8,7.9-40,11.3
	c-6.4-26.2-30.1-45.5-58.1-45.5h-44l-2.5-8.5c26.6-11.1,46.1-34.4,52.4-62.5h12.6c5.3,0,9.6-4.3,9.6-9.6v-55.5
	c0-0.9-0.1-1.7-0.4-2.6c3-14.7,3.7-29.8,2.1-44.8c-2.6-23.7-8.2-52.8-29.4-67.5C319,4.9,300.7,3,278.3,8.6c-4.4,0.7-40.9,6-75.4,7.4
	c-0.7,0-1.4,0.1-2.1,0.1c-19.1,1.3-36.1,13.5-48,34.3c-12.8,22.4-15.8,48.9-8.5,74.1c-0.8,1.4-1.3,3-1.3,4.7v55.5
	c0,5.3,4.3,9.6,9.6,9.6h12.6c6.3,28.1,25.8,51.4,52.4,62.5l-2.5,8.5h-44c-27.9,0-51.6,19.3-58.1,45.5c-15.2-3.4-28.6-7.2-40-11.3
	v-75c0-3.2-1.6-6.1-4.2-7.9c-2.6-1.8-5.9-2.2-8.9-1C25,229.2,7.3,245.9,7.3,265.3v151.4c0,23.2,26.2,43.1,75.7,57.5
	c45.2,13.2,105.1,20.4,168.7,20.4s123.5-7.3,168.7-20.4c49.5-14.4,75.7-34.3,75.7-57.5V265.3C496,245.9,478.3,229.2,443.4,215.5z
	 M449.5,239c17.4,8.6,27.4,18,27.4,26.3c0,0.3,0,0.7-0.1,1c0,0.1,0,0.2,0,0.4c0,0.2-0.1,0.4-0.1,0.6c-0.1,0.4-0.2,0.8-0.3,1.1
	c0,0,0,0,0,0c-1.4,5-6.2,10.3-13.7,15.5c-3.7,2.5-8.1,5.1-13.2,7.6L449.5,239L449.5,239z M341.2,175.1L341.2,175.1H210.9v-8.6h67.4
	c5.3,0,9.6-4.3,9.6-9.6s-4.3-9.6-9.6-9.6h-67.4v-8.6h130.4l0,0L341.2,175.1L341.2,175.1z M321.2,119.6H182.1l0,0v-6.5h74.1
	c2.2,0,4.4-0.8,6.1-2.2l19.3-16l21.8,16.3c1.7,1.2,3.7,1.9,5.7,1.9h12L321.2,119.6L321.2,119.6z M169.4,59.9
	c5-8.7,15.9-23.5,32.7-24.7c0.5,0,1-0.1,1.5-0.1c37.8-1.5,76.4-7.4,78-7.7c0.3,0,0.6-0.1,0.9-0.2c17.3-4.4,30.1-3.5,39.2,2.8
	c11.4,7.9,18.1,25,21.3,53.8c1.3,12,0.9,23.9-1.2,35.7h-1.6v-16.1c0-5.3-4.3-9.6-9.6-9.6h-18.4l-25.3-18.9
	c-3.5-2.6-8.4-2.5-11.8,0.3L252.8,94h-80.2c-5.3,0-9.6,4.3-9.6,9.6v16.1h-0.3C156.8,99.3,159.1,77.8,169.4,59.9z M162.1,138.7
	L162.1,138.7h29.7v36.4h-29.7l0,0V138.7z M184.9,194.2L184.9,194.2h133.6c-6.5,22.5-24.1,40.5-47.1,47.3c-5,1.5-7.9,6.8-6.5,11.8
	l6.9,24.1c0,0,0,0,0,0l1.5,5.2l-21.7,13.2l-21.7-13.2l1.5-5.2c0,0,0,0,0,0l6.9-24.1c1.5-5-1.4-10.3-6.5-11.8
	C208.9,234.7,191.4,216.7,184.9,194.2z M131.7,314.4c4.7-17.4,20.6-30.1,39.3-30.1h38.5l0,0c-1.2,4.1,0.5,8.6,4.2,10.8l32.9,20
	c1.5,0.9,3.2,1.4,5,1.4s3.4-0.5,5-1.4l32.9-20c3.7-2.2,5.4-6.7,4.2-10.8l0,0h38.5c18.7,0,34.6,12.7,39.3,30.1
	c-31.5,5.6-67.1,8.8-104,9.6c0,0,0,0-0.1,0c-2.3,0-4.7,0.1-7.1,0.1c-0.4,0-0.8,0-1.3,0c-2.5,0-5,0-7.6,0s-5,0-7.6,0
	c-0.4,0-0.8,0-1.3,0c-2.4,0-4.7-0.1-7.1-0.1c0,0,0,0-0.1,0C198.8,323.3,163.3,320,131.7,314.4z M310.9,439.7c-0.4,0-0.8,0.1-1.3,0.1
	c-2,0.2-3.9,0.3-5.9,0.4c-1,0.1-1.9,0.1-2.9,0.2c-1.7,0.1-3.3,0.2-5,0.3c-1,0.1-2.1,0.1-3.1,0.2c-1.8,0.1-3.6,0.2-5.3,0.3
	c-1,0-2,0.1-3.1,0.1c-1.9,0.1-3.8,0.2-5.8,0.2c-0.9,0-1.8,0.1-2.7,0.1c-2.1,0.1-4.2,0.1-6.3,0.2c-0.7,0-1.4,0-2.1,0
	c-2.3,0-4.7,0.1-7,0.1c-0.4,0-0.7,0-1.1,0c-2.6,0-5.2,0-7.9,0c-3.3,0-6.5,0-9.8-0.1c0,0-0.1,0-0.1,0c-23-0.3-45.8-1.7-67.3-4
	l6.1-7.6l15.2-18.8l17.5,9.4c0.4,0.2,0.8,0.4,1.2,0.5c0.1,0.1,0.3,0.1,0.4,0.1c0.3,0.1,0.5,0.2,0.8,0.2c0.2,0,0.3,0.1,0.5,0.1
	c0.3,0,0.5,0.1,0.8,0.1c0.2,0,0.3,0,0.5,0c0.1,0,0.2,0,0.4,0c0.2,0,0.4,0,0.6,0c0,0,0.1,0,0.1,0c0.4,0,0.8-0.1,1.2-0.2
	c0.1,0,0.1,0,0.2,0c0.4-0.1,0.7-0.2,1.1-0.3c0.1,0,0.1,0,0.2-0.1c0.4-0.1,0.7-0.3,1.1-0.5c0,0,0.1,0,0.1-0.1
	c0.4-0.2,0.7-0.4,1.1-0.7l8.4-6.2l8.4-6.2l16.9,12.4c1.5,1.1,3.2,1.7,4.9,1.8c2.2,0.2,4.5-0.4,6.4-1.8l17.7-13l12.2,6.5l17.5,21.7
	l2.9,3.6c-0.1,0-0.2,0-0.3,0C316,439.3,313.5,439.5,310.9,439.7z M143.4,433.8c-0.1,0-0.2,0-0.2,0c-1.4-0.2-2.7-0.5-4-0.7
	c-0.1,0-0.2,0-0.3-0.1c-1.3-0.2-2.7-0.5-4-0.7c-0.1,0-0.2,0-0.3,0c-2.8-0.5-5.6-1.1-8.3-1.6c0,0-0.1,0-0.1,0
	c-1.2-0.3-2.5-0.5-3.7-0.8c-0.5-0.1-0.9-0.2-1.4-0.3c-0.8-0.2-1.6-0.3-2.4-0.5c-0.1,0-0.3-0.1-0.4-0.1l51.7-44.4l13.6,11.7
	l-31.5,38.9c-1.5-0.2-2.9-0.4-4.4-0.7c0,0-0.1,0-0.1,0C146.2,434.3,144.8,434,143.4,433.8z M387.8,428.3c-9.4,2.2-25.1,4.9-46.6,8.1
	L312,400.3l-3.2-3.9l24.5-24.3l56.3,55.7C389,428,388.4,428.2,387.8,428.3z M262.9,400.8L246,388.3c-2.1-1.5-4.7-2.1-7.1-1.7
	c-1.5,0.2-2.9,0.8-4.2,1.7l-17.7,13l-9-4.8l38.2-47.2l32.3,39.9L262.9,400.8z M53.8,239v52.4c-5.1-2.5-9.5-5-13.2-7.6
	c-7.5-5.2-12.3-10.5-13.7-15.5c0,0,0,0,0,0c-0.1-0.4-0.2-0.8-0.3-1.1c0-0.2-0.1-0.4-0.1-0.6c0-0.1,0-0.2,0-0.4c0-0.3-0.1-0.7-0.1-1
	C26.4,257.1,36.4,247.6,53.8,239z M251.7,475.6c-139.5,0-225.2-34.3-225.2-58.8V297.3c5.5,4.2,12.2,8.2,20,11.9
	c0.1,0.1,0.3,0.1,0.4,0.2c0.8,0.4,1.6,0.8,2.5,1.1c0.4,0.2,0.8,0.3,1.1,0.5c0.3,0.1,0.6,0.2,0.8,0.4c2.7,1.2,5.6,2.4,8.5,3.5
	c0,0,0.1,0,0.1,0c0,0,0,0,0,0c7,2.7,14.7,5.3,23.1,7.8c38.7,11.3,88.3,18.2,141.7,20c0.3,0,0.6,0,0.9,0c0.4,0,0.8,0,1.2,0
	l-31.1,38.5l-19.4-16.7c-3.6-3.1-8.9-3.1-12.5,0l-68,58.3c-1.8-0.5-3.5-1.1-5.2-1.7c-5-1.7-10.4,1.1-12.1,6.1
	c-1.7,5,1.1,10.4,6.1,12.1c3.5,1.1,7.1,2.2,10.9,3.3c0,0,0,0,0,0c0.1,0,0.1,0,0.2,0c1.1,0.3,2.2,0.6,3.4,0.9c0.2,0,0.3,0.1,0.4,0.1
	c1.1,0.3,2.2,0.6,3.3,0.9c0.2,0.1,0.4,0.1,0.6,0.2c1.1,0.3,2.1,0.5,3.2,0.8c0.2,0.1,0.4,0.1,0.7,0.2c1.3,0.3,2.6,0.6,3.9,0.9
	c1.5,0.4,3,0.7,4.5,1c0.4,0.1,0.9,0.2,1.3,0.3c1.2,0.3,2.4,0.5,3.5,0.8c0.4,0.1,0.8,0.2,1.3,0.3c1.6,0.3,3.2,0.6,4.7,1
	c0.2,0,0.4,0.1,0.6,0.1c1.4,0.3,2.8,0.5,4.3,0.8c0.5,0.1,1,0.2,1.4,0.3c1.3,0.2,2.6,0.5,3.9,0.7c0.4,0.1,0.8,0.1,1.1,0.2
	c1.7,0.3,3.3,0.6,5,0.8c0.4,0.1,0.7,0.1,1.1,0.2c1.4,0.2,2.7,0.4,4.1,0.6c0.5,0.1,1,0.2,1.5,0.2c1.5,0.2,3,0.4,4.4,0.6
	c0.2,0,0.4,0.1,0.6,0.1c0,0,0.1,0,0.1,0c0.1,0,0.2,0,0.3,0c1.6,0.2,3.2,0.4,4.8,0.6c0.1,0,0.3,0,0.4,0.1c0,0,0,0,0.1,0c0,0,0,0,0,0
	c0,0,0,0,0,0c0.4,0.1,0.9,0.1,1.3,0.2c1.2,0.2,2.5,0.3,3.7,0.5c0.5,0.1,1,0.1,1.5,0.2c22.7,2.7,47,4.3,71.8,4.7c0.4,0,0.7,0,1.1,0
	c1.6,0,3.1,0,4.7,0.1c0.5,0,1,0,1.4,0c1.9,0,3.8,0,5.7,0c3.5,0,7.1,0,10.6-0.1c0.5,0,0.9,0,1.4,0c3,0,6.1-0.1,9.1-0.2
	c0.7,0,1.5,0,2.2-0.1c2.8-0.1,5.6-0.2,8.4-0.3c1.1,0,2.3-0.1,3.4-0.1c2.6-0.1,5.2-0.2,7.8-0.4c1.1-0.1,2.1-0.1,3.2-0.2
	c2.4-0.1,4.9-0.3,7.3-0.5c1-0.1,1.9-0.1,2.9-0.2c2.8-0.2,5.6-0.4,8.3-0.7c0.7-0.1,1.5-0.1,2.2-0.2c3-0.3,6-0.6,8.9-0.9
	c0.5,0,0.9-0.1,1.4-0.1c3.1-0.3,6.2-0.7,9.2-1c0.2,0,0.3,0,0.5-0.1c0,0,0,0,0,0c0,0,0,0,0.1,0c19.3-2.3,37.4-5.4,53.7-9.3
	c1.5-0.4,3-0.7,4.5-1.1c0.3-0.1,0.6-0.2,0.9-0.2c1.4-0.3,2.7-0.7,4-1c0.1,0,0.2-0.1,0.3-0.1c33.2-8.8,47.5-17.9,52.2-21.7
	c4.2-3.3,4.9-9.3,1.6-13.4c-3.3-4.1-9.3-4.9-13.4-1.6c-1.8,1.4-10.3,7.4-31.5,14.2L340,351.9c-3.7-3.7-9.7-3.7-13.5,0l-29.8,29.6
	l-31-38.3c4-0.1,8-0.2,11.9-0.3c0.3,0,0.6,0,0.9,0c53.4-1.7,103-8.7,141.7-20c8.4-2.4,16.1-5,23.1-7.8c0,0,0,0,0,0c0,0,0.1,0,0.1,0
	c3-1.2,5.8-2.3,8.5-3.5c0.3-0.1,0.6-0.2,0.8-0.4c0.4-0.2,0.8-0.3,1.1-0.5c0.8-0.4,1.6-0.8,2.5-1.1c0.1-0.1,0.3-0.1,0.4-0.2
	c7.9-3.8,14.5-7.7,20-11.9v119.4C476.9,441.3,391.2,475.6,251.7,475.6z"/>
</svg>
