<?xml version="1.0" encoding="utf-8"?>
<!-- Generator: Adobe Illustrator 22.0.1, SVG Export Plug-In . SVG Version: 6.00 Build 0)  -->
<svg version="1.1" id="Layer_1" xmlns="http://www.w3.org/2000/svg" xmlns:xlink="http://www.w3.org/1999/xlink" x="0px" y="0px"
	 viewBox="0 0 50 50" style="enable-background:new 0 0 50 50;" xml:space="preserve">
<style type="text/css">
	.st0{fill:url(#SVGID_1_);}
	.st1{fill:url(#SVGID_2_);}
	.st2{fill:url(#SVGID_3_);}
	.st3{fill:url(#SVGID_4_);}
</style>
<g>
	
		<linearGradient id="SVGID_1_" gradientUnits="userSpaceOnUse" x1="-222.9086" y1="274.7419" x2="-222.9086" y2="274.5637" gradientTransform="matrix(92.2818 0 0 -178.5439 20610.4648 49054.1211)">
		<stop  offset="0" style="stop-color:#73B723"/>
		<stop  offset="1" style="stop-color:#D8EE61"/>
	</linearGradient>
	<path class="st0" d="M42.3,0.6c3.3,1.7,6.2,6.1,6,12.1c-0.4,7.4-5.8,13.8-11.7,19.7c-0.3-7.2-1.9-11.7-4.3-18.2
		C30,7.8,36.7,0.8,42.3,0.6z"/>
	
		<linearGradient id="SVGID_2_" gradientUnits="userSpaceOnUse" x1="-222.2446" y1="275.1404" x2="-222.3716" y2="275.009" gradientTransform="matrix(93.816 0 0 -129.8399 20882.584 35755.457)">
		<stop  offset="0" style="stop-color:#98C9EA"/>
		<stop  offset="0.6886" style="stop-color:#026FB2"/>
		<stop  offset="1" style="stop-color:#086EB6"/>
	</linearGradient>
	<path class="st1" d="M24.3,32.2c1.8-2.2,3-4.2,3.9-6c6,3.2,4.6,2.6,7.5,5.9c0,0.1,0,0.2,0,0.3c0.2,4.7-3.2,15.4-16.5,16.9
		C18.3,42.1,21.4,36,24.3,32.2z"/>
	
		<linearGradient id="SVGID_3_" gradientUnits="userSpaceOnUse" x1="-222.5484" y1="274.3517" x2="-222.3954" y2="274.2383" gradientTransform="matrix(156.0025 0 0 -128.7695 34720.6875 35333.4688)">
		<stop  offset="0" style="stop-color:#D73721"/>
		<stop  offset="1" style="stop-color:#F7D768"/>
	</linearGradient>
	<path class="st2" d="M2.8,5.1c9.5-3.8,19.8,0.1,25.7,8.1c0.6,0.8,1.1,1.6,1.6,2.4c0.9,5.9,0.2,9.2-1.6,10.9
		c-1.2-0.6-2.4-1.1-3.8-1.6c-3.1-1.1-6-1.9-10.2-3.1C4.8,19.2,2.4,10.8,2.8,5.1z"/>
	
		<linearGradient id="SVGID_4_" gradientUnits="userSpaceOnUse" x1="-221.4077" y1="274.3058" x2="-221.3082" y2="274.2153" gradientTransform="matrix(42.8774 0 0 -97.3628 9523.2256 26729.418)">
		<stop  offset="0" style="stop-color:#D4C883"/>
		<stop  offset="1" style="stop-color:#A1D1A7"/>
	</linearGradient>
	<path class="st3" d="M29.8,15.1c0.1,0.1,0.1,0.2,0.2,0.3l0.1,0.1c0.2,0.2,0.3,0.5,0.5,0.7l0,0l0,0.1l0,0.1l0.1,0.2l0,0l0.1,0.3l0,0
		c0.1,0.2,0.2,0.4,0.3,0.6l0,0l0.1,0.2l0,0l0.1,0.2l0,0.1l0.1,0.1l0.1,0.2l0.1,0.2c0.1,0.2,0.2,0.3,0.2,0.5l0,0
		c0.1,0.3,0.3,0.6,0.4,0.9l0.1,0.2l0,0l0.1,0.1l0.1,0.2l0,0.1l0.1,0.2l0.1,0.1l0.1,0.3l0,0l0.1,0.3l0,0c0.1,0.3,0.2,0.6,0.4,0.9l0,0
		l0.1,0.2l0,0l0.1,0.1c0.1,0.2,0.1,0.3,0.2,0.5l0,0.1c0.1,0.2,0.1,0.4,0.2,0.6l0,0.1c0.1,0.2,0.1,0.3,0.2,0.5l0,0.1l0,0l0.1,0.3l0,0
		l0.1,0.3l0.1,0.3l0,0l0.1,0.2l0,0.1l0,0.1c0,0.2,0.1,0.3,0.1,0.5l0,0.1l0.1,0.2l0,0c0.1,0.3,0.2,0.6,0.2,0.9l0,0l0,0
		c0.1,0.4,0.2,0.8,0.3,1.2l0,0c0.1,0.6,0.2,1.2,0.3,1.8l0,0c0,0.2,0.1,0.4,0.1,0.6l0,0.1l0,0.3v0l0,0.2l0,0.1l0,0.2l0,0.1l0,0l0,0.3
		c-2.1-2.7-4.6-4.6-7.6-6C30.6,21.6,30.3,18.2,29.8,15.1"/>
</g>
</svg>
