<?xml version="1.0" encoding="utf-8"?>
<!-- Generator: Adobe Illustrator 22.0.1, SVG Export Plug-In . SVG Version: 6.00 Build 0)  -->
<svg version="1.1" id="Layer_1" xmlns="http://www.w3.org/2000/svg" xmlns:xlink="http://www.w3.org/1999/xlink" x="0px" y="0px"
	 viewBox="0 0 50 50" style="enable-background:new 0 0 50 50;" xml:space="preserve">
<style type="text/css">
	.st0{fill:#6FB643;}
</style>
<g>
	<path class="st0" d="M23.5,20.9c0,0,0-6.5,6.5-6.5h19.5c0,0,0,6.5-6.5,6.5H23.5"/>
	<path class="st0" d="M23.5,29.2c0,0,0-6.5,6.5-6.5h9.7c0,0,0,6.5-6.5,6.5H23.5"/>
	<path class="st0" d="M23.5,37.5c0,0,0-6.5,6.5-6.5h3.2c0,0,0,6.5-6.5,6.5H23.5"/>
	<path class="st0" d="M21.3,32.5v5.2H0.4l13.5-18.4H2.3v-5.2h21.8L10.7,32.5H21.3"/>
</g>
</svg>
